<?xml version="1.0" encoding="utf-8"?>
<!-- Generator: Adobe Illustrator 28.0.0, SVG Export Plug-In . SVG Version: 6.00 Build 0)  -->
<svg version="1.1" id="Layer_1" xmlns="http://www.w3.org/2000/svg" xmlns:xlink="http://www.w3.org/1999/xlink" x="0px" y="0px"
	 viewBox="0 0 1047.1 594.8" style="enable-background:new 0 0 1047.1 594.8;" xml:space="preserve">
<style type="text/css">
	.st0{fill:#ED1C24;}
	.st1{fill:#FFFFFF;}
</style>
<g>
	<g>
		<path class="st0" d="M191.5,388.9h-3.7v65.5H172v-80h30.2l18.1,57.4h1.2l18.1-57.4h30.2v80h-15.9v-65.5h-3.7l-18,57.4h-22.7
			L191.5,388.9z"/>
		<path class="st0" d="M397.1,429.7c0,4.4-0.5,8.2-1.4,11.4c-0.9,3.2-2.4,5.9-4.4,8c-2,2.1-4.6,3.6-7.8,4.5c-3.2,1-7.1,1.5-11.7,1.5
			h-20.6c-4.6,0-8.4-0.5-11.6-1.5c-3.2-0.9-5.8-2.4-7.8-4.5c-2-2.1-3.6-4.8-4.4-8c-0.9-3.1-1.4-7-1.4-11.4V399
			c0-4.4,0.5-8.2,1.4-11.5c0.8-3.1,2.4-5.8,4.4-7.9c2-2,4.6-3.5,7.8-4.5c3.2-0.9,7-1.4,11.6-1.4h20.6c4.6,0,8.5,0.5,11.7,1.4
			c3.2,1,5.8,2.5,7.8,4.5c2,2.1,3.4,4.8,4.4,7.9c0.9,3.2,1.4,7.1,1.4,11.5V429.7z M381.3,399c0-2.2-0.1-3.9-0.5-5.4
			c-0.4-1.4-0.8-2.4-1.7-3.2c-0.8-0.8-1.9-1.3-3.3-1.6c-1.4-0.3-3.2-0.5-5.4-0.5h-17.8c-2.2,0-4,0.1-5.4,0.5
			c-1.4,0.3-2.5,0.8-3.3,1.6c-0.8,0.8-1.3,1.9-1.5,3.2c-0.4,1.5-0.5,3.2-0.5,5.4v30.7c0,2.2,0.1,4.1,0.5,5.4
			c0.2,1.4,0.7,2.4,1.5,3.2c0.8,0.8,1.9,1.4,3.3,1.7c1.4,0.3,3.2,0.5,5.4,0.5h17.8c2.2,0,4-0.1,5.4-0.5c1.4-0.3,2.5-0.9,3.3-1.7
			c0.8-0.8,1.3-1.9,1.7-3.2c0.4-1.4,0.5-3.2,0.5-5.4V399z"/>
		<path class="st0" d="M474.3,388.9h-26.9v-14.5H517v14.5h-26.9v65.5h-15.9V388.9z"/>
		<path class="st0" d="M638.5,429.7c0,4.4-0.5,8.2-1.4,11.4c-0.9,3.2-2.4,5.9-4.4,8c-2,2.1-4.6,3.6-7.8,4.5c-3.2,1-7.1,1.5-11.7,1.5
			h-20.6c-4.6,0-8.4-0.5-11.6-1.5c-3.2-0.9-5.8-2.4-7.8-4.5c-2-2.1-3.6-4.8-4.4-8c-0.9-3.1-1.4-7-1.4-11.4V399
			c0-4.4,0.5-8.2,1.4-11.5c0.8-3.1,2.4-5.8,4.4-7.9c2-2,4.6-3.5,7.8-4.5c3.2-0.9,7-1.4,11.6-1.4h20.6c4.6,0,8.5,0.5,11.7,1.4
			c3.2,1,5.8,2.5,7.8,4.5c2,2.1,3.4,4.8,4.4,7.9c0.9,3.2,1.4,7.1,1.4,11.5V429.7z M622.6,399c0-2.2-0.1-3.9-0.5-5.4
			c-0.4-1.4-0.8-2.4-1.7-3.2c-0.8-0.8-1.9-1.3-3.3-1.6c-1.4-0.3-3.2-0.5-5.4-0.5H594c-2.2,0-4,0.1-5.4,0.5c-1.4,0.3-2.5,0.8-3.3,1.6
			c-0.8,0.8-1.3,1.9-1.5,3.2c-0.4,1.5-0.5,3.2-0.5,5.4v30.7c0,2.2,0.1,4.1,0.5,5.4c0.2,1.4,0.7,2.4,1.5,3.2c0.8,0.8,1.9,1.4,3.3,1.7
			c1.4,0.3,3.2,0.5,5.4,0.5h17.8c2.2,0,4-0.1,5.4-0.5s2.5-0.9,3.3-1.7c0.8-0.8,1.3-1.9,1.7-3.2c0.4-1.4,0.5-3.2,0.5-5.4V399z"/>
		<path class="st0" d="M694.7,374.4h43c6.5,0,11.6,1.6,15.5,5c3.8,3.4,5.7,8.3,5.7,14.7v12.7c0,2.7-0.4,5-0.9,7
			c-0.6,2-2.2,3.9-4.9,5.7l-7.2,5l22.7,29.9h-19.5l-20.5-26.7h-18v26.7h-15.9V374.4z M743,395.7c0-2.4-0.5-4.3-1.5-5.3
			c-1.1-1-2.8-1.5-5.4-1.5h-25.5v24.3h25.1c0.6,0,1.2-0.1,1.8-0.5c0.6-0.3,1.4-0.8,2.6-1.6c1.3-0.9,2.1-1.9,2.5-2.7
			c0.4-0.8,0.5-2,0.5-3.4V395.7z"/>
		<path class="st0" d="M879.2,430.6c0,8.5-1.9,14.6-5.6,18.5c-3.7,3.9-9.8,5.9-18.5,5.9h-16.1c-3.6,0-7-0.1-10.4-0.3
			c-3.4-0.1-7-0.6-10.5-1.2v-13.8c2.7,0.3,5.8,0.5,9.4,0.6c3.6,0.1,8,0.2,13.5,0.2h14.9c3,0,5-0.9,6-2.8c0.9-1.9,1.4-4.3,1.4-7.2
			c0-2-0.2-3.8-0.6-5.3c-0.4-1.5-1.4-2.3-3.1-2.4l-28.8-2.2c-2.7-0.2-5.1-0.9-7-2.1c-1.9-1-3.4-2.6-4.6-4.5c-1.2-2-2-4.3-2.5-7
			c-0.6-2.7-0.8-5.7-0.8-8.9c0-8.5,1.9-14.6,5.6-18.5c3.7-3.9,9.8-5.9,18.3-5.9h12.4c3.6,0,7.1,0.1,10.8,0.3
			c3.6,0.2,7.1,0.7,10.7,1.3v14l-4-0.5c-1.3-0.1-2.8-0.3-4.4-0.5c-1.5-0.1-3.3-0.1-5.3-0.2c-2,0-4.4,0-7,0h-13.7c-3,0-5,0.9-5.9,2.7
			c-1.1,1.9-1.5,4.3-1.5,7.3c0,2,0.2,3.8,0.6,5.3c0.4,1.6,1.3,2.5,3,2.7l28.9,2.1c5.6,0.3,9.4,2.5,11.6,6.5
			C878.1,418.8,879.2,424,879.2,430.6z"/>
	</g>
	<path class="st0" d="M67,117.8c0,0,50.4,4.9,95.4-28.7c0,0,309.9-157.1,529.4,27c0,0-110-82.6-291.2-65.4l72.5,80.4h271.8
		c0,0,155.2-7.6,248.3,71.1c0,0-150.1-58.6-344.7-35c0,0,32.5,30.2,44.4,36.5c0,0-119.1-46.1-258.7-46.1c0,0-221.3-7.5-277.5-24.7
		c0,0-0.9,7.5-11,7.7c0,0,57-9.5,84.4,32.3c0,0-37.2-24.2-97.5-21.2c0,0-71.9-6.6-92.1,32.5c0,0,3.6-25.5,17.9-40.4
		c0,0,43.1,3,48.4-4.6C106.7,139,68.8,133,67,117.8z"/>
	<path class="st1" d="M197.6,94.1l-8.4,9.3c0,0-8.2,34.8,266.9,30l-47.7-52.1c0,0-30.1-52-128.5-17.2
		C279.9,64,236.3,74.8,197.6,94.1z"/>
	<g>
		<path d="M44.4,204.1h74c11.2,0,20,2.9,26.7,8.8c6.5,6,9.8,14.8,9.8,26.1v26.7c0,11.3-3.3,19.9-9.8,25.9c-6.7,6-15.5,9-26.7,9H87.7
			c-4.1,0-7.3-0.2-9.8-0.4c-2.4-0.2-4.5-0.4-6.1-0.8V346H44.4V204.1z M127.6,241.9c0-4.5-0.8-7.6-2.7-9.5c-1.8-1.9-4.9-2.7-9.6-2.7
			H71.7V275h43.6c4.7,0,7.7-0.8,9.6-2.7c1.8-1.9,2.7-4.9,2.7-9.5V241.9z"/>
		<path d="M897.8,229.8H893V346h-27.3V204.1H914l60.6,116.2h4.9V204.1h27.3V346h-48.5L897.8,229.8z"/>
		<path d="M751.5,204.1h46.7L847.7,346h-28.3l-10-28.4H740l-9.8,28.4h-28.5L751.5,204.1z M748.8,291.9h52l-21.6-62.1h-9L748.8,291.9
			z"/>
		<path d="M623.8,320.3H696V346h-99.5V204.1h27.3V320.3z"/>
		<path d="M496.2,302.2c0,3.9,0.2,7.2,0.8,9.7c0.6,2.5,1.6,4.3,3.1,5.8c1.4,1.4,3.3,2.5,5.7,3.1c2.4,0.6,5.5,0.8,9.4,0.8h16.3
			c10.2,0,18.8-0.2,25.9-0.6c7.1-0.4,12.6-0.8,16.7-1v24.5c-4.9,0.6-9.2,1-12.6,1.2c-3.5,0.4-6.7,0.6-9.8,0.8
			c-3.1,0.2-5.9,0.4-8.8,0.6c-2.9,0.2-5.9,0.2-9.4,0.2h-21.4c-7.7,0-14.3-0.8-19.8-2.7c-5.5-1.6-10-4.3-13.5-8
			c-3.5-3.5-6.1-8.2-7.5-14c-1.6-5.6-2.4-12.3-2.4-20.2v-54.7c0-7.8,0.8-14.6,2.4-20.4c1.4-5.6,4.1-10.3,7.5-14
			c3.5-3.5,8-6.2,13.5-8c5.5-1.6,12-2.5,19.8-2.5h21.4c3.5,0,6.5,0,9.4,0.2c2.9,0.2,5.7,0.2,8.8,0.4c3.1,0.2,6.3,0.6,9.8,0.8
			c3.5,0.4,7.7,0.8,12.6,1.4v24.5c-4.1-0.2-9.6-0.6-16.7-1c-7.1-0.4-15.7-0.6-25.9-0.6h-16.3c-3.9,0-6.9,0.2-9.4,0.8
			c-2.4,0.6-4.3,1.4-5.7,2.9c-1.4,1.4-2.4,3.3-3.1,5.8c-0.6,2.7-0.8,5.8-0.8,9.7V302.2z"/>
		<path d="M442.4,302.2c0,7.8-0.8,14.6-2.4,20.2c-1.6,5.8-4.1,10.5-7.5,14.2c-3.5,3.7-8,6.4-13.5,8c-5.5,1.9-12.2,2.7-20.2,2.7
			h-35.5c-8,0-14.5-0.8-20-2.7c-5.5-1.6-10-4.3-13.5-8c-3.5-3.7-6.1-8.4-7.5-14.2c-1.6-5.6-2.4-12.3-2.4-20.2v-54.5
			c0-7.8,0.8-14.6,2.4-20.4c1.4-5.6,4.1-10.3,7.5-14c3.5-3.5,8-6.2,13.5-8c5.5-1.6,12-2.5,20-2.5h35.5c8,0,14.7,0.8,20.2,2.5
			c5.5,1.9,10,4.5,13.5,8c3.5,3.7,5.9,8.4,7.5,14c1.6,5.8,2.4,12.5,2.4,20.4V302.2z M415.1,247.7c0-3.9-0.2-7-0.8-9.7
			c-0.6-2.5-1.4-4.3-2.9-5.8c-1.4-1.4-3.3-2.3-5.7-2.9c-2.4-0.6-5.5-0.8-9.4-0.8h-30.6c-3.9,0-6.9,0.2-9.4,0.8
			c-2.4,0.6-4.3,1.4-5.7,2.9c-1.4,1.4-2.2,3.3-2.7,5.8c-0.6,2.7-0.8,5.8-0.8,9.7v54.5c0,3.9,0.2,7.2,0.8,9.7
			c0.4,2.5,1.2,4.3,2.7,5.8c1.4,1.4,3.3,2.5,5.7,3.1c2.4,0.6,5.5,0.8,9.4,0.8h30.6c3.9,0,6.9-0.2,9.4-0.8c2.4-0.6,4.3-1.6,5.7-3.1
			c1.4-1.4,2.2-3.3,2.9-5.8c0.6-2.5,0.8-5.8,0.8-9.7V247.7z"/>
		<path d="M177.4,204.1h74c11.2,0,20,2.9,26.7,8.8c6.5,6,9.8,14.8,9.8,26.1v22.6c0,4.7-0.6,8.8-1.6,12.3c-1,3.5-3.9,7-8.4,10.1
			l-12.4,8.8l39.1,53.1h-33.6l-35.3-47.3h-31V346h-27.3V204.1z M260.5,241.9c0-4.3-0.8-7.6-2.7-9.5c-1.8-1.9-4.9-2.7-9.4-2.7h-43.8
			V273h43.2c1,0,2-0.2,3.1-0.8c1-0.6,2.4-1.4,4.5-2.9c2.2-1.6,3.7-3.3,4.3-4.7c0.6-1.4,0.8-3.5,0.8-6V241.9z"/>
	</g>
	<g>
		<path d="M256.5,529.8c-0.9,1-1.1,1.9-0.6,2.5c0.5,0.6,1.1,0.9,1.8,0.9c0.7,0,1.3-0.1,2-0.3c3-0.9,5.8-2.7,8.6-5.3
			c2.8-2.7,4.2-5.4,4.2-8.1c0-1.5-1.7-3.2-5.1-5c-1.6-0.8-2.5-1.3-2.7-1.4c-1.9-1.2-3-2.5-3.5-3.7c-1,1.7-2.5,4-4.7,7.1
			c-0.5,0.6-0.9,0.7-1.3,0.4c-0.4-0.3-0.4-0.7-0.1-1.3c2.8-3.9,4.7-7.1,5.6-9.7c0.5-3.8,3.2-7.2,8.3-10.2c5-3,9.6-4.6,13.8-4.6
			c2.6,0,4.5,0.5,5.5,1.4c1.1,0.9,1.6,1.8,1.6,2.7c0,0.9-0.3,1.9-0.8,3.1c-0.5,1.2-1.6,2.3-3.2,3.3c-0.4,0.3-0.8,0.2-1-0.2
			c-0.1-0.4,0.2-1,0.9-1.7c0.7-0.7,1.2-1.7,1.4-2.9c0.2-1.2-0.3-2-1.7-2.3c-0.2,0-0.4,0-0.6,0c-2.7,0-6,1-10.1,3
			c-4,2-7.2,4.6-9.5,7.8c-0.9,1.2-1.3,2.4-1.3,3.6c0,1.2,0.8,2.3,2.5,3.3c0.7,0.4,1.9,1.1,3.5,2c1.7,0.9,2.8,1.6,3.5,2
			c0.7,0.4,1.5,1.1,2.5,2c1,0.9,1.5,1.7,1.6,2.5c0.3,2.1-0.6,4.3-2.9,6.8c-3.2,3.6-8.1,6.1-14.5,7.5c-1.4,0.3-2.9,0.5-4.4,0.5
			c-1.5,0-2.5-0.6-3-1.7c-0.2-0.3-0.3-0.7-0.3-1.3c0-0.6,0.6-1.5,1.7-2.8c1-1,2.7-2,5-3c0.2-0.1,0.4,0,0.5,0.1
			c0.1,0.1,0.2,0.3,0.1,0.5c-0.1,0.2-0.4,0.4-1.1,0.7C258,528.2,257.3,528.8,256.5,529.8z"/>
		<path d="M321.5,468.3c1.2-0.5,2.3-0.7,3.2-0.7c3,0,5,0.8,6,2.5c0.6,0.8,0.8,1.6,0.8,2.2c0,4.7-3.9,10.6-11.8,17.7
			c-7,6.1-13.4,11.4-19.2,15.8c-1.9,4.3-3.9,9.7-6,16c2.5-3,5.6-6.5,9.4-10.5c7.7-7.9,13-11.9,16-11.9c1.5,0,2.3,0.8,2.4,2.3
			c0.1,1.6-0.2,3.1-1,4.6c-0.8,1.4-1.5,2.8-2.2,4c-3.2,5.4-4.9,10.2-4.9,14.4c0,1.4,0.3,2.4,0.8,3c1,1.1,2.3,1.2,4.1,0.2
			c1.8-1,4.3-2.9,7.5-5.8s5.8-5.7,7.8-8.5c0.3-0.3,0.7-0.4,1-0.3c0.3,0.2,0.5,0.3,0.5,0.5c0,0.2-0.1,0.4-0.2,0.6
			c-1,1.9-2.9,4.2-5.6,7.1c-2.7,2.9-4.9,4.9-6.5,6.2c-3.2,2.4-6.2,3.6-9.1,3.6c-2.6,0-4.4-1.3-5.3-3.9c-0.2-0.6-0.3-1.4-0.3-2.2
			c0-0.9,0.1-1.8,0.2-2.7c0.3-2.9,2.2-7.4,5.5-13.5c0.7-1.2,1-2.1,1-2.6c0-0.5-0.3-0.8-0.8-0.8c-1.1,0-3.2,1.4-6.4,4.1
			c-2.1,2-5.3,5.8-9.5,11.3c-4.2,5.6-6.5,8.5-7.1,8.8c-2.5,1.2-4,1.9-4.6,1.9c-0.6,0-0.9-0.1-1-0.3c-0.1-0.2,0-0.4,0.1-0.7
			c0.1-0.3,0.7-1.8,1.7-4.6c3.2-9.2,5.4-15.2,6.6-18.2c-2.3,2.9-5.1,6.2-8.5,9.8c-0.6,0.6-0.8,0.4-0.8-0.4c0-0.8,0.3-1.6,0.9-2.4
			c0.6-0.8,1.9-2.4,3.9-4.8c2-2.4,3.4-4.2,4.2-5.3c-0.6-0.3-0.9-0.8-1-1.4c0-0.6,0.2-1,0.6-1.3c0.4-0.2,1.2-0.2,2.2,0.3
			c0.7-1,1.3-2,1.9-3.2C306.4,481.4,314.2,471.2,321.5,468.3z M327.3,476.1c0.9-1.7,1.3-3,1.3-4.2s-0.5-1.7-1.5-1.7
			c-1,0-2.3,0.6-4,1.9c-7.6,5.8-14.4,15.5-20.6,29.1c4.5-2.9,9.2-6.8,14.1-11.6C321.6,484.7,325.1,480.2,327.3,476.1z"/>
		<path d="M354.6,517.4c1.2-2.5,1.9-4.5,1.9-5.9c0-1.4-0.2-2.5-0.5-3.3c-0.3-0.8-0.2-1.5,0.4-2c0.6-0.6,1.3-0.8,2.2-0.6
			c1.4,0.3,2.1,1.9,2.1,4.7s-1.6,6.4-4.9,10.9c0.1,1.9,1,2.8,2.9,2.8c1.9,0,4.7-2,8.5-6c1.8-2.1,2.9-3.4,3.4-4
			c0.4-0.6,0.8-0.8,1.2-0.7c0.3,0.2,0.5,0.3,0.5,0.5c0,0.7-1.2,2.5-3.7,5.4c-3.9,4.8-7.4,7.2-10.4,7.2c-2,0-3.4-0.9-4.2-2.6
			c-1.4,1.4-2.7,2.8-4,4c-2.7,2.3-5.7,3.4-9,3.4c-1.9,0-3.4-0.4-4.7-1.3c-2.4-1.4-3.6-4-3.6-7.8c0-4.1,1.4-8.2,4.1-12.4
			c1.6-2.5,3.4-4.7,5.6-6.5c3.4-3,6.6-4.4,9.6-4.4c0.8,0,1.5,0.1,2.2,0.3c2.1,0.7,3.1,2,3.1,3.9c0,1.6-0.4,2.4-1.2,2.4
			c-0.3-0.1-0.5-0.7-0.5-1.6c0-1.2-0.7-1.9-2.1-1.9c-2.4,0-5.5,2.2-9.3,6.6c-3.8,4.4-6.1,8.9-6.8,13.3c-0.1,0.8-0.2,1.6-0.2,2.5
			c0,0.9,0.3,2,0.9,3.2c0.6,1.2,1.8,1.8,3.5,1.8c1.7,0,3.5-0.8,5.5-2.3c2-1.5,3.8-3.4,5.4-5.8l-0.3-0.6c-0.3-1.1-0.1-2,0.4-2.7
			C353,517.4,353.7,517.2,354.6,517.4z"/>
		<path d="M385.4,503c-1,0.8-2.8,3-5.5,6.5c-2.7,3.5-4.5,6.6-5.5,9.3c-1,2.7-1.5,4.9-1.5,6.6s0.7,2.6,2.2,2.6s3.6-1.1,6.3-3.2
			c4.3-3.6,9.2-10.2,14.7-20c0.3-0.5,0.8-0.7,1.5-0.7s1.7,0.2,3,0.6c1.3,0.4,1.9,0.9,1.9,1.5c0,0.2-0.1,0.4-0.2,0.6
			c-2.9,4.7-4.7,10-5.5,15.9c-0.3,2,0.1,3.6,1,4.9c0.9,1.2,2.7,1.1,5.5-0.4c4.3-2.1,8.2-5.5,11.7-10c3.5-4.6,5.7-8.6,6.6-12.3
			c0.3-0.8,0.4-1.6,0.4-2.5c0-3.9-1.1-6.2-3.3-7c-0.6-0.3-1.3-0.4-2.1-0.3s-1.2,0.1-1.3-0.1c-0.1-0.2-0.2-0.4-0.1-0.6
			c0.1-0.6,1.6-0.9,4.2-0.9c4.5,0,6.7,2.3,6.7,6.9c0,4.6-2.6,10.2-7.9,16.6c-3.3,3.9-7.2,7.5-11.7,10.9c-2.5,1.7-5.1,2.6-7.8,2.6
			c-3.5,0-5.7-1.3-6.5-3.9c-0.5-1.2-0.7-3.2-0.7-5.9s0.3-4.9,1-6.6c-1.9,3.7-3.9,6.9-6.1,9.4c-2.2,2.6-4.1,4.3-5.6,5.2
			c-1.6,0.9-3.1,1.4-4.7,1.4c-2.8,0-4.7-0.7-5.8-2.2c-1.1-1.5-1.7-3.1-1.7-4.8c0-2.3,0.5-4.7,1.5-7.4c1-2.7,2-4.8,3-6.3
			c1-1.6,2.3-3.4,3.9-5.6c1.6-2.2,2.7-3.4,3.2-3.6c1-0.3,2-0.4,2.9-0.4c0.9,0,1.7,0.1,2.4,0.4c0.7,0.3,1,0.6,1.1,1
			C386.9,501.5,386.4,502.1,385.4,503z"/>
		<path d="M446.3,568.2c-0.6,0-1.2-0.1-2.1-0.3c-3.5-0.9-5.3-2.7-5.3-5.5c0-2.8,1.8-6.3,5.4-10.5c3.6-4.2,11.3-10.2,22.9-17.9
			c6.5-13.2,10.6-22.5,12.3-27.8c-0.8,1-2.4,3-4.9,6.3c-2.4,3.2-4.5,5.9-6.4,8.2c-1.9,2.2-4.1,4.4-6.7,6.4c-2.6,2-5,3-7.2,3
			c-2.2,0-3.9-0.5-5.1-1.5c-1.2-1-1.9-2.1-2-3.2s-0.2-2-0.2-2.8c0-2.6,0.7-5.1,2.1-7.7c2.1-4.2,4.9-7.8,8.4-10.9
			c1.3-1.2,2.5-1.9,3.5-1.9c1,0,1.9,0.3,2.7,0.9c0.9,1,1.2,1.8,0.8,2.5c-2.6,1.5-5.6,4.4-9,8.8c-1.8,2.3-3,5.3-3.7,8.9
			c-0.1,0.5-0.1,1.1-0.1,1.8c0,0.7,0.3,1.3,0.9,1.8c0.6,0.4,1.2,0.7,1.8,0.7c2.1,0,4.4-1.1,6.7-3.4c2.3-2.3,4.6-4.7,6.7-7.2
			c2.1-2.5,4.6-5.5,7.3-9c2.7-3.5,4.5-5.8,5.4-6.9c0.9-1.1,1.7-1.7,2.6-1.7c1.1,0,2.2,0.3,3.4,0.9c1.2,0.6,1.7,1.1,1.5,1.4
			c-0.2,0.3-1.9,4.3-5.3,11.7c-3.3,7.5-5.8,12.8-7.3,16.1c1.7-0.9,4.5-3,8.4-6.4c4-3.3,7.3-6.7,10.1-10.2c0.7-0.8,1.1-0.9,1.3-0.2
			c0.1,0.1,0.1,0.4,0.1,0.7s-0.2,0.7-0.6,1.3c-2.1,2.8-5.5,6.4-10.2,10.6c-4.7,4.3-8.4,7.2-11.2,8.7c-5.9,12.1-9.8,19.6-11.8,22.7
			C456.5,564.4,451.4,568.2,446.3,568.2z M465.3,537.9c-8.3,6.2-14.2,11.1-17.7,14.7s-5.3,6.7-5.3,9.3s0.9,3.9,2.7,3.9
			c1.4,0,3-0.7,4.8-2.1c1.8-1.4,3.5-3.3,5.2-5.6c1.7-2.3,2.9-4.4,3.8-6c0.9-1.7,2.1-4.2,3.6-7.4C463.8,541.2,464.8,539,465.3,537.9z
			"/>
		<path d="M513.4,517.4c1.2-2.5,1.9-4.5,1.9-5.9c0-1.4-0.2-2.5-0.5-3.3c-0.3-0.8-0.2-1.5,0.4-2c0.6-0.6,1.3-0.8,2.2-0.6
			c1.4,0.3,2.1,1.9,2.1,4.7s-1.6,6.4-4.9,10.9c0.1,1.9,1,2.8,2.9,2.8c1.9,0,4.7-2,8.5-6c1.8-2.1,2.9-3.4,3.4-4
			c0.4-0.6,0.8-0.8,1.2-0.7c0.3,0.2,0.5,0.3,0.5,0.5c0,0.7-1.2,2.5-3.7,5.4c-3.9,4.8-7.4,7.2-10.4,7.2c-2,0-3.4-0.9-4.2-2.6
			c-1.4,1.4-2.7,2.8-4,4c-2.7,2.3-5.7,3.4-9,3.4c-1.9,0-3.4-0.4-4.7-1.3c-2.4-1.4-3.6-4-3.6-7.8c0-4.1,1.4-8.2,4.1-12.4
			c1.6-2.5,3.4-4.7,5.6-6.5c3.4-3,6.6-4.4,9.6-4.4c0.8,0,1.5,0.1,2.2,0.3c2.1,0.7,3.1,2,3.1,3.9c0,1.6-0.4,2.4-1.2,2.4
			c-0.3-0.1-0.5-0.7-0.5-1.6c0-1.2-0.7-1.9-2.1-1.9c-2.4,0-5.5,2.2-9.3,6.6c-3.8,4.4-6.1,8.9-6.8,13.3c-0.1,0.8-0.2,1.6-0.2,2.5
			c0,0.9,0.3,2,0.9,3.2c0.6,1.2,1.8,1.8,3.5,1.8c1.7,0,3.5-0.8,5.5-2.3c2-1.5,3.8-3.4,5.4-5.8l-0.3-0.6c-0.3-1.1-0.1-2,0.4-2.7
			C511.8,517.4,512.5,517.2,513.4,517.4z"/>
		<path d="M571.3,521.5c-2.7,2.9-5.1,5.1-7.2,6.7c-2.8,2-5.8,3-9,3c-0.6,0-1.4-0.3-2.4-0.9c-1-0.6-1.7-1.4-2-2.5
			c-0.3-1.1-0.5-2.2-0.5-3.2c0-3.6,0.7-7.1,2.1-10.6c-0.2,0.1-1.2,1.6-2.8,4.4c-1.7,2.8-3.8,5.4-6.2,7.9c-2.4,2.5-4.9,3.7-7.4,3.7
			c-1.2,0-2.5-0.3-4-0.9c-2.8-1.2-4.1-3.5-4.1-6.8c0-4.1,1.4-8.3,4.2-12.6c2.8-4.3,4.6-6.6,5.3-6.9c1-0.3,2-0.4,2.9-0.4
			c0.9,0,1.9,0.2,2.8,0.6c1,0.4,0.8,1-0.4,1.9c-4.8,4.3-8.1,9.2-10.1,14.5c-0.8,2.1-1.1,3.8-1.1,5.2c0,1.4,0.4,2.3,1.1,2.7
			c0.7,0.4,1.4,0.6,2.1,0.6c1.7,0,3.9-1.2,6.8-3.5c2.9-2.3,6.8-7.1,11.8-14.4c0.7-1,1.9-3,3.6-6c1.7-3,2.8-4.8,3.1-5.3
			c1.1,0,2.4,0.3,3.9,0.8c1.5,0.5,2,1.2,1.5,2c-3.3,5.5-5.6,9.6-7,12.2c-1.3,2.6-2.3,5.7-2.7,9.2c-0.1,0.6-0.1,1.4-0.1,2.4
			c0,1,0.3,1.8,0.8,2.4c1,1.1,2.5,1.2,4.3,0.2c1.8-1,4.3-2.9,7.5-5.8c3.2-2.9,5.7-5.7,7.7-8.4c0.3-0.3,0.6-0.4,1-0.3
			c0.4,0.2,0.6,0.3,0.6,0.5c0,0.2-0.1,0.4-0.2,0.6C575.9,516.2,574,518.6,571.3,521.5z"/>
		<path d="M588,531.4c-3.5,0-5.3-2.1-5.3-6.4s3-9.5,9.1-15.7c0.5-0.5,0.8-0.9,1-1.1l0.7-1c1-1.3,1.4-2.1,1.3-2.5l-0.3-0.9
			c-0.3-0.8-1.4-1.4-3.4-1.8c-2-0.4-3.6-0.6-4.9-0.6c-6.2,8.8-9.8,13.8-10.8,15c-1,1.2-1.6,1.8-2,1.6c-0.3-0.2-0.5-0.4-0.5-0.7
			s0.2-0.7,0.6-1.2c3.7-4.6,6.9-9.4,9.6-14.6c-0.8-0.1-1.4-0.4-1.9-0.9c-0.4-0.4-0.4-1.2-0.1-2.3c0.3-1.1,1.4-2.5,3.2-4.3
			c1.8-1.8,3.3-3,4.6-3.6c1.3-0.6,2.1-1,2.5-1.1c0.3-0.1,0.7-0.2,1.1-0.2c0.8,0,0.6,1.2-0.8,3.7l-4,6.4c3.1,0.2,5.8,0.3,8,0.3
			l3.6-0.1c1.2,0,2,0.2,2.6,0.5c0.6,0.3,0.7,0.8,0.4,1.6c-0.5,1.3-1.7,3.1-3.6,5.3c-4.1,4.8-7.2,10-9.3,15.4
			c-0.5,1.3-0.7,2.4-0.7,3.4c0,2,0.7,3,2.2,3c0.5,0,1.4-0.4,2.7-1.1c1.3-0.8,3.6-2.6,6.8-5.4c3.2-2.9,5.7-5.7,7.7-8.4
			c0.3-0.3,0.6-0.4,1-0.3c0.4,0.2,0.6,0.3,0.6,0.5c0,0.2-0.1,0.4-0.2,0.6c-1,1.9-2.9,4.2-5.6,7.1c-2.7,2.9-5.3,5.2-7.9,7
			C593.6,530.4,590.9,531.4,588,531.4z"/>
		<path d="M655.5,506.1l0.5-2.1c0-1.4-0.5-2.1-1.6-2.1c-2.8,0-6.7,2.2-11.6,6.6c-4.9,4.4-8,8.9-9.3,13.3c-0.3,1.2-0.5,2.2-0.5,3.2
			c0,0.9,0.2,1.7,0.6,2.3c0.8,1.2,2.1,1.9,3.8,1.9c1.7,0,3.6-0.2,5.6-0.7c4.4-1.2,8.1-3,11-5.3c2.9-2.3,6-5.5,9.3-9.7
			c0.3-0.3,0.6-0.4,1-0.3s0.6,0.3,0.6,0.6c0,0.2-0.1,0.6-0.3,1.1c-3.3,4.5-6.8,8.1-10.4,10.9c-3.6,2.8-7.8,4.6-12.6,5.4
			c-1.4,0.2-2.7,0.3-3.8,0.3c-3.4,0-5.9-0.8-7.7-2.5c-1.8-1.7-2.6-3.5-2.6-5.5c0-2,0.5-4.2,1.4-6.5c1.7-3.9,5.4-8,11.1-12.1
			c5.7-4.1,10.1-6.2,13.4-6.2c0.8,0,1.6,0.1,2.4,0.3c1.9,0.7,2.9,1.8,2.9,3.3c0,1-0.4,2.2-1.1,3.5c-0.8,1.3-1.3,1.8-1.7,1.4
			C655.5,506.9,655.3,506.5,655.5,506.1z"/>
		<path d="M667.2,515.6c-0.8,2.3-1.3,3.9-1.3,4.7c-0.1,0.8-0.1,1.9-0.1,3.2c0,1.3,0.3,2.6,1,3.7c1.2,1.9,3.1,2,5.9,0.4
			c2.1-1.1,4.7-3.1,7.9-6c3.2-2.9,5.6-5.6,7.3-8c0.1-0.2,0.3-0.3,0.6-0.3c0.6,0,0.8,0.4,0.5,1.3c-1,1.9-2.9,4.2-5.7,7.1
			s-5.3,5.2-7.6,6.9c-2.3,1.7-4.6,2.5-6.8,2.5c-5.2,0-7.9-2.5-7.9-7.7c0-0.2,0-0.4,0-0.6c0.3-4.8,2.7-12.1,7.3-21.9
			c4.6-9.8,8.8-17.1,12.5-22.1l3.2-4c0.8-0.9,1.9-2,3.3-3.3c2.8-2.6,5.6-3.9,8.5-3.9c2.9,0,4.9,0.9,5.9,2.7c0.3,0.6,0.5,1.5,0.5,2.7
			c0,1.2-0.5,2.8-1.6,5C693.7,490.3,682.5,502.8,667.2,515.6z M698,476.1c0.8-1.5,1.2-2.7,1.2-3.5c0-1.4-0.6-2.2-1.8-2.2
			c-1,0-2.2,0.6-3.6,1.7c-5.5,4.3-10.9,11-16,20.3c-4.1,7.4-7.2,13.8-9.1,19.1c4.8-3.2,10.1-8.5,16-15.8
			C690.6,488.3,695,481.8,698,476.1z"/>
		<path d="M691.6,530c-1.1,0-2.3-0.3-3.6-1c-1.3-0.7-2.4-1.6-3.3-2.8c-0.9-1.2-1.3-2.5-1.3-3.9s0.3-2.7,0.9-3.9
			c1.4-2.9,3.6-5.7,6.7-8.4c3.1-2.7,6.3-5,9.6-7c3.3-1.9,5.9-3.1,7.9-3.6c1.9-0.5,3.8-0.7,5.6-0.7c1.8,0,3.4,0.5,4.7,1.4
			c1.3,0.9,2,1.9,2,2.9c0,0.3,0,0.6-0.1,0.6s-0.2,0-0.5-0.1c-0.8-1.3-2.5-2-5.1-2s-5.5,0.8-8.8,2.5c-3.3,1.7-6.4,3.8-9.3,6.4
			c-2.4,2.3-4.5,4.8-6.4,7.7c-1.8,2.9-2.7,4.9-2.7,6.3c0,2.6,0.7,3.8,2.2,3.8s3.7-1.2,6.6-3.5c4.9-4.1,8.2-7.2,10-9.1
			c6.3-6.8,9.8-10.2,10.2-10.2c0.8,0,1.8,0.2,3,0.7c1.2,0.5,1.6,1.1,1.1,1.8c-3.5,5-5.6,10-6.2,15c-0.1,0.6-0.1,1.4-0.1,2.4
			c0,1,0.3,1.8,0.8,2.4c1,1.1,2.4,1.2,4.2,0.2c1.8-1,4.3-2.9,7.5-5.8c3.2-2.9,5.8-5.7,7.7-8.5c0.3-0.3,0.6-0.4,0.9-0.3
			c0.3,0.2,0.5,0.3,0.5,0.5c0,1-1.6,3.3-4.9,6.8c-3.3,3.5-5.8,5.8-7.5,7.1c-3.2,2.4-6.2,3.6-9,3.6c-2.6,0-4.4-1.3-5.3-3.9
			c-0.2-0.8-0.3-1.8-0.3-2.8c0-3.1,0.7-6.4,2-9.8c-0.3,0.1-1.6,1.5-3.8,4.1c-2.3,2.6-4.9,5.1-7.9,7.5C696.7,528.7,694,530,691.6,530
			z"/>
		<path d="M734.7,529.8c-0.9,1-1.1,1.9-0.6,2.5c0.5,0.6,1.1,0.9,1.8,0.9c0.7,0,1.3-0.1,2-0.3c3-0.9,5.8-2.7,8.6-5.3
			c2.8-2.7,4.2-5.4,4.2-8.1c0-1.5-1.7-3.2-5.1-5c-1.6-0.8-2.5-1.3-2.7-1.4c-1.9-1.2-3-2.5-3.5-3.7c-1,1.7-2.5,4-4.7,7.1
			c-0.5,0.6-0.9,0.7-1.3,0.4c-0.4-0.3-0.4-0.7-0.1-1.3c2.8-3.9,4.7-7.1,5.6-9.7c0.5-3.8,3.2-7.2,8.3-10.2c5-3,9.6-4.6,13.8-4.6
			c2.6,0,4.5,0.5,5.5,1.4c1.1,0.9,1.6,1.8,1.6,2.7c0,0.9-0.3,1.9-0.8,3.1c-0.5,1.2-1.6,2.3-3.2,3.3c-0.4,0.3-0.8,0.2-1-0.2
			c-0.1-0.4,0.2-1,0.9-1.7c0.7-0.7,1.2-1.7,1.4-2.9s-0.3-2-1.7-2.3c-0.2,0-0.4,0-0.6,0c-2.7,0-6,1-10.1,3c-4,2-7.2,4.6-9.5,7.8
			c-0.9,1.2-1.3,2.4-1.3,3.6c0,1.2,0.8,2.3,2.5,3.3c0.7,0.4,1.9,1.1,3.5,2c1.7,0.9,2.8,1.6,3.5,2c0.7,0.4,1.5,1.1,2.5,2
			c1,0.9,1.5,1.7,1.5,2.5c0.3,2.1-0.6,4.3-2.9,6.8c-3.2,3.6-8.1,6.1-14.5,7.5c-1.4,0.3-2.9,0.5-4.4,0.5c-1.5,0-2.5-0.6-3-1.7
			c-0.2-0.3-0.3-0.7-0.3-1.3c0-0.6,0.6-1.5,1.7-2.8c1-1,2.7-2,5-3c0.2-0.1,0.4,0,0.5,0.1c0.1,0.1,0.2,0.3,0.1,0.5
			c-0.1,0.2-0.4,0.4-1.1,0.7C736.1,528.2,735.4,528.8,734.7,529.8z"/>
		<path d="M765.3,529.8c-0.9,1-1.1,1.9-0.6,2.5c0.5,0.6,1.1,0.9,1.8,0.9c0.7,0,1.3-0.1,2-0.3c3-0.9,5.8-2.7,8.6-5.3
			c2.8-2.7,4.2-5.4,4.2-8.1c0-1.5-1.7-3.2-5.1-5c-1.6-0.8-2.5-1.3-2.7-1.4c-1.9-1.2-3-2.5-3.5-3.7c-1,1.7-2.5,4-4.7,7.1
			c-0.5,0.6-0.9,0.7-1.3,0.4c-0.4-0.3-0.4-0.7-0.1-1.3c2.8-3.9,4.7-7.1,5.6-9.7c0.5-3.8,3.2-7.2,8.3-10.2c5-3,9.6-4.6,13.8-4.6
			c2.6,0,4.5,0.5,5.5,1.4c1.1,0.9,1.6,1.8,1.6,2.7c0,0.9-0.3,1.9-0.8,3.1c-0.5,1.2-1.6,2.3-3.2,3.3c-0.4,0.3-0.8,0.2-1-0.2
			c-0.1-0.4,0.2-1,0.9-1.7c0.7-0.7,1.2-1.7,1.4-2.9c0.2-1.2-0.3-2-1.7-2.3c-0.2,0-0.4,0-0.6,0c-2.7,0-6,1-10.1,3
			c-4,2-7.2,4.6-9.5,7.8c-0.9,1.2-1.3,2.4-1.3,3.6c0,1.2,0.8,2.3,2.5,3.3c0.7,0.4,1.9,1.1,3.5,2c1.7,0.9,2.8,1.6,3.5,2
			c0.7,0.4,1.5,1.1,2.5,2c1,0.9,1.5,1.7,1.5,2.5c0.3,2.1-0.6,4.3-2.9,6.8c-3.2,3.6-8.1,6.1-14.5,7.5c-1.4,0.3-2.9,0.5-4.4,0.5
			c-1.5,0-2.5-0.6-3-1.7c-0.2-0.3-0.3-0.7-0.3-1.3c0-0.6,0.6-1.5,1.7-2.8c1-1,2.7-2,5-3c0.2-0.1,0.4,0,0.5,0.1
			c0.1,0.1,0.2,0.3,0.1,0.5c-0.1,0.2-0.4,0.4-1.1,0.7C766.8,528.2,766,528.8,765.3,529.8z"/>
	</g>
</g>
</svg>
