<?xml version="1.0" encoding="utf-8"?>
<!-- Generator: Adobe Illustrator 28.0.0, SVG Export Plug-In . SVG Version: 6.00 Build 0)  -->
<svg version="1.1" xmlns="http://www.w3.org/2000/svg" xmlns:xlink="http://www.w3.org/1999/xlink" x="0px" y="0px"
	 viewBox="0 0 836.5 592.4" style="enable-background:new 0 0 836.5 592.4;" xml:space="preserve">
<style type="text/css">
	.st0{fill-rule:evenodd;clip-rule:evenodd;fill:#231F20;}
	.st1{fill:#821A1D;}
	.st2{font-family:'Arial-BoldItalicMT';}
	.st3{font-size:17.473px;}
	.st4{fill:none;stroke:#231F20;stroke-linecap:round;stroke-miterlimit:10;}
	.st5{fill:none;}
	.st6{fill:#C30D0D;}
	.st7{font-family:'Arial-BoldMT';}
	.st8{font-size:39.4764px;}
</style>
<g id="Layer_1">
	<path class="st0" d="M43.1,18.2C168-5.1,161.5-6.3,223.5,16.2C164.9-4.5,149.3,3,93.7,15.3c-4.7,1-7.5,2.4-1.5,2.4l56.8,0.4
		C113.9,20.2,79.9,20.9,43.1,18.2L43.1,18.2L43.1,18.2z M201.8,13.8l1.5,3.8c-0.4-5.5,8.6-3.5,14.3-1.6
		C213.4,13.1,200.4,10.4,201.8,13.8L201.8,13.8z M59,33.5c-11.1,0-20.8,6-26.1,14.9c6.3-6.7,15.7-11,26.1-11s19.8,4.3,26.1,11
		C79.8,39.5,70.1,33.5,59,33.5L59,33.5z M274.8,33.5c-11.1,0-20.8,6-26.1,14.9c6.3-6.7,15.7-11,26.1-11s19.8,4.3,26.1,11
		C295.6,39.5,285.9,33.5,274.8,33.5L274.8,33.5z M27.2,22.6C14,20.7,16.1,31.4,11.9,45.4C16.1,36,17.3,23.6,26.7,25
		c92,14.2,252.2-18.4,285.4,19.4c-12-18.7-48.8-22.8-94.4-22.5c-4.2,1.9-11.8,4.4-13.8,0.2C146.2,23.4,77.7,29.8,27.2,22.6
		L27.2,22.6z"/>
	<g>
		<text transform="matrix(0.9277 0 0 1 144.4714 132.4258)" class="st1 st2 st3">sh</text>
		<text transform="matrix(0.9277 0 0 1 161.4109 132.4258)" class="st1 st2 st3">o</text>
		<text transform="matrix(0.9277 0 0 1 170.531 132.4258)" class="st1 st2 st3">w </text>
		<text transform="matrix(0.9277 0 0 1 187.1912 132.4258)" class="st1 st2 st3">y</text>
		<text transform="matrix(0.9277 0 0 1 195.3816 132.4258)" class="st1 st2 st3">our </text>
		<text transform="matrix(0.9277 0 0 1 224.1609 132.4258)" class="st1 st2 st3">c</text>
		<text transform="matrix(0.9277 0 0 1 232.7908 132.4258)" class="st1 st2 st3">l</text>
		<text transform="matrix(0.9277 0 0 1 236.8113 132.4258)" class="st1 st2 st3">a</text>
		<text transform="matrix(0.9277 0 0 1 246.9011 132.4258)" class="st1 st2 st3">s</text>
		<text transform="matrix(0.9277 0 0 1 254.0212 132.4258)" class="st1 st2 st3">s</text>
	</g>
	<line class="st4" x1="243.1" y1="21.9" x2="226.2" y2="21.9"/>
	<rect x="36.1" y="69.4" class="st5" width="75" height="3.2"/>
	<path d="M-75.9,178.2"/>
	<text transform="matrix(1.2271 0 0 1 52.5066 79.6753)" class="st6 st7 st8">PROCLAN</text>
	<g>
		<path d="M98.3,109.4V86.1h7.4l4.4,16l4.4-16h7.4v23.4h-4.6V91l-4.9,18.4h-4.8L102.9,91v18.4H98.3z"/>
		<path d="M174.7,109V89.5h-9v-4h24.1v4h-9V109H174.7z"/>
		<g>
			<path d="M145.5,85c-11,0-20,5.7-20,12.8s9,12.8,20,12.8c11,0,20-5.7,20-12.8S156.6,85,145.5,85z M145.5,106.8
				c-7.8,0-14.2-4.1-14.2-9.1c0-5,6.4-9.1,14.2-9.1c7.8,0,14.2,4.1,14.2,9.1C159.7,102.8,153.4,106.8,145.5,106.8z"/>
			<path d="M145.5,89.9c-6.8,0-12.4,3.5-12.4,7.9s5.6,7.9,12.4,7.9c6.8,0,12.4-3.5,12.4-7.9S152.3,89.9,145.5,89.9z M156.3,97.3h-6
				c-0.1-0.5-0.4-0.9-0.9-1.3l4.2-2.7C155.2,94.3,156.1,95.7,156.3,97.3z M146.3,90.9c2.4,0.1,4.6,0.7,6.3,1.7l-4.2,2.7
				c-0.6-0.3-1.3-0.5-2.1-0.5V90.9L146.3,90.9z M144.7,90.9v3.8c-0.8,0.1-1.5,0.3-2.1,0.5l-4.2-2.7C140.2,91.6,142.4,91,144.7,90.9z
				 M137.4,93.2l4.2,2.7c-0.4,0.4-0.7,0.8-0.9,1.3h-6C134.9,95.7,135.9,94.3,137.4,93.2z M134.7,98.3h6c0.1,0.5,0.4,0.9,0.9,1.3
				l-4.2,2.7C135.9,101.2,134.9,99.8,134.7,98.3z M144.7,104.6c-2.4-0.1-4.6-0.7-6.3-1.7l4.3-2.7c0.6,0.3,1.3,0.5,2.1,0.5V104.6
				L144.7,104.6z M144.7,99.8L144.7,99.8c-0.3,0-0.6-0.1-0.9-0.2l0,0c-0.4-0.2-0.8-0.4-1.1-0.7l0,0c-0.2-0.2-0.3-0.4-0.4-0.6h0
				c-0.1-0.2-0.1-0.3-0.1-0.5s0-0.3,0.1-0.5h0c0.1-0.2,0.2-0.4,0.4-0.6l0,0c0.3-0.3,0.6-0.5,1.1-0.7l0,0c0.3-0.1,0.6-0.2,0.9-0.2v0
				c0.2,0,0.5-0.1,0.8-0.1c0.3,0,0.5,0,0.8,0.1v0c0.3,0.1,0.6,0.1,0.9,0.2l0,0c0.4,0.2,0.8,0.4,1.1,0.7l0,0c0.2,0.2,0.3,0.4,0.4,0.6
				h0c0.1,0.2,0.1,0.3,0.1,0.5s0,0.3-0.1,0.5h0c-0.1,0.2-0.2,0.4-0.4,0.6l0,0c-0.3,0.3-0.6,0.5-1.1,0.7l0,0
				c-0.3,0.1-0.6,0.2-0.9,0.2v0c-0.2,0-0.5,0.1-0.8,0.1C145.3,99.9,145,99.8,144.7,99.8z M146.3,104.6v-3.8c0.8-0.1,1.5-0.3,2.1-0.5
				l4.3,2.7C150.9,103.9,148.7,104.5,146.3,104.6z M153.7,102.3l-4.2-2.7c0.4-0.4,0.7-0.8,0.9-1.3h6
				C156.1,99.8,155.2,101.2,153.7,102.3z"/>
		</g>
		<g>
			<path d="M206.6,85.2c-11,0-20,5.7-20,12.8c0,7,9,12.8,20,12.8c11,0,20-5.7,20-12.8C226.6,91,217.6,85.2,206.6,85.2z M206.6,107.1
				c-7.8,0-14.2-4.1-14.2-9.1c0-5,6.4-9.1,14.2-9.1c7.8,0,14.2,4.1,14.2,9.1C220.8,103,214.5,107.1,206.6,107.1z"/>
			<path d="M206.6,90.1c-6.8,0-12.4,3.5-12.4,7.9c0,4.4,5.6,7.9,12.4,7.9c6.8,0,12.4-3.5,12.4-7.9C219,93.7,213.4,90.1,206.6,90.1z
				 M217.4,97.5h-6c-0.1-0.5-0.4-0.9-0.9-1.3l4.2-2.7C216.3,94.6,217.2,96,217.4,97.5z M207.4,91.1c2.4,0.1,4.6,0.7,6.3,1.7
				l-4.2,2.7c-0.6-0.3-1.3-0.5-2.1-0.5V91.1L207.4,91.1z M205.8,91.1v3.8c-0.8,0.1-1.5,0.3-2.1,0.5l-4.2-2.7
				C201.3,91.8,203.4,91.2,205.8,91.1z M198.4,93.5l4.2,2.7c-0.4,0.4-0.7,0.8-0.9,1.3h-6C196,96,197,94.6,198.4,93.5z M195.8,98.5h6
				c0.1,0.5,0.4,0.9,0.9,1.3l-4.2,2.7C196.9,101.4,196,100,195.8,98.5z M205.8,104.9c-2.4-0.1-4.6-0.7-6.3-1.7l4.3-2.7
				c0.6,0.3,1.3,0.5,2.1,0.5V104.9L205.8,104.9z M205.8,100L205.8,100c-0.3,0-0.6-0.1-0.9-0.2l0,0c-0.4-0.2-0.8-0.4-1.1-0.7l0,0
				c-0.2-0.2-0.3-0.4-0.4-0.6h0c-0.1-0.2-0.1-0.3-0.1-0.5s0-0.3,0.1-0.5h0c0.1-0.2,0.2-0.4,0.4-0.6l0,0c0.3-0.3,0.6-0.5,1.1-0.7l0,0
				c0.3-0.1,0.6-0.2,0.9-0.2v0c0.2,0,0.5-0.1,0.8-0.1c0.3,0,0.5,0,0.8,0.1v0c0.3,0.1,0.6,0.1,0.9,0.2l0,0c0.4,0.2,0.8,0.4,1.1,0.7
				l0,0c0.2,0.2,0.3,0.4,0.4,0.6h0c0.1,0.2,0.1,0.3,0.1,0.5s0,0.3-0.1,0.5h0c-0.1,0.2-0.2,0.4-0.4,0.6l0,0c-0.3,0.3-0.6,0.5-1.1,0.7
				l0,0c-0.3,0.1-0.6,0.2-0.9,0.2v0c-0.2,0-0.5,0.1-0.8,0.1C206.3,100.1,206.1,100.1,205.8,100z M207.4,104.9v-3.8
				c0.8-0.1,1.5-0.3,2.1-0.5l4.3,2.7C212,104.2,209.8,104.8,207.4,104.9z M214.8,102.5l-4.2-2.7c0.4-0.4,0.7-0.8,0.9-1.3h6
				C217.2,100,216.3,101.4,214.8,102.5z"/>
		</g>
		<path d="M229,108.5V85.1h12.9c3.2,0,5.6,0.2,7.1,0.6s2.6,1.2,3.5,2.2c0.9,1.1,1.3,2.3,1.3,3.7c0,1.8-0.7,3.2-2,4.3
			c-1.3,1.1-3.3,1.9-6,2.2c1.3,0.6,2.4,1.2,3.3,2c0.9,0.7,2,2,3.5,3.8l3.7,4.6H249l-4.4-5.1c-1.6-1.8-2.7-3-3.2-3.4s-1.2-0.8-1.8-1
			c-0.6-0.2-1.7-0.3-3.1-0.3h-1.2v9.8H229z M235.1,95h4.5c2.9,0,4.8-0.1,5.5-0.3s1.3-0.5,1.7-1c0.4-0.5,0.6-1.1,0.6-1.8
			c0-0.8-0.3-1.4-0.8-1.9c-0.5-0.5-1.3-0.8-2.3-0.9c-0.5-0.1-2-0.1-4.5-0.1h-4.8V95z"/>
		<path d="M258.5,102.2l6-0.4c0.4,1.5,1.1,2.6,2.2,3.3c1.1,0.7,2.6,1,4.4,1c2,0,3.5-0.3,4.5-0.9c1-0.6,1.5-1.3,1.5-2.2
			c0-0.5-0.2-1-0.6-1.4c-0.4-0.4-1.2-0.7-2.2-1c-0.7-0.2-2.4-0.5-4.9-1c-3.3-0.6-5.6-1.3-6.9-2.2c-1.9-1.2-2.8-2.8-2.8-4.5
			c0-1.1,0.4-2.2,1.3-3.2c0.9-1,2.1-1.8,3.8-2.3c1.7-0.5,3.6-0.8,6-0.8c3.8,0,6.7,0.6,8.6,1.9c1.9,1.2,2.9,2.9,3,5l-6.1,0.2
			c-0.3-1.2-0.8-2-1.7-2.5c-0.9-0.5-2.2-0.8-3.9-0.8c-1.8,0-3.2,0.3-4.2,0.8c-0.6,0.3-1,0.8-1,1.4c0,0.5,0.3,1,0.9,1.4
			c0.8,0.5,2.7,1,5.6,1.5c3,0.5,5.2,1.1,6.6,1.6c1.4,0.6,2.5,1.3,3.4,2.3c0.8,1,1.2,2.2,1.2,3.6c0,1.3-0.5,2.5-1.5,3.6
			c-1,1.1-2.3,2-4.1,2.5c-1.8,0.5-4,0.8-6.6,0.8c-3.8,0-6.8-0.7-8.8-2S258.9,104.8,258.5,102.2z"/>
	</g>
</g>
<g id="Layer_2">
</g>
<g id="Layer_3">
</g>
<g id="Layer_4">
</g>
<g id="Layer_5">
</g>
</svg>
