<?xml version="1.0" encoding="utf-8"?>
<!-- Generator: Adobe Illustrator 28.0.0, SVG Export Plug-In . SVG Version: 6.00 Build 0)  -->
<svg version="1.1" id="Layer_1" xmlns="http://www.w3.org/2000/svg" xmlns:xlink="http://www.w3.org/1999/xlink" x="0px" y="0px"
	 viewBox="0 0 612 792" style="enable-background:new 0 0 612 792;" xml:space="preserve">
<style type="text/css">
	.st0{fill:#F6F6F6;}
	.st1{fill:#020202;}
	.st2{fill:#F80304;}
</style>
<g>
	<g>
		<path class="st0" d="M-184,881c0-326.97,0-653.93,0-981c370.91,0,741.87,0,1113,0c0,326.93,0,653.97,0,981
			C558.1,881,187.07,881-184,881z M654.16,265.03c0.47-0.43,0.95-0.86,1.42-1.28c0.2-0.31,0.41-0.63,0.61-0.94
			c1.67-3.25,4.52-4.41,7.98-4.95c4.26-0.67,8.46-1.77,12.69-2.65c5.35-1.12,12.31-0.39,15.56-3.98c3.21-3.54,3.04-10.21,4.18-15.55
			c10.18-47.73,17.06-95.92,20.78-144.58c0.33-4.32-1.09-6.26-4.45-8.11c-33.98-18.71-69.22-34.6-105.66-47.86
			C532.74,8,455.89-8.21,376.71-12.7c-37.62-2.14-75.27-1.44-112.85,2.33C210.39-5.01,158.19,6.05,107.23,23
			C59.97,38.73,14.85,59.27-28.48,83.78c-2.95,1.67-3.67,3.25-3.02,6.65c3.65,19.1,6.81,38.29,10.43,57.4
			c13.35,70.57,30.55,140.15,54.19,208.04c3.63,10.42,7.63,20.72,11.48,31.13c7.73-1.63,14.88-3.14,22.03-4.63
			c1.93-0.4,3.78-0.9,5.83-0.01c4.25,1.83,8.72,1.33,13.24,1.07c10.14-0.6,19.13-5.7,29.01-7.03c6.1-0.82,12.35-2.71,18.77,0.61
			c-2.67,1.7-5.12,3.02-7.29,4.7c-2.66,2.05-5.46,4.38-3.47,8.31c1.88,3.71,5.27,3.48,8.71,2.75
			c57.56-12.19,115.11-24.37,172.67-36.55c19.29-4.08,38.59-8.17,57.89-12.25c0.05,0.22,0.1,0.45,0.16,0.67
			C238.42,376.87,114.72,409.1-9.22,441.4c-2.93-13.9-5.72-27.17-8.57-40.75c-7.12,1.53-13.68,2.93-20.28,4.35
			c0,19.07-0.01,37.57,0,56.06c0.03,61.17,0.07,122.34,0.11,183.51c-5.68,3.59-12.59,3.6-19.29,6.55c1.39-0.15,2.04-0.16,2.67-0.29
			c26.68-5.56,53.36-11.16,80.05-16.68c34.28-7.09,68.58-14.07,102.86-21.17c13.34-2.76,26.65-5.67,39.94-8.65
			c3.44-0.77,5.73,0.07,8.26,2.68c18.94,19.63,39.2,37.77,61.69,53.31c31.01,21.43,64.39,37.96,100.52,48.87
			c1.45,0.44,2.7,0.8,4.31,0.29c22.32-7.1,44.11-15.6,64.9-26.38c37.19-19.29,70.99-43.4,101.18-72.53
			c9.34-9.01,18.21-18.43,26.93-28.04c16.11-17.76,30.39-36.93,44.14-56.53c2.93-4.18,4.99-8.9,11.52-10.05
			c20.63-3.63,41.11-8.11,61.62-12.36c35.01-7.25,70-14.55,104.98-21.96c1.66-0.35,4.3,0.36,4.75-2.55
			c11.05-2.27,22.1-4.54,33.21-6.82c0-80.3,0-160.22,0-240.79c-48.2,12.58-95.99,25.05-144.43,37.69c1.13-1.91,1.78-3.01,2.44-4.12
			L654.16,265.03z M198.48,756.2c-3.72-7.52-7.06-14.13-10.28-20.81c-3.49-7.25-3.44-7.27-12.58-5.6
			c7.53,15.25,15,30.39,22.72,46.01c4.48-8.76,8.54-16.7,12.99-25.41c5.78,8.21,8.29,17.1,13.55,25.23
			c7.67-15.53,15.13-30.64,22.65-45.86c-9.26-1.52-9.27-1.53-12.86,6c-2.29,4.79-4.48,9.63-6.84,14.38
			c-0.83,1.68-1.14,3.87-3.82,4.7c-4.06-8.21-8.12-16.42-12.51-25.29C207.08,738.61,203.02,746.92,198.48,756.2z M68.81,718.77
			c3.94-0.25,4.61,1.82,4.57,5.24c-0.17,13.32-0.13,26.64,0.05,39.96c0.05,3.89-0.74,7.88,0.48,11.76c2.88,0.21,5.5,0.64,8.42-0.44
			c0-9.61,0.11-19.24-0.06-28.87c-0.06-3.45,1.12-5.48,4.28-7c9.96-4.8,21.05,2.11,21.43,13.72c0.24,7.44,0.05,14.89,0.05,22.58
			c3.29,0.23,6.01,0.62,8.82-0.34c0-8.52,0.53-16.86-0.12-25.11c-1.09-13.81-14.55-23.46-28.11-20.85c-1.87,0.36-3.74,1.4-6.24,0.18
			c0-6.27,0-12.7,0-19.2c-4.78,0-9.03,0-13.25,0C68.23,713.13,68.39,715.59,68.81,718.77z M630.03,769.59
			c-5.14-3.18-6.78-7.39-6.27-12.93c0.44-4.79-0.02-9.65,0.1-14.48c0.06-2.33-0.59-4.21-2.17-5.87c-8.13-8.51-22.39-9.43-31.98-2.5
			c-9.89,7.15-13.09,21.68-5.94,32.31c6.43,9.55,19.41,13.78,30.31,8.2c4.23-2.16,7.44-3.45,10.29,1.65
			C626.39,773.7,628.02,771.86,630.03,769.59z M311.35,793.27c7.23-5.62,11.62-13,11.65-19.64c0.05-13.5,0.05-26.99,0.05-40.49
			c0-1.28,0.38-2.7-0.93-3.81c-2.52-0.24-5.13-0.59-8.03,0.53c0,9.8,0.02,19.61-0.01,29.41c-0.01,4.47-3.54,8.26-8.01,8.74
			c-10.24,1.1-17.79-5.61-17.86-15.95c-0.05-7.47-0.01-14.95-0.01-22.52c-3.15-0.51-5.87-0.7-8.83,0.04
			c0,9.24-0.41,18.23,0.12,27.16c0.49,8.1,8.56,17.28,17.62,19.36c5.36,1.23,10.45,0.21,15.88-0.78c0.39,6.24-5.04,8.5-7.64,12.65
			C307.45,789.83,309.42,791.57,311.35,793.27z M331.13,752.96c0.04,13.72,10.51,23.91,24.51,23.84
			c13.26-0.06,24.68-11.1,23.85-24.22c-0.8-12.52-9.67-23.51-24.66-23.53C341.6,729.03,331.09,739.82,331.13,752.96z M147.28,776.8
			c13.44,0.11,24.3-10.4,24.41-23.64c0.11-13.01-10.97-24.1-24.15-24.17c-13.38-0.07-24.1,10.44-24.34,23.85
			C122.96,765.99,133.72,776.7,147.28,776.8z M386.21,729.53c0,7.89-0.09,15.51,0.02,23.13c0.26,18.23,18.07,29.51,34.43,21.49
			c4.27-2.09,7.37-3.01,10.2,1.5c2.26-1.79,4.15-3.34,5.68-5.96c-5.66-3.95-6.6-9.62-6.22-16.13c0.45-7.93,0.11-15.91,0.11-23.97
			c-3.22-0.64-5.95-0.61-9.2-0.16c0,10.15,0.04,20.09-0.03,30.02c-0.01,1.7,0.62,3.54-1.29,4.98c-3.79,2.86-7.72,4.41-12.54,3.07
			c-7.26-2.02-11.67-7.5-11.78-15.25c-0.12-7.6-0.03-15.2-0.03-22.7C392.28,728.88,389.65,728.99,386.21,729.53z M707.56,764.36
			c-4.79,4.15-10.04,4.8-14.64,2.13c-6.38-3.69-7.1-3.51-11.27,2.82c11.98,12.64,33.49,8.67,39.31-7.46
			c-9.19-6.81-18.43-13.66-27.9-20.69c6.93-4.93,13.86-4.07,19.78,1.78c2.54-1.5,5.27-2.74,7.24-5.06
			c-10.93-13.04-29.04-10.89-38.04,0.65c-2.39,3.06-2.3,4.76,0.96,7.11C691.29,751.66,699.32,758.05,707.56,764.36z M63.26,737.77
			c-10.8-11.86-28.48-11.53-37.8,0.4c-2.01,2.58-3.24,4.85,0.48,7.34c4.82,3.23,9.4,6.85,13.92,10.5c3.53,2.85,7.68,5.01,10.53,8.75
			c-6.27,4.85-9.74,4.51-19.76-1.9c-2.04,1.93-4.14,3.94-6.24,5.93c10.88,12.03,30.85,9.86,38.65-3.72
			c1.36-2.36,0.72-3.51-1.18-4.88c-5.52-3.99-11.12-7.9-16.37-12.22c-2.99-2.46-7.38-3.56-8.94-8.02
			c7.58-3.96,13.97-1.85,19.83,2.81C58.96,741.32,61.21,739.97,63.26,737.77z M634.01,743.13c6.69,5.13,13.48,10.25,20.17,15.51
			c2.34,1.84,6.43,3.45,4.84,7.05c-1.4,3.18-5.49,2.16-8.59,2.31c-1.61,0.08-2.96-0.61-4.16-1.36c-5.89-3.69-6.55-3.57-10.56,2.68
			c8.81,10.64,30.04,11.42,39.06-7.02c-8.44-7.96-18.88-13.48-27.62-21.57c5.64-3.9,10.71-3.51,15.77-0.88
			c5.83,3.03,6.47,2.94,11.06-2.39C661.85,724.19,639.74,727.21,634.01,743.13z M554.1,769.12c-3.21-1.6-3.78-7.66-9.24-3.79
			c-6.31,4.47-14.62,3.15-19.7-2.76c-4.74-5.51-4.49-14.02,0.57-19.58c5.95-6.53,12.64-6.8,21.89-0.82
			c1.23-1.04,2.45-2.17,3.76-3.17c2.8-2.14,1.67-4.22-0.51-5.53c-6.55-3.93-13.53-5.75-21.22-3.53
			c-9.28,2.68-16.58,11.44-17.25,21.04c-0.72,10.21,5.16,19.86,14.59,23.96C536.03,778.87,547.37,776.63,554.1,769.12z
			 M483.07,735.13c-6.63-6.52-17.32-7.92-26.33-3.83c-1.84,0.84-3.71,3.06-5.87,1.36c-5.17-4.08-6.96-0.24-9.49,3.68
			c6.63,3.57,6.73,9.49,6.38,15.64c-0.15,2.66-0.03,5.33-0.03,8c0,5.24,0,10.49,0,15.9c3.55-0.03,6.33,0.55,9.39-0.53
			c0-9.73,0.2-19.38-0.09-29.02c-0.13-4.1,1.75-6.17,5.12-7.53c5.67-2.28,10.71-0.52,15.66,2.91
			C479.58,739.5,481.22,737.45,483.07,735.13z M563.31,775.6c3.3,0.49,6.03,0.59,8.95-0.04c0-21.8,0-43.39,0-65.17
			c-4.61,0-8.86,0-13.39,0c-0.08,2.97-1.7,7.28,0.72,7.98c5.08,1.45,3.65,4.85,3.67,7.77C563.38,742.45,563.31,758.77,563.31,775.6z
			"/>
		<path class="st1" d="M-37.97,644.57c-0.04-61.17-0.08-122.34-0.11-183.51c-0.01-18.49,0-36.99,0-56.06
			c6.61-1.42,13.16-2.82,20.28-4.35c2.86,13.58,5.65,26.84,8.57,40.75c123.94-32.3,247.65-64.53,371.36-96.76
			c-0.05-0.22-0.1-0.45-0.16-0.67c-19.3,4.08-38.59,8.16-57.89,12.25c-57.56,12.18-115.11,24.37-172.67,36.55
			c-3.45,0.73-6.83,0.96-8.71-2.75c-1.99-3.93,0.81-6.26,3.47-8.31c2.17-1.67,4.62-3,7.29-4.7c-6.41-3.31-12.67-1.43-18.77-0.61
			c-9.89,1.33-18.88,6.44-29.01,7.03c-4.52,0.27-8.99,0.77-13.24-1.07c-2.05-0.88-3.9-0.39-5.83,0.01c-7.15,1.48-14.3,3-22.03,4.63
			c-3.85-10.41-7.85-20.71-11.48-31.13C9.48,287.98-7.73,218.41-21.07,147.84c-3.61-19.11-6.78-38.3-10.43-57.4
			c-0.65-3.4,0.07-4.98,3.02-6.65C14.85,59.27,59.97,38.73,107.23,23C158.19,6.05,210.39-5.01,263.86-10.38
			c37.59-3.77,75.23-4.46,112.85-2.33C455.89-8.21,532.74,8,607.27,35.12c36.44,13.26,71.68,29.16,105.66,47.86
			c3.36,1.85,4.78,3.79,4.45,8.11c-3.72,48.66-10.6,96.86-20.78,144.58c-1.14,5.33-0.97,12-4.18,15.55
			c-3.25,3.59-10.21,2.86-15.56,3.98c-4.23,0.88-8.42,1.98-12.69,2.65c-3.46,0.54-6.31,1.7-7.98,4.95
			c0.29-11.57-0.39-23.06-1.87-34.56c-0.78-5.99-2.57-11.77-3.17-17.72c-0.72-7.21-3.92-14.03-3.14-21.44
			c3.85,11.84,6.08,24.08,8.5,36.28c6.59-33.24,10.69-66.71,13.61-100.35c0.4-4.58-0.92-7.07-5.02-9.29
			c-21.18-11.49-42.88-21.86-65.16-31.04c-55.54-22.88-113.1-38.36-172.55-46.6c-41.16-5.71-82.55-7.58-124.12-5.38
			C268.45,34.55,234.03,39.2,200,46.57C146.36,58.19,95.27,77.08,46.4,102c-10.61,5.41-21,11.28-31.28,16.83
			c15.5,97.7,38.77,185.72,54.8,228.44c0-2.5,0.11-4.24-0.02-5.96c-1.35-18.29-0.81-36.27,3.82-54.31
			c3.13-12.2,7.11-23.01,17.67-30.61c8.91-6.42,17.58-13.18,26.42-19.71c0.85-0.63,1.78-2.11,3.25-0.84
			c-2.63,3.92-7.4,5.71-10.52,10.7c4.22-1.94,7.56-3.49,10.77-4.96c1.47,1.1-1.09,2.5,0.85,3.62c3.49-2.2,4.73-6.65,8.28-8.79
			c0.22,0.22,0.45,0.43,0.67,0.64c0.04,0.94-1.36,1.54-0.53,2.78c1.95,0.27,3.27-1.23,4.75-2.06c10.47-5.82,21.02-11.41,32.62-14.72
			c24.11-6.87,48.36-13.24,72.69-19.29c9.68-2.41,19.34-4.93,29.01-7.4c-1.49-0.62-2.82-0.56-4.1-0.3
			c-25.2,5.12-50.38,10.27-75.58,15.39c-22.13,4.5-44.38,8.62-63.53,21.8c-0.59,0.4-1.18,0.53-1.52-0.33
			c1.76-2.55,4.57-3.76,7.2-4.85c12.53-5.2,22.66-13.74,32.63-22.61c14.69-13.05,29.47-25.98,44.86-38.23
			c23-18.3,47.28-34.04,75.09-44.38c50.83-18.91,103.09-31.87,156.6-40.15c4.15-0.64,6.84-0.38,7.62,4.35
			c4.39-0.48,8.56-0.71,12.63-1.42c23.74-4.15,46.76-0.56,69.3,6.83c13.24,4.34,24.5,12.58,36.27,19.77
			c1.38,0.84,2.56,2.29,4.45,1.89c9.05-1.91,18.46-2.14,27.12-5.84c4.27-1.83,7.87-1.5,11.1,2.43c4.27,5.19,7.56,10.92,10.65,16.82
			c2.89,5.53,3.85,10.9-1.67,16.08c12.33,3.88,19.06,12.48,23.08,23.71c2.36,6.59,4.26,13.3,5.96,20.08
			c-3.18,0.98-2.87-2.39-4.36-3.51c-0.2,0.71,0.04,1.8-1.55,1.42c0.16-4.13-1.77-7.89-2.5-11.86c-2.41-13.26-9.18-22.66-22.05-27.48
			c-10.17-3.81-19.12-9.96-28.26-15.66c-19-11.86-36.21-26.61-57.62-34.58c-10.12-3.77-20.44-6.84-31.03-7.66
			c-16.16-1.25-32.35-1.59-48.33,3.3c-11.47,3.51-20.83,9.7-28.31,18.56c-9.78,11.59-17.2,24.86-24.61,38.02
			c-3.51,6.24-7.47,11.86-13.01,16.39c-1.52,1.24-2.77,2.77-4.97,2.62c-0.18-0.83-0.2-1.47,0.68-2.11
			c5.2-3.76,9.09-8.72,12.49-14.07c6.95-10.94,13.83-21.92,20.7-32.91c0.52-0.83,1.7-1.7,0.2-3.07
			c-9.65,10.39-19.4,20.6-29.46,30.51c-11.97,11.8-25.54,20.07-42.29,23.93c-32.17,7.41-64.54,14.01-96.42,22.64
			c-9.52,2.58-19.09,4.96-28.64,7.43c0.09,0.4,0.18,0.8,0.26,1.21c7.03-1.34,14.08-2.59,21.09-4.04
			c34.83-7.19,69.79-13.57,105.12-17.79c9.04-1.08,18.25-1.61,26.48-6.29c2.42-1.38,4.51-3.5,7.51-3.74
			c-2.36,4.94-7.46,6.35-11.74,8.41c-12.31,5.92-24.99,11.08-37.31,16.98c-5.28,2.53-11.07,4.56-15.62,9.63
			c6.81,0.91,12.23-1.99,17.9-3.24c6.17-1.36,12.18-4.06,19.08-0.4c-8.38,6.7-17.83,10.61-26.53,16.82
			c2.79,0.59,4.49-0.76,6.28-1.25c8.53-2.35,17.03-4.85,25.46-7.55c2.97-0.95,4.92,0.84,6.74,2.16c1.92,1.4,1.02,3.71,0.24,5.87
			c-2.5,6.95-8.55,11.96-10.23,19.31c-1.75,0.21-3.4,0.4-5.05,0.59c-0.54-0.89-0.04-1.47,0.53-2.15
			c4.39-5.25,7.86-11.08,10.74-17.27c0.69-1.5,1.78-3.1,0.52-4.65c-1.37-1.69-3.38-1.13-5.1-0.67c-1.92,0.51-3.78,1.28-4.76,3.28
			c-3.14,6.45-6.12,13.15-6.85,20.17c-0.59,5.7-4.38,5.54-7.65,7.03c5.05-6.41,7.37-13.85,9.11-21.51c1.03-4.54,0.14-5.36-4.72-4.9
			c2.09,5.03-1.31,8.85-2.73,14.32c-3.98-7.21-8.78-10.31-16.4-8.76c-14.31,2.91-23.13,11.37-27.38,25.06
			c-0.94,3-0.37,5.12,2.85,6.32c3.15,1.17,6.4,1.71,9.68,2.2c0.67,0.32,1.34,0.64,2.12,1.01c-5.64,2.34-11.28,2.68-17.11,1.8
			c-3.98-0.6-8.09-0.4-11.79,1.1c-7.51,3.05-15.46,4.51-23.12,6.98c-1.83,0.59-4.33,1.35-5.63-0.41c-1.52-2.08-0.34-4.47,0.99-6.5
			c2.71-4.13,5.58-8.17,8.04-12.44c0.71-1.23,2.93-2.69,1.05-4.61c-1.55-0.34-1.7,0.96-2.28,1.65c-8.31,9.99-16.35,20.15-28.22,26.5
			c-10.28,5.5-21.12,9.65-31.77,14.22c-7.15,3.06-14.94,4.65-22.06,7.77c-5.6,2.45-11.47,3.59-17.23,4.13
			c-15.28,1.42-30.5-0.85-45.62-2.91c-3.41-0.47-6.7-2.53-7.55-7.3c-0.66-3.66-1.45-7.55-2.85-11.46c-1.88,1.72-1.11,3.43-1.15,4.97
			c-0.13,4.85,2.42,9.23,2.33,14.18c-0.05,2.89-0.89,4.9-3.42,4.37c-9.5-2-18.27,4.66-28.26,1.7c-0.66,10.29-0.5,20.31-0.16,30.6
			c5.47,0.1,10.33-0.27,15.29-1.09c6.66-1.11,13.24-3.23,20.13-2.69c2,0.16,4.16,0.09,4.01,3.13c-1.64,0.84-3.18,1.94-4.89,2.41
			c-1.88,0.51-3.06,1.09-2.39,3.27c-0.75,0.18-1.5,0.35-2.81,0.66c2.98,2.84,4.53,5.55,2.72,9.4c-1.01,2.13,1.33,1.54,2.44,1.78
			c0.26,1.93-2.5,0.78-2.51,2.28c0.84,4.7,5.31,5.31,8.3,7.93c-13,1.72-25.41-0.41-37.7-4c-0.68,1.12-0.22,2.11,0.1,3.28
			c1.46,5.18,2.34,10.37-0.25,15.56c-0.63,1.26-0.51,2.92-0.65,4.4c-0.25,2.71,0.91,4.11,3.75,3.8c6.7-0.74,13.44-1.26,19.93-3.22
			c6.75-2.04,13.5-4.25,20.54-4.85c10.19-0.86,20.13-3.49,29.99-5.61c12.05-2.59,24.32-3.52,36.32-6.3
			c12.41-2.87,25.24-3.94,37.69-6.67c14.98-3.28,29.95-5.72,45.33-5.37c5.96,0.14,11.85-0.21,17.83-1.41
			c5.6-1.13,11.21-2.78,16.83-3.31c12.75-1.2,25.04-4.66,37.63-6.61c13.52-2.09,26.76-5.97,40.44-7.21c3.29-0.3,4.46-1.78,4.28-4.75
			c-0.29-4.82-0.04-9.79-1.19-14.4c-0.84-3.39,0.05-7.97-2.87-10c-3.03-2.1-3.06-3.96-2.38-6.85c1.07-4.48-1.15-6.59-5.37-5.06
			c-6.14,2.22-12.11,4.97-18.34,6.85c-3.17,0.96-6.26,3.57-10.69,1.85c1.18-0.55,1.74-0.83,2.31-1.06
			c7.69-3.15,15.38-6.3,23.08-9.42c2.55-1.03,5.07-2.22,4.8-5.5c-0.76-9.32,1.56-18.33,2.98-27.36c1.66-10.57,3.7-21.06,13.91-28.09
			c7.19-4.95,14.09-7.21,22.43-4.91c9.29,2.57,14.64,9.47,19.49,17.21c4.93,7.89,7.01,16.93,10.74,25.29
			c1.39,3.13,2.89,7.09,2.84,10.66c-0.06,5.22,0.67,10.32,1.35,15.38c0.85,6.27-0.49,13.02,3.23,18.98
			c8.98-0.16,17.22-3.45,25.79-4.96c11.22-1.97,22.44-4.35,33.36-7.57c6.46-1.9,13.08-1.62,19.52-3.4
			c11.79-3.27,23.76-5.93,35.76-8.33c11.82-2.36,23.76-4.1,35.65-6.09c2.18-0.37,3.13-1.69,3.17-3.81c0.05-2.33-0.33-4.58-0.85-6.88
			c-1.51-6.61-3.85-13.08-3.39-20.06c0.19-2.88,1.08-5.5,1.81-8.23c0.7-2.63-0.88-4.48-3.16-5.37c-1.34-0.52-2.6,0.3-2.84,1.97
			c-0.92,6.3-2.63,12.47-5.1,18.25c-2.32,5.44-4.99,10.95-12.24,12.27c-12.29,2.23-24.37,5.68-36.7,7.56
			c-12.25,1.87-24.37,4.47-36.45,6.95c-14.34,2.94-28.93,4.97-43,9.31c-3.85,1.19-7.22,0.47-7.75-4.78
			c-0.19-1.84-1.4-3.82-1.77-5.55c-0.75-3.58-0.23-7.44-0.23-11.18c0.33,0.01,0.66,0.02,1,0.04c1.38,6.45,2.76,12.9,4.24,19.8
			c4.85-3.16,9.45-1.56,13.5-2.91c9.9-3.3,20.18-4.98,30.32-7.21c8.47-1.86,17.17-2.68,25.63-4.58c13-2.91,25.82-6.58,39.15-7.97
			c3.38-0.35,6.82-1.36,10.11-2.28c2.6-0.73,5.71-1.32,7.45-4.38c3.43-6.04,5.2-12.84,9.09-18.67c2.16-3.24,0.83-5.22-3.04-5.03
			c-1.89,0.09-3.41,0.1-3.77-2.2c1.74-1.19,3.42,0.99,4.91-0.37c-0.29-0.9-1.06-1.99-0.79-2.66c2.41-5.9,3.11-12.22,4.8-18.27
			c0.71-2.52,0.21-5.81,2.95-7.65l-0.08-0.08c0.48,7.92,0.65,15.78-3.5,23.01c-0.5,0.87-0.54,2.1,0.48,2.68
			c1.07,0.61,2.26,0.57,3-0.74c0.64-1.13,1.57-2.03,1.81-3.47c1.5-9.01,4.07-17.61,8.94-25.51c2.18-3.53,4.6-5.98,8.82-6.03
			c5.59-0.07,12.07,2.91,13.76,6.22c2.99,5.84,7.51,10.58,10.27,16.53c3.49,7.54,6.59,15.13,8.41,23.2
			c1.57,6.96,2.7,14.02,2.16,21.21c-0.14,1.87,0.94,2.95,2.07,4.09c-0.65,1.11-1.31,2.21-2.44,4.12
			c48.44-12.64,96.23-25.11,144.43-37.69c0,80.57,0,160.49,0,240.79c-11.1,2.28-22.15,4.55-33.2,6.82
			c-3.27-15.04-6.54-30.08-9.84-45.24c-1.7,0.08-3.08-0.11-4.32,0.23c-10.56,2.87-21.08,5.88-31.64,8.75
			c-13.78,3.75-27.54,7.57-41.38,11.07c-8.93,2.26-17.93,4.39-26.76,6.88c-10.53,2.97-21.08,6.05-31.64,8.92
			c-12.84,3.49-25.94,6.23-38.68,9.89c-22.27,6.4-44.75,11.95-67.03,18.28c-12.8,3.63-25.86,6.39-38.59,10.23
			c-12.9,3.89-26,6.89-39.01,10.29c-8.45,2.21-17.02,4.21-25.27,6.82c-10.57,3.35-21.41,5.49-31.99,8.71
			c-9.09,2.77-18.39,4.89-27.57,7.35c-8.26,2.22-16.49,4.58-24.76,6.77c-10.78,2.85-21.81,4.97-32.34,8.55
			c-13.14,4.48-26.69,7.35-40.03,10.94c-16.48,4.44-32.94,8.99-49.45,13.36c-11.51,3.05-22.97,6.29-34.55,9.06
			c-11.22,2.68-22.23,6.09-33.34,9.14c-9.17,2.52-18.27,5.49-27.48,7.56c-11.22,2.52-22.18,5.81-33.22,8.85
			c-12.29,3.38-24.56,7.04-36.94,9.81c-17.91,4.01-35.25,9.94-53.09,14.01C-23.25,641.01-30.22,644.45-37.97,644.57z M622.01,272.04
			c3.43,4.79,8,7.88,13.93,6.61c5.62-1.2,8.03-5.95,9.36-11.21c3.75-14.85,0.85-29-4.64-42.82c-3.22-8.12-7.54-15.64-14.86-20.76
			c-6.88-4.82-16.61-1.58-18.3,6.43c-4.62,21.91-0.74,42.18,13.03,60.22C621.02,271.01,621.51,271.53,622.01,272.04z M259.09,139.86
			c-4.45,2.21-9.38,3.13-13.81,5.59c-9.63,5.34-18.33,11.99-27.1,18.54c-12.35,9.23-24.47,18.76-35.28,29.82
			c-0.27,0.27-0.82,0.71-0.78,0.79c0.51,0.8,0.94,0.21,1.37-0.15c15.05-8.48,29.91-17.32,45.19-25.37
			c34.27-18.05,70.14-32.51,106.32-46.22c5.25-1.99,10.44-4.13,15.65-6.2c-0.11-0.32-0.22-0.64-0.33-0.95
			c-7.44,1.42-14.88,2.84-22.32,4.26c0.49-1.97,2.13-1.71,3.59-1.93c7.82-1.17,15.49-3.21,23.19-4.89c9.8-2.14,19.73-3.4,29.57-4.97
			c13.98-2.23,27.89-4.82,41.84-7.23c4.11-0.71,6.91-3.67,9.72-6.86c-62.18,7.79-122.58,22.45-181.42,45
			C256.2,140.11,257.67,139.8,259.09,139.86z M661.79,377.52c12.1-3.07,23.46-6.17,34.94-8.75c3.95-0.89,4.85-3.02,4.89-6.44
			c0.11-10.32,0.26-20.64,0.49-30.97c0.03-1.13-0.78-2.61,0.68-3.46c7.29,10.89,16.4,20.21,24.51,30.32
			c0.88,1.09,1.77,2.04,3.32,1.65c11.5-2.94,23-5.91,34.65-8.9c0.75-30.24,1.5-60.03,2.25-90.32c-13.64,3.52-26.44,6.83-40.07,10.35
			c0,11.95,0,23.79,0,36.85c-7.12-10.22-13.36-19.19-19.62-28.13c-1.11-1.59-2.02-3.34-4.66-2.63c-12.93,3.46-25.9,6.79-39.07,10.22
			C663.32,317.26,662.57,346.97,661.79,377.52z M158.95,510.49c0-8.73,0-17.47,0-27.27c2.85,3.69,4.97,6.54,7.21,9.31
			c3.55,4.39,6.38,10.55,11,12.57c4.89,2.14,11.03-1.95,16.62-3.28c10.35-2.46,20.61-5.31,31.41-8.13
			c-9.32-10.28-18.11-19.98-26.73-29.49c0.27-0.66,0.29-0.87,0.39-0.91c1.04-0.5,2.11-0.97,3.15-1.47
			c13.13-6.19,20.49-16.33,21.71-30.96c0.94-11.28-4.24-19.87-13.15-20.77c-3.63-0.37-7.31-0.35-10.92,0.58
			c-8.34,2.16-16.71,4.21-25.05,6.35c-18.43,4.73-36.86,9.5-55.36,14.27c-0.78,30.13-1.55,59.94-2.33,90.27
			c13.36-3.39,25.89-6.56,38.41-9.76C156.42,511.51,157.48,511.02,158.95,510.49z M341.95,416.36c0-1.66,0.06-3.33-0.01-4.99
			c-0.76-19.38-11.18-29.76-30.55-29.8c-14.12-0.03-27.55,3.72-40.55,9.04c-26.85,10.98-39.94,30.69-39.21,59.67
			c0.6,23.77,12.31,33.72,35.04,32.26c12.49-0.8,24.5-4.23,36.09-8.95C328.63,463.05,341.98,443.52,341.95,416.36z M612.38,391.23
			c14.29-3.7,28.11-7.27,42.15-10.91c-8.1-28.34-15.97-55.84-23.89-83.55c-20.7,5.32-40.91,10.56-61.17,15.65
			c-2.34,0.59-2.99,1.83-3.6,3.94c-7.42,25.48-15.08,50.89-22.42,76.4c-1.6,5.57-3.88,11.04-4.55,17.33
			c12.6-3.22,24.59-6.43,36.68-9.27c3.67-0.86,5.68-2.37,6.53-6.2c0.57-2.56,0.23-6.37,3.37-7.32c7.85-2.36,15.87-4.14,23.95-6.18
			C610.46,384.66,611.34,387.65,612.38,391.23z M2.43,462.04c-0.77,30.21-1.53,59.94-2.3,90.31c14.08-3.61,27.8-7.14,41.95-10.77
			c0-5.38-0.06-10.69,0.02-16c0.04-2.67,0.83-4.38,4.15-4.98c6.35-1.16,12.55-3.11,18.81-4.74c23.98-6.24,38.57-21.59,41.36-44.74
			c2.09-17.37-4.6-32.6-28.09-28.15c-15.79,2.99-31.17,7.7-46.75,11.59C21.81,456.99,12.07,459.56,2.43,462.04z M444.76,347.85
			c-12.68,1.07-24.99,2.69-37.1,5.71c-8.56,2.13-16.84,5.01-24.63,9.14c-22.99,12.2-32.91,31.55-32.07,57.31
			c0.7,21.72,13.57,33.17,35.12,31.19c19.56-1.79,37.29-8.84,54.8-16.95c1.28-0.59,2.26-0.97,2.25-2.7
			c-0.07-9.68-0.04-19.36-0.04-29.01c-5.34,2.25-10.88,4.88-16.62,6.93c-7.62,2.72-15.22,5.83-23.53,5.68
			c-6.94-0.12-10.29-4.51-8.67-11.27c1.28-5.36,4.71-9.06,9.43-11.65c6.2-3.39,12.93-5.21,19.84-6.34
			c6.97-1.14,13.99-2.03,21.23-3.07C444.76,371.06,444.76,359.77,444.76,347.85z M231.65,559.57c0.81,0,1.69,0.22,2.4-0.03
			c7.01-2.48,14.36-3.75,21.46-6.02c4-1.28,4.75-2.75,4.65-6.35c-0.21-7.36-0.06-14.72-0.06-22.09c3.46,5.46,5.87,11.05,8.18,16.69
			c3.33,8.15,3.3,8.16,11.61,5.9c1.93-0.53,3.83-1.34,5.79-1.49c3.12-0.24,4.53-1.66,5.49-4.65c2.88-8.98,6.17-17.83,9.29-26.73
			c1.81,9.01-0.22,17.93,1.46,27.19c8.09-2.03,15.73-4.24,23.51-5.79c4.1-0.82,5.52-2.63,5.48-6.69
			c-0.14-15.5-0.02-30.99-0.07-46.49c0-1.56,0.52-3.34-1.23-4.91c-11.25,2.89-22.58,6.08-34.05,8.61c-4.65,1.03-5.96,3.93-7.07,7.73
			c-2.3,7.92-4.76,15.78-7.49,24.76c-3-7.75-5.92-14.23-7.99-20.98c-1.44-4.68-3.91-4.79-7.81-3.71
			c-9.29,2.57-18.57,5.34-28.02,7.11c-5.15,0.96-6.41,3.14-6.33,7.9c0.23,14,0.05,28,0.1,42
			C230.95,554.17,230.5,556.86,231.65,559.57z M499.28,331.22c-12.84,3.28-25.67,6.63-38.54,9.77c-2.46,0.6-2.58,1.93-2.62,3.93
			c-0.3,15.97-0.68,31.95-1.06,47.92c-0.3,12.95-1.23,25.88-0.81,39.2c25.39-6.54,50.5-13,76.08-19.59c0-10.84,0-21.39,0-32.1
			c-11.08,2.82-22.21,5.66-33.05,8.42C499.28,369.41,499.28,350.5,499.28,331.22z M598.12,463.06c10.57-2.61,20.45-5.03,30.32-7.5
			c2.15-0.54,2.52-2.05,2.59-4.17c0.12-4.2-1.43-8.41-0.23-13.27c4.43,3.89,8.4,7.32,12.3,10.84c1.6,1.44,3.06,1.98,5.37,1.33
			c6.55-1.84,13.37-2.82,19.76-5.05c4.35-1.52,9.67-0.36,13.42-4.35c-6.49-6.13-14.22-10.41-19.78-16.91c1-1.6,2.16-1.79,3.23-2.25
			c11.32-4.95,15.86-11.98,15.02-23.06c-0.34-4.51-3.7-8.36-8.09-8.71c-4.47-0.36-8.93-0.36-13.36,0.96
			c-6.04,1.81-12.18,3.33-18.3,4.87c-13.66,3.44-27.34,6.81-41.69,10.37C597.56,425.04,598.38,443.73,598.12,463.06z M503.91,459.48
			c0.14,11.54,3.46,17.61,10.85,20.15c5.44,1.87,11.01,2.56,16.72,1.68c11.85-1.84,23.49-4.51,34.4-9.62
			c11.91-5.58,21.24-13.7,23.67-27.36c2.83-15.91-3.55-28.91-21.81-28.05c-18.07,0.85-35.39,5.33-50.29,16.17
			C508.38,439.04,503.28,448.16,503.91,459.48z M401.34,459.97c-14.49,0.51-28.16,4.47-40.96,10.97
			c-13.77,7-22.02,17.91-21.45,34.21c0.36,10.42,6.52,18.59,16.78,19.19c19.23,1.12,36.69-3.86,52.96-13.72
			c12.32-7.46,17.42-18.6,16.4-32.75c-0.78-10.88-7.78-17.54-18.74-17.89C404.67,459.93,403,459.97,401.34,459.97z M757.38,374.77
			c0-8.7,0-8.69-8.52-7.31c-15.44,2.5-30.75,5.48-44.97,12.41c-7.51,3.66-14.16,8.4-16.82,16.68c-2.73,8.48-1.44,18.15,12.35,17.88
			c6.75-0.13,13.06-2.3,19.68-2.8c2.53-0.19,6.27-3.49,7.19,0.49c0.81,3.51-3.89,3.74-6.56,4.47c-8.68,2.38-17.59,3.51-26.53,4.3
			c-3.14,0.28-4.65,1.84-4.62,4.68c0.05,4-1.6,8.44,1.98,11.72c0.69,0.63,2.56,0.08,3.86-0.09c2.96-0.39,5.92-0.84,8.87-1.34
			c13.76-2.34,27.33-5.39,39.85-11.85c7.11-3.67,13.19-8.67,15.87-16.44c3.46-10.05,0.24-18.95-12.3-18.09
			c-7.05,0.48-13.74,2.29-20.54,3.8c-2.03,0.45-4.84,1.56-5.72-0.94c-1-2.82,2.4-2.94,4.04-4.04c0.39-0.26,0.96-0.24,1.43-0.4
			c7.9-2.65,16.07-4.03,24.31-5.09C757.38,381.89,757.37,381.81,757.38,374.77z M448.04,502.97c10.3-2.54,19.96-4.92,29.61-7.32
			c2.49-0.62,2.67-2.5,2.65-4.66c-0.07-8.33,0.14-16.67-0.11-25c-0.12-3.96,0.52-6.1,5.2-6.35c3.7-0.2,7.32-1.86,10.97-2.91
			c1.49-0.43,2.8-1.08,3-2.91c0.74-6.6,0.48-13.14-0.44-19.69c-1.52,0-2.56-0.21-3.49,0.03c-21.27,5.44-42.52,10.93-63.77,16.43
			c-1.11,0.29-2.53,0.55-2.53,2c-0.04,7.01-0.74,14.07,0.51,21.28c6.36-1.49,11.85-3.92,18.41-3.8
			C448.04,481.13,448.04,491.73,448.04,502.97z M441.14,291.45c-0.13-13.46-3.48-27.26-10-40.24c-4.37-8.69-9.64-16.74-18.62-21.55
			c-6.17-3.3-12.06-2.33-16.47,3.12c-3.41,4.22-5.28,9.2-6.04,14.53c-2.6,18.4,1.19,35.77,9.23,52.23
			c4.03,8.24,9.12,15.92,17.31,20.85c8,4.81,15.15,2.86,19.72-5.25C440.26,308.1,441.1,300.43,441.14,291.45z M291.71,215.45
			c-2.94-1.07-4.18,0.29-5.53,1.11c-5.24,3.22-10.55,6.34-15.62,9.81c-7.47,5.11-15.3,9.13-24.1,11.62
			c-34.74,9.81-70.24,16.01-105.6,22.93c-11.39,2.23-22.83,4.22-34.25,6.32c13.66,0.93,26.9-1.67,40.16-3.9
			c37.83-6.35,75.02-15.77,112.53-23.63c2.36-0.49,5.04-0.93,7.16-3C274.16,229.21,281.44,221.16,291.71,215.45z M293.01,238.54
			c-3.68-4.17-8.33-5-12.28-2.24c-1.96,1.37-3.32,3.17-3.93,5.58c-1.13,4.43,1.17,7.77,3.81,10.93c-2.5,1.54-4.43,0.86-6.01-0.38
			c-3.76-2.96-4.02-7.05-1.98-12.24c-7.52,5.37-8.43,9.39-4.04,13.43c-7.66,0.81-7.92,1.01-8.08,6.64
			c12.17-1.02,23.46-7.43,36.64-5.01c-1.7-2.3-3.6-1.95-4.97-2.69c-0.4-2.76-0.76-5.31-4.47-5.62c-2.1-0.18-2.9-2.08-2.75-4.1
			c0.15-2.03,1.3-3.46,3.3-3.88C289.76,238.65,291.34,238.68,293.01,238.54z M87.58,292.78c-4.4-0.85-5.59,7.07-10.94,2.94
			c1.66,3.9,4.52,4.59,6.72,1.83c2.64-3.3,5.26-3.77,9.02-2.87c2.34,0.56,4.98,0.8,7.47-0.19c-0.8-2.32-3.11-0.7-4.04-2.76
			c0.99-2.51,3.52-5.06,1.96-8.61c-1.27-2.89-0.57-6.44-2.3-8.99c-2.44-0.09-1.76,2.09-2.92,2.69c-2.75-2.58-5.42-1.8-6.27,2.26
			C85.37,283.47,85.6,287.95,87.58,292.78z M77.94,290.28c4.47,2.46,6.34,2.34,6.81-0.85c0.92-6.26-0.26-12.44-1.56-18.59
			c-3.78,7.68-8.57,14.97-7.06,25.23C77.56,293.46,76.51,291.54,77.94,290.28z M100.6,254.04c-4.53,1.84-8.57,4.52-11.99,7.94
			c-1.79,1.79-1.28,3.62,1.63,4.11c2.55,0.43,5.08,0.99,7.93,1.56c-1.29-1.84-3.49-2.16-4.01-4.38
			C95.55,259.82,99.44,258.09,100.6,254.04z M439.56,86.66c-7.75-1.15-14.84,1.93-22.28,2.76c3.18,0.22,6.75-0.99,9.35,0.1
			C431.97,91.78,435.56,88.95,439.56,86.66z M84.48,333.96c-1.89,4.6-0.17,8.03,3.38,10.84C86.14,341.37,85.39,337.66,84.48,333.96z
			 M259.12,250.97c-2.22,3.04-4.48,6.05-6.65,9.13c-0.64,0.92-1.39,2.08-0.51,3.16c0.95,1.18,2.24,0.75,2.75,0.53
			C254.28,258.46,258.97,255.56,259.12,250.97z M129.68,240.76c0.12-0.13,0.23-0.24,0.33-0.35c-0.22-0.11-0.43-0.25-0.67-0.3
			c-0.08-0.02-0.21,0.19-0.32,0.3C129.24,240.53,129.45,240.64,129.68,240.76z"/>
		<path class="st2" d="M654.26,265.05c-1.13-1.14-2.21-2.22-2.07-4.09c0.54-7.19-0.59-14.25-2.16-21.21
			c-1.82-8.07-4.92-15.66-8.41-23.2c-2.76-5.96-7.28-10.69-10.27-16.53c-1.69-3.3-8.17-6.28-13.76-6.22
			c-4.22,0.05-6.64,2.49-8.82,6.03c-4.87,7.9-7.44,16.5-8.94,25.51c-0.24,1.44-1.17,2.34-1.81,3.47c-0.74,1.31-1.93,1.35-3,0.74
			c-1.02-0.58-0.98-1.81-0.48-2.68c4.15-7.23,3.98-15.09,3.5-23.01c2.42,0.1,2.01-1.69,2.01-3.11c0-8.64-0.01-17.29-0.09-25.93
			c-0.01-0.97,0.52-2.47-1.85-2.68c0.28,10.65,0.63,21.23,0.01,31.8c-2.73,1.83-2.24,5.13-2.95,7.65c-1.7,6.05-2.4,12.37-4.8,18.27
			c-0.27,0.67,0.5,1.76,0.79,2.66c-1.48,1.36-3.16-0.82-4.91,0.37c0.36,2.3,1.89,2.29,3.77,2.2c3.87-0.18,5.2,1.8,3.04,5.03
			c-3.89,5.83-5.67,12.63-9.09,18.67c-1.74,3.06-4.85,3.65-7.45,4.38c-3.29,0.92-6.72,1.93-10.11,2.28
			c-13.33,1.38-26.15,5.06-39.15,7.97c-8.46,1.89-17.16,2.71-25.63,4.58c-10.14,2.23-20.43,3.91-30.32,7.21
			c-4.05,1.35-8.65-0.25-13.5,2.91c-1.48-6.91-2.86-13.35-4.24-19.8c-0.33-0.01-0.66-0.02-1-0.04c0,3.74-0.53,7.6,0.23,11.18
			c0.36,1.73,1.58,3.71,1.77,5.55c0.54,5.25,3.9,5.97,7.75,4.78c14.07-4.34,28.66-6.37,43-9.31c12.08-2.48,24.2-5.08,36.45-6.95
			c12.33-1.88,24.41-5.34,36.7-7.56c7.24-1.31,9.91-6.82,12.24-12.27c2.46-5.77,4.18-11.95,5.1-18.25c0.24-1.67,1.51-2.49,2.84-1.97
			c2.28,0.89,3.86,2.74,3.16,5.37c-0.73,2.72-1.62,5.34-1.81,8.23c-0.45,6.98,1.89,13.45,3.39,20.06c0.53,2.3,0.9,4.54,0.85,6.88
			c-0.04,2.11-0.99,3.44-3.17,3.81c-11.89,1.99-23.83,3.73-35.65,6.09c-12,2.4-23.98,5.06-35.76,8.33
			c-6.44,1.79-13.06,1.5-19.52,3.4c-10.92,3.22-22.13,5.6-33.36,7.57c-8.57,1.5-16.82,4.79-25.79,4.96
			c-3.72-5.96-2.38-12.7-3.23-18.98c-0.68-5.05-1.42-10.16-1.35-15.38c0.04-3.57-1.45-7.53-2.84-10.66
			c-3.72-8.37-5.8-17.41-10.74-25.29c-4.85-7.74-10.2-14.65-19.49-17.21c-8.34-2.3-15.24-0.04-22.43,4.91
			c-10.21,7.03-12.25,17.52-13.91,28.09c-1.42,9.03-3.74,18.05-2.98,27.36c0.27,3.28-2.25,4.46-4.8,5.5
			c-7.7,3.12-15.39,6.27-23.08,9.42c-0.57,0.23-1.13,0.52-2.31,1.06c4.44,1.72,7.53-0.89,10.69-1.85c6.23-1.88,12.2-4.63,18.34-6.85
			c4.23-1.53,6.44,0.58,5.37,5.06c-0.69,2.89-0.65,4.75,2.38,6.85c2.91,2.03,2.03,6.61,2.87,10c1.15,4.62,0.9,9.58,1.19,14.4
			c0.18,2.97-0.99,4.45-4.28,4.75c-13.68,1.24-26.92,5.12-40.44,7.21c-12.59,1.95-24.89,5.41-37.63,6.61
			c-5.62,0.53-11.23,2.18-16.83,3.31c-5.98,1.2-11.87,1.55-17.83,1.41c-15.38-0.35-30.35,2.09-45.33,5.37
			c-12.45,2.73-25.28,3.79-37.69,6.67c-12,2.78-24.27,3.71-36.32,6.3c-9.85,2.12-19.79,4.75-29.99,5.61
			c-7.04,0.59-13.79,2.81-20.54,4.85c-6.5,1.96-13.23,2.49-19.93,3.22c-2.84,0.31-4-1.09-3.75-3.8c0.14-1.48,0.02-3.14,0.65-4.4
			c2.59-5.2,1.71-10.38,0.25-15.56c-0.33-1.16-0.78-2.16-0.1-3.28c12.29,3.6,24.7,5.73,37.7,4c-2.99-2.62-7.46-3.23-8.3-7.93
			c0-1.5,2.77-0.35,2.51-2.28c1.89-4.48,1.2-8.44-2.34-11.85c-0.67-2.17,0.51-2.76,2.39-3.27c1.71-0.47,3.24-1.57,4.89-2.41
			c0.15-3.04-2-2.98-4.01-3.13c-6.89-0.54-13.47,1.58-20.13,2.69c-4.96,0.83-9.82,1.19-15.29,1.09c-0.34-10.29-0.5-20.3,0.16-30.6
			c9.98,2.95,18.76-3.7,28.26-1.7c2.53,0.53,3.38-1.47,3.42-4.37c0.08-4.95-2.46-9.33-2.33-14.18c0.04-1.54-0.73-3.25,1.15-4.97
			c1.4,3.91,2.19,7.8,2.85,11.46c0.86,4.77,4.14,6.84,7.55,7.3c15.12,2.06,30.34,4.33,45.62,2.91c5.76-0.53,11.63-1.68,17.23-4.13
			c7.12-3.12,14.91-4.7,22.06-7.77c10.66-4.56,21.5-8.71,31.77-14.22c11.87-6.36,19.9-16.51,28.22-26.5
			c0.57-0.69,0.73-1.99,2.28-1.65c1.88,1.93-0.34,3.38-1.05,4.61c-2.46,4.27-5.34,8.31-8.04,12.44c-1.33,2.03-2.51,4.42-0.99,6.5
			c1.29,1.76,3.79,1,5.63,0.41c7.66-2.47,15.61-3.93,23.12-6.98c3.7-1.5,7.81-1.71,11.79-1.1c5.83,0.88,11.47,0.53,17.11-1.8
			c-0.78-0.37-1.45-0.69-2.12-1.01c2.65-0.22,5.22-0.79,7.8-1.49c9.82-2.67,18.18-8.75,27.9-11.75c2.21-0.68,5.46-2.08,6.47-5.22
			c1.65-0.19,3.3-0.39,5.05-0.59c1.68-7.34,7.73-12.36,10.23-19.31c0.78-2.16,1.68-4.48-0.24-5.87c-1.81-1.32-3.77-3.11-6.74-2.16
			c-8.43,2.69-16.93,5.2-25.46,7.55c-1.79,0.49-3.49,1.84-6.28,1.25c8.7-6.2,18.14-10.12,26.53-16.82
			c-6.9-3.66-12.91-0.96-19.08,0.4c-5.68,1.25-11.09,4.15-17.9,3.24c4.55-5.07,10.34-7.1,15.62-9.63c12.32-5.9,25-11.06,37.31-16.98
			c4.29-2.06,9.38-3.47,11.74-8.41c0.75-0.57,1.51-1.14,2.26-1.71c2.2,0.15,3.45-1.38,4.97-2.62c5.54-4.53,9.5-10.15,13.01-16.39
			c7.41-13.17,14.84-26.44,24.61-38.02c7.48-8.86,16.84-15.05,28.31-18.56c15.98-4.89,32.17-4.55,48.33-3.3
			c10.59,0.82,20.91,3.89,31.03,7.66c21.42,7.98,38.62,22.72,57.62,34.58c9.13,5.7,18.09,11.85,28.26,15.66
			c12.87,4.82,19.64,14.22,22.05,27.48c0.72,3.97,2.66,7.73,2.5,11.86c1.59,0.38,1.36-0.71,1.55-1.42c1.49,1.12,1.18,4.49,4.36,3.5
			c0.07,0.57,0.14,1.14,0.21,1.71c-0.79,7.4,2.41,14.23,3.14,21.44c0.6,5.95,2.39,11.73,3.17,17.72
			c1.49,11.49,2.17,22.98,1.87,34.56c-0.21,0.32-0.41,0.63-0.62,0.95c-1.15-0.32-1.88-0.18-1.42,1.28L654.26,265.05z M257.58,318.99
			c1.84,1.25,3.27,1.99,4.86-0.75c1.39-2.39,2.85-4.83,1.57-7.23c-1.44-2.7-4.53-1.65-7.05-1.52c-1.55-0.91-2.93,0.14-4.12,0.7
			c-2.11,0.99-3.86,2.64-3.28,5.37c0.52,2.4,2.33,3.43,4.64,3.59C255.33,319.22,256.46,319.05,257.58,318.99z M538.04,219.98
			c0.38-3.99,1.12-8.01-1.46-11.7c0.5,3.87-2.88,8.16,1.56,11.61c-0.75,8.72,3.29,16.82,3.73,25.2
			c-14.67,4.04-29.05,7.21-43.03,11.8c0.11,0.45,0.22,0.91,0.33,1.36c14.75-3.68,29.51-7.36,44.27-11.04
			c1.35,6.71,0.97,6.87-3.97,8.79c-7.82,3.03-16.27,3.16-24.18,5.72c-3.25,1.05-6.56,3.57-10.24,0.86
			c-0.15-0.11-0.96,0.72-1.49,1.07c-2.28,1.49-4.82,1.93-7.49,2.39c-3.52,0.6-6.91,2-10.35,3.06c2.53,0.88,5.22,1.44,7.04,0.43
			c4.34-2.42,9.25-2.07,13.77-3.11c9.35-2.16,18.79-4.06,28.16-6.24c10.19-2.37,20.5-4.21,30.77-6.23c1.3-0.26,2.81-0.02,2.62-2.07
			c5.9,0.93,11.7-0.63,17.81-1.51c0.18-0.79,0.86-2.36-0.61-3.69c-4.3,1.28-8.29,3.19-12.81,3.23c-1.59,0.01-3.92-0.79-4.32,2.05
			c-4.42,0.06-8.76-0.6-13.13,1.51c-3.24,1.56-6.77,0.32-9-2.88c-1.92-2.76-0.78-4.7,2.84-6.29c-4.61,0.23-4.96-2.43-5.73-5.35
			c-0.66-2.48-0.38-4.97-0.95-7.34C541.18,227.62,541.63,223.06,538.04,219.98z M584.1,145.71c-1.97-3.37-4.32-5.72-6.19-8.41
			c-3.7-5.34-6.95-11.07-11.67-15.65c-10.27-9.97-22.23-16.66-35.92-21.31c-20.49-6.96-41.03-8.9-62.01-4.11
			c-12.37,2.82-23.56,8.25-31.93,18.5c-3.86,4.72-5.99,10.39-9.31,15.24c-5.21,7.61-9.51,15.7-14.19,23.58
			c-5.31,8.93-11.28,16.79-20.64,22.26c-4.73,2.76-9.82,5.57-14.77,9.35c2.49,1.61,4.52,1.39,6.33,0.93
			c9.69-2.47,19.84-2.3,29.41-5.52c4.67-1.57,9.81-1.76,14.48-3.09c7.21-2.05,7.04-2.66,11.17,3.34c2.73,3.96,7.7,6.17,11.69,4.64
			c4.17-1.61,5.92-5.01,5.52-9.5c-0.12-1.32,0.01-2.67-0.1-3.99c-0.18-2.32,1.05-3.53,3.15-3.64c3.85-0.19,7.48-1.65,11.2-2.03
			c21.47-2.23,42.24-8.4,63.71-10.75c12.37-1.36,24.6-4.22,36.93-6.18C575.23,148.68,579.93,148.72,584.1,145.71z M233.79,303.31
			c2.25,1.72,3.93,1.02,5.55,1.07c8.38,0.25,16.46-2.28,24.78-2.56c1.8-0.06,3.74-0.51,5.16,1.1c3.17,3.59,6.3,7.22,9.46,10.81
			c1.38,1.57,1.71,3.05-0.64,3.78c-8.91,2.78-17.52,6.22-25.47,11.18c-1.64,1.02-3.14,0.09-3.78-1.28
			c-1.71-3.66-4.82-6.21-7.04-9.44c-5.19-7.55-10.98-13.65-21.33-9.05c-0.14,0.06-0.33,0-0.5,0.03c-8.93,1.44-17.96,2.46-26.78,4.43
			c-14.77,3.3-29.79,5.24-44.51,8.65c-7.13,1.65-14.57,1.2-21.51,3.77c-2.13,0.79-4.21,1.46-4.06,4.25
			c0.34,6.3,0.18,12.63,1.76,18.85c1.05,4.16,3.2,5.96,7.52,5.11c9.25-1.82,18.48-3.72,27.78-5.23c4.03-0.66,8.05-0.91,12.28,0.49
			c3.99,1.33,8.56,1.55,12.22-1.73c0.82-0.74,1.73-1.05,2.73-0.92c9.91,1.25,19.25-2.47,28.92-3.42c7.17-0.7,14.13-3.26,21.26-4.61
			c6.4-1.21,12.02-4.32,17.97-6.63c9.75-3.8,19.89-6.33,29.85-9.45c6.86-2.15,13.38-5.21,20.4-7.06
			c6.93-1.82,14.59-3.54,16.08-12.82c0.75-4.64,2.36-9.14,3.33-13.76c1.17-5.53-0.93-7.93-6.31-6.69
			c-15.29,3.51-30.49,7.42-45.76,11.02c-10.39,2.45-20.82,4.76-31.27,6.93C239.11,300.69,236.75,301.83,233.79,303.31z
			 M585.39,234.64c-14.35,0.95-14.54,1.01-17.18,5.85C573.97,238.16,579.71,238.73,585.39,234.64z"/>
		<path class="st2" d="M-37.97,644.57c7.75-0.12,14.72-3.56,22.1-5.24c17.84-4.07,35.18-10,53.09-14.01
			c12.37-2.77,24.65-6.43,36.94-9.81c11.05-3.03,22-6.33,33.22-8.85c9.22-2.07,18.32-5.04,27.48-7.56
			c11.11-3.06,22.11-6.47,33.34-9.14c11.58-2.76,23.04-6.01,34.55-9.06c16.51-4.37,32.96-8.93,49.45-13.36
			c13.34-3.59,26.89-6.46,40.03-10.94c10.53-3.59,21.55-5.7,32.34-8.55c8.27-2.19,16.5-4.55,24.76-6.77
			c9.19-2.47,18.48-4.58,27.57-7.35c10.57-3.22,21.41-5.36,31.99-8.71c8.25-2.61,16.82-4.62,25.27-6.82
			c13.01-3.4,26.11-6.4,39.01-10.29c12.73-3.84,25.79-6.59,38.59-10.23c22.28-6.33,44.76-11.88,67.03-18.28
			c12.74-3.66,25.85-6.4,38.68-9.89c10.56-2.87,21.1-5.95,31.64-8.92c8.83-2.49,17.83-4.62,26.76-6.88
			c13.84-3.5,27.6-7.32,41.38-11.07c10.56-2.87,21.08-5.88,31.64-8.75c1.24-0.34,2.63-0.16,4.32-0.23
			c3.3,15.17,6.57,30.2,9.84,45.24c-0.45,2.91-3.1,2.2-4.75,2.55c-34.97,7.4-69.97,14.7-104.98,21.96
			c-20.52,4.25-40.99,8.73-61.62,12.36c-6.53,1.15-8.59,5.87-11.52,10.05c-13.75,19.6-28.03,38.77-44.14,56.53
			c-8.71,9.61-17.59,19.03-26.93,28.04c-30.19,29.12-63.99,53.24-101.18,72.53c-20.79,10.78-42.58,19.28-64.9,26.38
			c-1.6,0.51-2.85,0.14-4.31-0.29c-36.13-10.91-69.51-27.44-100.52-48.87c-22.49-15.54-42.75-33.68-61.69-53.31
			c-2.53-2.62-4.82-3.46-8.26-2.68c-13.29,2.98-26.6,5.89-39.94,8.65c-34.28,7.1-68.58,14.09-102.86,21.17
			c-26.69,5.52-53.37,11.12-80.05,16.68c-0.63,0.13-1.28,0.14-2.67,0.29C-50.55,648.18-43.65,648.16-37.97,644.57z M219.61,593.73
			c0.13,2.29,1.31,2.82,2.13,3.57c9.41,8.64,19.72,16.17,29.96,23.74c11.65,8.61,24.6,15.17,37.33,21.99
			c12.01,6.44,24.49,11.97,37.47,16.24c7.41,2.44,14.62,6.51,22.8,2.62c2.96-1.41,6.03-2.6,9.12-3.7
			c29.09-10.38,56.12-24.63,81.78-41.85c18.99-12.75,35.55-28.23,52.3-43.55c11.13-10.18,20.73-21.84,30.49-33.29
			c2.43-2.86,5.62-5.46,6.64-10.31C425.93,550.78,322.81,572.24,219.61,593.73z"/>
		<path class="st2" d="M198.48,756.2c4.53-9.28,8.6-17.59,13.02-26.65c4.39,8.87,8.45,17.08,12.51,25.29
			c2.69-0.83,2.99-3.02,3.82-4.7c2.36-4.76,4.55-9.59,6.84-14.38c3.59-7.53,3.6-7.52,12.86-6c-7.52,15.23-14.98,30.33-22.65,45.86
			c-5.26-8.13-7.78-17.02-13.55-25.23c-4.46,8.71-8.51,16.65-12.99,25.41c-7.71-15.62-15.19-30.76-22.72-46.01
			c9.14-1.68,9.09-1.65,12.58,5.6C191.42,742.06,194.76,748.68,198.48,756.2z"/>
		<path class="st2" d="M68.81,718.77c-0.42-3.18-0.58-5.64,0.3-8.36c4.22,0,8.47,0,13.25,0c0,6.5,0,12.93,0,19.2
			c2.5,1.22,4.37,0.18,6.24-0.18c13.56-2.61,27.02,7.04,28.11,20.85c0.65,8.25,0.12,16.59,0.12,25.11
			c-2.81,0.96-5.53,0.56-8.82,0.34c0-7.69,0.2-15.14-0.05-22.58c-0.38-11.61-11.46-18.52-21.43-13.72c-3.16,1.52-4.34,3.55-4.28,7
			c0.17,9.62,0.06,19.25,0.06,28.87c-2.92,1.08-5.53,0.65-8.42,0.44c-1.21-3.88-0.42-7.87-0.48-11.76
			c-0.18-13.32-0.22-26.64-0.05-39.96C73.42,720.59,72.74,718.52,68.81,718.77z"/>
		<path class="st2" d="M630.03,769.59c-2.01,2.27-3.64,4.11-5.65,6.39c-2.85-5.09-6.06-3.81-10.29-1.65
			c-10.9,5.58-23.89,1.35-30.31-8.2c-7.15-10.63-3.95-25.16,5.94-32.31c9.59-6.94,23.85-6.01,31.98,2.5
			c1.59,1.66,2.23,3.54,2.17,5.87c-0.12,4.83,0.34,9.69-0.1,14.48C623.26,762.2,624.89,766.41,630.03,769.59z M614.57,753.04
			c0.01,0,0.01,0,0.02,0c0-2-0.24-4.03,0.05-5.98c0.68-4.49-1.62-6.74-5.44-8.23c-5.88-2.29-12.54-0.6-16.66,4.39
			c-4.37,5.29-4.66,12.9-0.71,18.54c3.37,4.81,11.03,7.69,16.32,5.83c3.9-1.37,7.27-3.38,6.48-8.56
			C614.32,757.07,614.57,755.03,614.57,753.04z"/>
		<path class="st2" d="M311.35,793.27c-1.93-1.7-3.9-3.43-6.01-5.29c2.6-4.16,8.03-6.41,7.64-12.65c-5.42,0.99-10.52,2-15.88,0.78
			c-9.06-2.07-17.14-11.26-17.62-19.36c-0.54-8.93-0.12-17.92-0.12-27.16c2.96-0.74,5.69-0.55,8.83-0.04
			c0,7.57-0.04,15.04,0.01,22.52c0.07,10.34,7.62,17.05,17.86,15.95c4.47-0.48,7.99-4.28,8.01-8.74c0.03-9.8,0.01-19.61,0.01-29.41
			c2.9-1.12,5.51-0.78,8.03-0.53c1.32,1.11,0.93,2.53,0.93,3.81c0.01,13.5,0.01,26.99-0.05,40.49
			C322.98,780.26,318.59,787.65,311.35,793.27z"/>
		<path class="st2" d="M331.13,752.96c-0.04-13.14,10.47-23.93,23.69-23.91c15,0.02,23.87,11.01,24.66,23.53
			c0.83,13.12-10.59,24.16-23.85,24.22C341.64,776.87,331.17,766.68,331.13,752.96z M355.03,737.86c-8.1,0.08-14.81,6.9-14.83,15.07
			c-0.02,8.54,6.59,15.1,15.19,15.08c8.35-0.02,14.95-6.92,14.79-15.49C370.02,744.33,363.26,737.79,355.03,737.86z"/>
		<path class="st2" d="M147.28,776.8c-13.56-0.11-24.32-10.81-24.08-23.96c0.24-13.41,10.97-23.91,24.34-23.85
			c13.18,0.07,24.26,11.16,24.15,24.17C171.57,766.4,160.72,776.91,147.28,776.8z M148.11,768.02c8.13-0.12,14.4-6.89,14.22-15.35
			c-0.19-8.63-6.84-15.03-15.38-14.8c-8.07,0.22-14.64,7.1-14.56,15.25C132.46,761.94,139.02,768.16,148.11,768.02z"/>
		<path class="st2" d="M386.21,729.53c3.44-0.54,6.07-0.64,9.35,0.03c0,7.5-0.09,15.1,0.03,22.7c0.12,7.75,4.52,13.23,11.78,15.25
			c4.81,1.34,8.75-0.21,12.54-3.07c1.91-1.44,1.28-3.28,1.29-4.98c0.07-9.94,0.03-19.88,0.03-30.02c3.24-0.45,5.97-0.48,9.2,0.16
			c0,8.06,0.35,16.03-0.11,23.97c-0.37,6.51,0.56,12.18,6.22,16.13c-1.54,2.62-3.42,4.17-5.68,5.96c-2.83-4.51-5.93-3.59-10.2-1.5
			c-16.36,8.02-34.17-3.26-34.43-21.49C386.12,745.04,386.21,737.42,386.21,729.53z"/>
		<path class="st2" d="M707.56,764.36c-8.23-6.31-16.26-12.7-24.57-18.71c-3.26-2.35-3.35-4.05-0.96-7.11
			c9-11.54,27.11-13.69,38.04-0.65c-1.97,2.32-4.69,3.56-7.24,5.06c-5.92-5.85-12.86-6.71-19.78-1.79
			c9.47,7.02,18.72,13.88,27.9,20.69c-5.82,16.13-27.33,20.1-39.31,7.46c4.18-6.33,4.9-6.51,11.27-2.82
			C697.51,769.16,702.77,768.51,707.56,764.36z"/>
		<path class="st2" d="M63.26,737.77c-2.05,2.2-4.31,3.55-6.87,4.98c-5.85-4.65-12.25-6.77-19.83-2.81
			c1.56,4.47,5.94,5.56,8.94,8.02c5.25,4.32,10.85,8.23,16.37,12.22c1.9,1.37,2.54,2.52,1.18,4.88
			c-7.8,13.58-27.77,15.75-38.65,3.72c2.1-1.99,4.21-3.99,6.24-5.93c10.02,6.41,13.48,6.75,19.76,1.9c-2.85-3.74-7-5.9-10.53-8.75
			c-4.52-3.65-9.1-7.27-13.92-10.5c-3.72-2.5-2.49-4.77-0.48-7.34C34.78,726.24,52.46,725.91,63.26,737.77z"/>
		<path class="st2" d="M634.01,743.13c5.73-15.92,27.84-18.94,39.97-5.68c-4.59,5.33-5.23,5.42-11.06,2.39
			c-5.06-2.63-10.13-3.02-15.77,0.88c8.73,8.1,19.18,13.61,27.62,21.58c-9.02,18.44-30.25,17.67-39.05,7.02
			c4.01-6.25,4.67-6.37,10.56-2.68c1.2,0.75,2.55,1.44,4.16,1.36c3.1-0.15,7.19,0.87,8.59-2.31c1.58-3.6-2.5-5.21-4.84-7.05
			C647.49,753.39,640.7,748.26,634.01,743.13z"/>
		<path class="st2" d="M554.1,769.12c-6.73,7.51-18.07,9.75-27.09,5.83c-9.43-4.1-15.31-13.75-14.59-23.96
			c0.67-9.6,7.97-18.36,17.25-21.04c7.69-2.22,14.66-0.4,21.22,3.53c2.18,1.31,3.31,3.38,0.51,5.53c-1.31,1-2.53,2.13-3.76,3.17
			c-9.25-5.99-15.94-5.71-21.89,0.82c-5.07,5.56-5.32,14.07-0.57,19.58c5.08,5.9,13.39,7.23,19.7,2.76
			C550.32,761.46,550.89,767.53,554.1,769.12z"/>
		<path class="st2" d="M483.07,735.13c-1.85,2.31-3.5,4.36-5.27,6.58c-4.95-3.43-9.98-5.19-15.66-2.91
			c-3.37,1.36-5.24,3.42-5.12,7.53c0.29,9.64,0.09,19.29,0.09,29.02c-3.06,1.08-5.84,0.5-9.39,0.53c0-5.41,0-10.65,0-15.9
			c0-2.67-0.13-5.34,0.03-8c0.35-6.15,0.24-12.07-6.38-15.64c2.53-3.92,4.33-7.76,9.49-3.68c2.16,1.7,4.03-0.52,5.87-1.36
			C465.75,727.21,476.45,728.61,483.07,735.13z"/>
		<path class="st2" d="M563.31,775.6c0-16.83,0.06-33.15-0.06-49.46c-0.02-2.92,1.41-6.32-3.67-7.77c-2.42-0.69-0.8-5-0.72-7.98
			c4.53,0,8.78,0,13.39,0c0,21.78,0,43.37,0,65.17C569.35,776.18,566.61,776.09,563.31,775.6z"/>
		<path class="st1" d="M654.16,265.03c-0.46-1.46,0.27-1.6,1.42-1.28C655.11,264.18,654.64,264.6,654.16,265.03z"/>
		<path class="st0" d="M648.02,189.09c-0.07-0.57-0.14-1.14-0.21-1.71c-1.7-6.77-3.6-13.48-5.96-20.07
			c-4.02-11.22-10.74-19.82-23.08-23.71c5.53-5.19,4.56-10.55,1.67-16.08c-3.09-5.9-6.38-11.64-10.65-16.82
			c-3.23-3.92-6.83-4.25-11.1-2.43c-8.66,3.71-18.07,3.93-27.12,5.84c-1.89,0.4-3.07-1.05-4.45-1.89
			c-11.77-7.19-23.03-15.43-36.27-19.77c-22.54-7.38-45.55-10.97-69.3-6.83c-4.08,0.71-8.24,0.94-12.63,1.42
			c-0.78-4.73-3.46-4.99-7.62-4.35c-53.52,8.28-105.77,21.24-156.6,40.15c-27.81,10.34-52.09,26.08-75.09,44.38
			c-15.39,12.25-30.17,25.18-44.86,38.23c-9.98,8.87-20.11,17.4-32.63,22.61c-2.63,1.09-5.44,2.3-7.2,4.85c0,0,0.13-0.07,0.13-0.07
			c-0.71,0.05-1.75-0.23-1.09,1.13l0.11-0.09c-1.78-0.42-3.12-0.19-3.1,2.08l0.1-0.14c-1.47-1.27-2.4,0.21-3.25,0.84
			c-8.84,6.53-17.51,13.29-26.42,19.71C80.85,263.99,76.87,274.8,73.74,287c-4.63,18.03-5.17,36.02-3.82,54.31
			c0.13,1.72,0.02,3.46,0.02,5.96c-16.04-42.72-39.3-130.74-54.8-228.44c10.28-5.55,20.66-11.42,31.28-16.83
			c48.87-24.92,99.96-43.8,153.6-55.43c34.03-7.37,68.45-12.02,103.27-13.86c41.58-2.2,82.96-0.33,124.12,5.38
			c59.45,8.24,117.02,23.73,172.55,46.6c22.28,9.18,43.98,19.54,65.16,31.04c4.09,2.22,5.42,4.72,5.02,9.29
			c-2.92,33.64-7.02,67.11-13.61,100.35C654.1,213.17,651.87,200.93,648.02,189.09z"/>
		<path class="st0" d="M661.79,377.52c0.78-30.55,1.53-60.27,2.3-90.22c13.17-3.43,26.14-6.76,39.07-10.22
			c2.64-0.71,3.55,1.04,4.66,2.63c6.26,8.95,12.49,17.91,19.62,28.13c0-13.06,0-24.9,0-36.85c13.63-3.52,26.43-6.82,40.07-10.35
			c-0.76,30.29-1.5,60.08-2.25,90.32c-11.65,3-23.15,5.96-34.65,8.9c-1.54,0.39-2.44-0.55-3.32-1.65
			c-8.12-10.11-17.22-19.42-24.51-30.32c-1.46,0.85-0.66,2.33-0.68,3.46c-0.23,10.32-0.38,20.64-0.49,30.97
			c-0.04,3.43-0.94,5.55-4.89,6.44C685.25,371.36,673.89,374.45,661.79,377.52z"/>
		<path class="st0" d="M158.95,510.49c-1.47,0.53-2.52,1.02-3.64,1.31c-12.52,3.2-25.05,6.37-38.41,9.76
			c0.78-30.33,1.56-60.14,2.33-90.27c18.5-4.77,36.93-9.54,55.36-14.27c8.34-2.14,16.71-4.19,25.05-6.35
			c3.62-0.94,7.29-0.95,10.92-0.58c8.91,0.9,14.1,9.49,13.15,20.77c-1.23,14.63-8.59,24.77-21.71,30.96
			c-1.05,0.49-2.11,0.96-3.15,1.47c-0.1,0.05-0.12,0.25-0.39,0.91c8.62,9.51,17.41,19.21,26.73,29.49
			c-10.8,2.82-21.06,5.67-31.41,8.13c-5.59,1.33-11.73,5.42-16.62,3.28c-4.62-2.01-7.45-8.18-11-12.57
			c-2.24-2.76-4.36-5.62-7.21-9.31C158.95,493.02,158.95,501.76,158.95,510.49z M160.08,463.3c5.94-1.3,11.41-2.4,16.41-5.15
			c4.59-2.53,6.36-6.46,6-11.54c-0.2-2.81-1.68-4.27-4.45-4.21c-6.28,0.15-12.21,1.76-17.95,3.93
			C160.08,452.05,160.08,457.34,160.08,463.3z"/>
		<path class="st0" d="M341.95,416.36c0.03,27.16-13.32,46.69-39.19,57.23c-11.59,4.72-23.6,8.15-36.09,8.95
			c-22.73,1.45-34.45-8.5-35.04-32.26c-0.73-28.98,12.36-48.69,39.21-59.67c13-5.32,26.42-9.07,40.55-9.04
			c19.38,0.04,29.79,10.42,30.55,29.8C342.01,413.03,341.95,414.69,341.95,416.36z M273.99,437.86c0,0.83-0.02,1.66,0,2.49
			c0.12,4.67,0.94,9.44,5.68,11.26c4.8,1.84,9.43,0.11,13.28-3.42c2.26-2.08,3.91-4.56,4.88-7.41c1.85-5.44,2.18-11.05,1.29-16.71
			c-1.1-6.95-5.34-9.64-12.12-7.71C278.17,418.87,273.91,425.9,273.99,437.86z"/>
		<path class="st0" d="M612.38,391.23c-1.04-3.58-1.92-6.57-2.95-10.11c-8.08,2.04-16.1,3.83-23.95,6.18
			c-3.14,0.94-2.8,4.75-3.37,7.32c-0.85,3.83-2.85,5.34-6.53,6.2c-12.08,2.84-24.08,6.06-36.68,9.27
			c0.66-6.29,2.94-11.76,4.55-17.33c7.34-25.5,14.99-50.92,22.42-76.4c0.61-2.11,1.26-3.35,3.6-3.94
			c20.25-5.09,40.47-10.33,61.17-15.65c7.92,27.71,15.79,55.21,23.89,83.55C640.49,383.96,626.68,387.54,612.38,391.23z
			 M598.28,330.12c-2.31,10.28-6.25,20.08-8.62,30.85c5.67-1.78,10.91-2.28,15.71-4.5C603.14,347.48,600.02,339.08,598.28,330.12z"
			/>
		<path class="st0" d="M2.43,462.04c9.64-2.48,19.38-5.04,29.15-7.48c15.58-3.89,30.96-8.6,46.75-11.59
			c23.49-4.45,30.18,10.78,28.09,28.15c-2.79,23.15-17.38,38.5-41.36,44.74c-6.26,1.63-12.46,3.58-18.81,4.74
			c-3.32,0.6-4.11,2.31-4.15,4.98c-0.08,5.31-0.02,10.62-0.02,16c-14.15,3.63-27.87,7.15-41.95,10.77
			C0.9,521.98,1.66,492.25,2.43,462.04z M43.01,496.53c5.01-1.55,9.42-2.87,13.8-4.29c2.57-0.83,4.99-2.17,6.56-4.34
			c2.3-3.18,3.88-6.87,1.61-10.63c-2.03-3.36-5.39-2.38-8.54-1.72c-13.46,2.81-13.46,2.78-13.43,16.57
			C43.02,493.26,43.01,494.42,43.01,496.53z"/>
		<path class="st0" d="M444.76,347.85c0,11.92,0,23.21,0,34.97c-7.24,1.04-14.26,1.93-21.23,3.07c-6.91,1.13-13.64,2.95-19.84,6.34
			c-4.73,2.59-8.16,6.29-9.43,11.65c-1.61,6.77,1.73,11.15,8.67,11.27c8.31,0.15,15.91-2.95,23.53-5.68
			c5.74-2.05,11.28-4.68,16.62-6.93c0,9.65-0.04,19.33,0.04,29.01c0.01,1.73-0.97,2.11-2.25,2.7c-17.51,8.11-35.25,15.16-54.8,16.95
			c-21.55,1.97-34.42-9.47-35.12-31.19c-0.83-25.76,9.08-45.11,32.07-57.31c7.79-4.13,16.08-7.01,24.63-9.14
			C419.77,350.55,432.08,348.93,444.76,347.85z"/>
		<path class="st2" d="M231.65,559.57c-1.15-2.71-0.7-5.41-0.71-8.03c-0.05-14,0.13-28-0.1-42c-0.08-4.77,1.17-6.94,6.33-7.9
			c9.45-1.77,18.73-4.54,28.02-7.11c3.9-1.08,6.37-0.97,7.81,3.71c2.07,6.74,4.99,13.23,7.99,20.98c2.73-8.98,5.19-16.85,7.49-24.76
			c1.11-3.8,2.42-6.7,7.07-7.73c11.47-2.53,22.8-5.72,34.05-8.61c1.74,1.56,1.22,3.34,1.23,4.91c0.04,15.5-0.07,31,0.07,46.49
			c0.04,4.06-1.39,5.87-5.48,6.69c-7.77,1.56-15.42,3.76-23.51,5.79c-1.68-9.25,0.35-18.17-1.46-27.19
			c-3.13,8.9-6.41,17.75-9.29,26.73c-0.96,2.99-2.37,4.42-5.49,4.65c-1.96,0.15-3.86,0.97-5.79,1.49c-8.31,2.26-8.27,2.25-11.61-5.9
			c-2.31-5.64-4.72-11.23-8.18-16.69c0,7.36-0.15,14.73,0.06,22.09c0.1,3.6-0.65,5.07-4.65,6.35c-7.1,2.26-14.44,3.54-21.46,6.02
			C233.34,559.79,232.46,559.57,231.65,559.57z"/>
		<path class="st0" d="M499.28,331.22c0,19.27,0,38.19,0,57.55c10.84-2.76,21.96-5.6,33.05-8.42c0,10.71,0,21.26,0,32.1
			c-25.58,6.59-50.69,13.05-76.08,19.59c-0.42-13.31,0.51-26.25,0.81-39.2c0.37-15.97,0.75-31.95,1.06-47.92
			c0.04-2,0.16-3.33,2.62-3.93C473.62,337.86,486.44,334.5,499.28,331.22z"/>
		<path class="st2" d="M598.12,463.06c0.26-19.34-0.56-38.02,0.57-56.9c14.36-3.57,28.03-6.94,41.69-10.37
			c6.12-1.54,12.26-3.06,18.3-4.87c4.43-1.32,8.89-1.33,13.36-0.96c4.39,0.35,7.75,4.2,8.09,8.71c0.84,11.09-3.7,18.11-15.02,23.06
			c-1.07,0.47-2.23,0.65-3.23,2.25c5.56,6.5,13.29,10.78,19.78,16.91c-3.76,3.99-9.07,2.83-13.42,4.35
			c-6.4,2.23-13.22,3.21-19.76,5.05c-2.3,0.65-3.77,0.11-5.37-1.33c-3.9-3.52-7.88-6.95-12.3-10.84c-1.21,4.85,0.35,9.06,0.23,13.27
			c-0.06,2.12-0.43,3.63-2.59,4.17C618.57,458.03,608.69,460.45,598.12,463.06z M630.77,424.19c6.11-0.01,10.93-2.13,15.6-4.62
			c2.33-1.24,1.95-3.63,1.96-5.76c0.01-1.2-0.24-2.54-1.73-2.58c-4.99-0.1-10.27-0.07-14.38,2.72
			C629.1,416.08,630.42,420.28,630.77,424.19z"/>
		<path class="st2" d="M503.91,459.48c-0.62-11.32,4.47-20.44,13.54-27.03c14.9-10.84,32.22-15.32,50.29-16.17
			c18.26-0.86,24.64,12.14,21.81,28.05c-2.43,13.67-11.76,21.78-23.67,27.36c-10.91,5.11-22.55,7.79-34.4,9.62
			c-5.71,0.88-11.28,0.19-16.72-1.68C507.37,477.09,504.05,471.02,503.91,459.48z M536.1,452.86c-0.5,4.35,1.08,8.21,6.04,8.85
			c5.08,0.66,9.72-1.02,12.76-5.69c2.9-4.45,4.01-9.01,1.4-14.01c-1.15-2.2-3.14-3.07-5.3-3.11
			C542.76,438.79,535.36,444.51,536.1,452.86z"/>
		<path class="st2" d="M401.34,459.97c1.66,0,3.33-0.05,4.99,0.01c10.96,0.35,17.96,7.02,18.74,17.89
			c1.01,14.15-4.08,25.29-16.4,32.75c-16.27,9.86-33.73,14.84-52.96,13.72c-10.26-0.6-16.42-8.76-16.78-19.19
			c-0.57-16.3,7.68-27.21,21.45-34.21C373.18,464.44,386.85,460.48,401.34,459.97z M392.62,491.04c-0.06-6.2-2.4-9.01-7.43-8.89
			c-8.08,0.19-14.16,6.5-13.95,14.5c0.14,5.35,2.97,8.6,7.53,8.64C386.96,505.37,392.7,499.46,392.62,491.04z"/>
		<path class="st2" d="M757.38,374.77c0,7.03,0.01,7.11-7.15,8.04c-8.24,1.07-16.4,2.44-24.31,5.09c-0.47,0.16-1.04,0.14-1.43,0.4
			c-1.65,1.11-5.04,1.22-4.04,4.04c0.88,2.5,3.7,1.39,5.72,0.94c6.8-1.52,13.49-3.32,20.54-3.8c12.54-0.86,15.77,8.04,12.3,18.09
			c-2.68,7.77-8.76,12.77-15.87,16.44c-12.52,6.46-26.09,9.51-39.85,11.85c-2.95,0.5-5.91,0.95-8.87,1.34
			c-1.3,0.17-3.17,0.72-3.86,0.09c-3.58-3.27-1.94-7.71-1.98-11.72c-0.03-2.84,1.48-4.4,4.62-4.68c8.94-0.79,17.86-1.93,26.53-4.3
			c2.68-0.73,7.37-0.96,6.56-4.47c-0.92-3.98-4.66-0.68-7.19-0.49c-6.61,0.5-12.93,2.67-19.68,2.8c-13.8,0.27-15.08-9.4-12.35-17.88
			c2.66-8.28,9.31-13.02,16.82-16.68c14.22-6.93,29.53-9.91,44.97-12.41C757.38,366.09,757.38,366.07,757.38,374.77z"/>
		<path class="st2" d="M448.04,502.97c0-11.23,0-21.84,0-32.9c-6.56-0.12-12.06,2.31-18.41,3.8c-1.24-7.21-0.54-14.27-0.51-21.28
			c0.01-1.45,1.43-1.72,2.53-2c21.25-5.5,42.51-10.99,63.77-16.43c0.93-0.24,1.97-0.03,3.49-0.03c0.91,6.55,1.18,13.1,0.44,19.69
			c-0.21,1.83-1.52,2.48-3,2.91c-3.64,1.05-7.27,2.71-10.97,2.91c-4.68,0.25-5.31,2.39-5.2,6.35c0.25,8.33,0.03,16.67,0.11,25
			c0.02,2.17-0.16,4.04-2.65,4.66C468,498.05,458.34,500.42,448.04,502.97z"/>
		<path class="st0" d="M328.01,119.97c7.44-1.42,14.88-2.84,22.32-4.25c0.11,0.32,0.22,0.64,0.33,0.95
			c-5.22,2.07-10.41,4.21-15.65,6.2c-36.18,13.71-72.05,28.17-106.32,46.22c-15.28,8.05-30.14,16.89-45.19,25.37
			c-0.19-0.22-0.39-0.43-0.59-0.64c10.81-11.06,22.93-20.59,35.28-29.82c8.76-6.55,17.47-13.2,27.1-18.54
			c4.42-2.45,9.35-3.37,13.8-5.59c10.49-3.15,21.07-6.04,31.45-9.54c12-4.05,24.36-6.66,36.58-9.81c0.33-0.22,0.66-0.43,0.99-0.65
			L328.01,119.97z"/>
		<path class="st0" d="M381.2,166.95c-0.75,0.57-1.51,1.14-2.26,1.71c-3,0.24-5.09,2.36-7.51,3.74c-8.23,4.68-17.44,5.21-26.48,6.29
			c-35.33,4.22-70.29,10.6-105.12,17.79c-7.01,1.45-14.06,2.7-21.09,4.04c-0.09-0.4-0.18-0.8-0.26-1.21
			c9.55-2.47,19.12-4.85,28.64-7.43c31.88-8.63,64.25-15.23,96.42-22.64c16.75-3.86,30.32-12.13,42.29-23.93
			c10.06-9.92,19.8-20.13,29.46-30.51c1.5,1.37,0.32,2.24-0.2,3.07c-6.88,10.99-13.75,21.97-20.7,32.91
			c-3.4,5.35-7.3,10.31-12.49,14.07C381.01,165.48,381.02,166.11,381.2,166.95z"/>
		<path class="st0" d="M441.14,291.45c-0.05,8.97-0.89,16.65-4.86,23.69c-4.57,8.11-11.72,10.06-19.72,5.25
			c-8.19-4.93-13.29-12.62-17.31-20.85c-8.04-16.45-11.83-33.83-9.23-52.23c0.75-5.33,2.63-10.31,6.04-14.53
			c4.41-5.45,10.3-6.42,16.47-3.12c8.98,4.81,14.25,12.85,18.62,21.55C437.67,264.19,441.01,278,441.14,291.45z M397.89,289.5
			c1.88,8.26,9.09,20.94,14.6,25.78c9.08,7.98,17.26,5.97,21.69-5.35c0.36-0.92,0.65-1.88,0.9-2.84
			c3.29-12.78,1.77-25.35-1.59-37.87c-3.23-12.04-8.05-23.26-16.73-32.43c-7.23-7.63-15.55-7.81-20.24-0.45
			c-4.67,7.32-5.11,15.57-4.52,23.94c0.16,2.2,1.45,3.41,3.7,2.92c3.29-0.71,5.3-4.93,3.97-8.08c-0.65-1.53-1.35-3.03-2.58-5.8
			c3.49,2.87,4.67,6.02,6.89,7.28c1.91,0.43,1.98-1.46,3.42-1.44c-1.62,3.91-3.34,7.73-2.65,12.02c0.36,2.22,1.22,4.23,3.56,4.96
			c2.27,0.72,4.3-0.06,5.94-1.69c2.51-2.49,3.34-5.65,3.31-9.09c0-0.13,0.19-0.26,0.29-0.39c-0.03,0-0.05,0.01,0.08-0.01
			c0.66,6.08-4.37,12.58,1.81,18.63c-1.06-0.38-1.49-0.55-1.93-0.68c-4.71-1.38-7.87,1.51-10.05,4.7c-2.18,3.19,1.35,4.87,3.38,6.69
			c1.7,1.53,3.38,3.08,4.92,4.48c-6.49,2.45-3.06,9.14-6.14,13.54C412.81,297.49,407.53,292.13,397.89,289.5z"/>
		<path class="st0" d="M348.17,235.99c-1,3.14-4.26,4.53-6.47,5.22c-9.72,3-18.08,9.08-27.9,11.75c-2.58,0.7-5.14,1.28-7.8,1.49
			c-3.28-0.49-6.54-1.02-9.68-2.2c-3.22-1.2-3.78-3.31-2.85-6.32c4.26-13.69,13.07-22.15,27.38-25.06
			c7.63-1.55,12.42,1.55,16.4,8.76c1.42-5.47,4.82-9.29,2.73-14.32c4.85-0.45,5.75,0.37,4.72,4.9c-1.74,7.66-4.07,15.1-9.11,21.51
			c3.27-1.49,7.06-1.32,7.65-7.03c0.73-7.02,3.71-13.72,6.85-20.17c0.97-2,2.84-2.77,4.76-3.28c1.73-0.46,3.74-1.02,5.1,0.67
			c1.26,1.56,0.18,3.16-0.52,4.65c-2.88,6.19-6.35,12.02-10.74,17.27C348.13,234.52,347.63,235.1,348.17,235.99z M326.6,226.44
			c-4.88-0.05-9.11,3.52-9.26,7.8c-0.14,3.94,3.63,7.39,8.23,7.53c4.8,0.15,9.34-3.99,9.22-8.41
			C334.69,229.54,331.07,226.48,326.6,226.44z"/>
		<path class="st2" d="M327.11,120.51c-12.23,3.15-24.58,5.76-36.58,9.81c-10.38,3.5-20.96,6.38-31.45,9.54
			c-1.41-0.06-2.88,0.25-4.59-0.78c58.84-22.55,119.24-37.2,181.42-45c-2.8,3.18-5.61,6.15-9.72,6.86
			c-13.94,2.41-27.85,5-41.84,7.23c-9.85,1.57-19.77,2.83-29.57,4.97c-7.7,1.68-15.37,3.72-23.19,4.89
			c-1.46,0.22-3.1-0.04-3.59,1.93c0,0,0.1-0.11,0.1-0.11C327.77,120.07,327.44,120.29,327.11,120.51z"/>
		<path class="st0" d="M130.45,236.4c-3.55,2.14-4.79,6.59-8.28,8.79c-1.93-1.12,0.63-2.52-0.85-3.62
			c-3.2,1.48-6.55,3.02-10.77,4.96c3.12-4.99,7.88-6.78,10.52-10.7c0,0-0.1,0.14-0.1,0.14c1.51,0.02,2.67-0.48,3.1-2.08
			c0,0-0.11,0.09-0.11,0.09c0.83,0.07,1.87,0.35,1.09-1.13c0,0-0.13,0.07-0.13,0.07c0.35,0.86,0.94,0.73,1.52,0.33
			c19.15-13.18,41.4-17.3,63.53-21.8c25.19-5.12,50.38-10.28,75.58-15.39c1.29-0.26,2.61-0.32,4.1,0.3
			c-9.67,2.47-19.32,4.99-29.01,7.4c-24.33,6.05-48.58,12.42-72.69,19.29c-11.6,3.31-22.15,8.9-32.62,14.72
			c-1.49,0.83-2.8,2.33-4.75,2.06c-0.83-1.23,0.57-1.84,0.53-2.78c1.18-0.87,3.07-1.11,2.82-3.22c0.38,0.4,0.73,0.39,0.99-0.1
			c0.05-0.1-0.06-0.3-0.1-0.45c-0.27,0.22-0.54,0.45-0.81,0.67C132.36,234.07,131.56,235.46,130.45,236.4z M137.15,232.11
			c0.54-0.24,1.26-0.37,0.78-1.25c0.37-0.1,0.75-0.21,1.12-0.31c-0.08-0.14-0.16-0.27-0.24-0.41c-0.26,0.27-0.51,0.54-0.77,0.8
			c-0.82,0.1-1.68,0.17-0.8,1.28c-0.39-0.07-0.77-0.13-1.16-0.2c0.01,0.16,0.02,0.32,0.04,0.48
			C136.46,232.38,136.81,232.25,137.15,232.11z M141.39,229.38c0.06-0.4,0.12-0.79,0.18-1.19c-0.15,0.04-0.31,0.09-0.46,0.13
			c0.11,0.39,0.23,0.79,0.32,1.15c-0.38-0.15-0.76-0.3-1.14-0.45c-0.03,0.15-0.05,0.31-0.08,0.46
			C140.6,229.45,140.99,229.41,141.39,229.38z M143.13,227.35l0.35,0.19l0.02-0.32L143.13,227.35z"/>
		<path class="st0" d="M291.71,215.45c-10.26,5.71-17.55,13.75-25.26,21.27c-2.12,2.06-4.8,2.5-7.16,3
			c-37.51,7.86-74.71,17.28-112.53,23.63c-13.26,2.23-26.5,4.83-40.16,3.9c11.42-2.1,22.86-4.09,34.25-6.32
			c35.35-6.92,70.86-13.12,105.6-22.93c8.8-2.49,16.64-6.51,24.1-11.62c5.07-3.47,10.38-6.59,15.62-9.81
			C287.53,215.74,288.77,214.38,291.71,215.45z"/>
		<path class="st0" d="M620.53,270.5c-13.77-18.03-17.65-38.31-13.03-60.22c1.69-8.01,11.42-11.25,18.3-6.43
			c7.32,5.12,11.64,12.64,14.86,20.76c5.49,13.82,8.39,27.97,4.64,42.82c-1.33,5.26-3.74,10.01-9.36,11.21
			c-5.94,1.27-10.51-1.82-13.93-6.61c0.28-0.28,0.56-0.56,0.84-0.83c1.12,0.98,2.17,2.04,3.36,2.93c5.63,4.2,10.54,3.14,14.01-3
			c0.98-1.74,1.74-3.53,2.08-5.55c3.23-19.28-0.99-36.98-11.77-53.06c-3.2-4.77-7.47-10.07-14.11-8.23
			c-6.47,1.79-7.99,8.25-8.37,14.11c-1.22,18.51,2.65,35.84,13.29,51.34C621.06,270,620.79,270.25,620.53,270.5z"/>
		<path class="st0" d="M293.01,238.54c-1.67,0.13-3.25,0.11-4.76,0.42c-2.01,0.42-3.15,1.85-3.3,3.88c-0.15,2.02,0.65,3.93,2.75,4.1
			c3.71,0.31,4.07,2.86,4.47,5.62c1.37,0.74,3.27,0.39,4.97,2.69c-13.18-2.42-24.47,3.99-36.64,5.01c0.16-5.63,0.42-5.83,8.08-6.64
			c-4.39-4.04-3.48-8.07,4.04-13.43c-2.04,5.19-1.77,9.27,1.98,12.24c1.57,1.24,3.51,1.92,6.01,0.38c-2.64-3.16-4.94-6.5-3.81-10.93
			c0.61-2.41,1.97-4.21,3.93-5.58C284.68,233.54,289.33,234.38,293.01,238.54z"/>
		<path class="st0" d="M87.58,292.78c-1.98-4.83-2.21-9.31-1.29-13.71c0.85-4.06,3.52-4.84,6.27-2.26c1.16-0.6,0.48-2.78,2.92-2.69
			c1.73,2.54,1.03,6.1,2.3,8.99c1.56,3.56-0.97,6.1-1.96,8.61c0.93,2.06,3.24,0.44,4.04,2.76c-2.49,0.99-5.13,0.74-7.47,0.19
			c-3.77-0.89-6.38-0.43-9.02,2.87c-2.2,2.75-5.06,2.07-6.72-1.83C81.99,299.85,83.18,291.93,87.58,292.78z M92.99,278.01
			c0.8,4.58-1.54,8.48-3.37,13.55C96.39,287.61,92.1,282.15,92.99,278.01z"/>
		<path class="st0" d="M77.94,290.28c-1.43,1.27-0.38,3.18-1.82,5.79c-1.51-10.26,3.28-17.55,7.06-25.23
			c1.3,6.15,2.48,12.33,1.56,18.59C84.28,292.61,82.41,292.73,77.94,290.28z"/>
		<path class="st0" d="M100.6,254.04c-1.16,4.06-5.05,5.78-6.44,9.24c0.52,2.21,2.73,2.53,4.01,4.38c-2.85-0.57-5.38-1.13-7.93-1.56
			c-2.91-0.49-3.42-2.32-1.63-4.11C92.03,258.56,96.07,255.88,100.6,254.04z"/>
		<path class="st2" d="M439.56,86.66c-3.99,2.29-7.58,5.12-12.93,2.87c-2.6-1.1-6.17,0.11-9.35-0.1
			C424.71,88.6,431.8,85.52,439.56,86.66z"/>
		<path class="st0" d="M104.47,334.82c3.54,3.41,4.23,7.37,2.34,11.85c-1.11-0.24-3.44,0.35-2.44-1.78c1.82-3.86,0.27-6.57-2.72-9.4
			C102.97,335.17,103.72,334.99,104.47,334.82z"/>
		<path class="st0" d="M84.48,333.96c0.91,3.7,1.66,7.41,3.38,10.84C84.31,341.99,82.58,338.57,84.48,333.96z"/>
		<path class="st0" d="M259.12,250.97c-0.15,4.58-4.84,7.49-4.41,12.83c-0.51,0.22-1.8,0.65-2.75-0.53
			c-0.87-1.08-0.13-2.25,0.51-3.16C254.64,257.02,256.9,254.01,259.12,250.97z"/>
		<path class="st0" d="M622.01,272.04c-0.49-0.51-0.98-1.02-1.48-1.53c0.26-0.25,0.53-0.5,0.79-0.76c0.51,0.48,1.02,0.97,1.52,1.45
			C622.56,271.48,622.29,271.76,622.01,272.04z"/>
		<path class="st0" d="M129.68,240.76c-0.23-0.12-0.44-0.23-0.66-0.35c0.11-0.11,0.24-0.32,0.32-0.3c0.23,0.05,0.45,0.19,0.67,0.3
			C129.91,240.52,129.8,240.63,129.68,240.76z"/>
		<path class="st0" d="M183.5,194.45c-0.43,0.36-0.86,0.95-1.37,0.15c-0.04-0.07,0.5-0.51,0.78-0.79
			C183.11,194.01,183.31,194.23,183.5,194.45z"/>
		<path class="st1" d="M584.1,145.71c-4.18,3.02-8.87,2.97-13.12,3.65c-12.34,1.96-24.56,4.82-36.93,6.18
			c-21.47,2.35-42.25,8.52-63.71,10.75c-3.72,0.39-7.35,1.84-11.2,2.03c-2.1,0.11-3.33,1.32-3.15,3.64c0.1,1.33-0.02,2.67,0.1,3.99
			c0.4,4.49-1.36,7.89-5.52,9.5c-3.98,1.54-8.96-0.67-11.69-4.64c-4.13-6-3.96-5.39-11.17-3.34c-4.67,1.33-9.81,1.52-14.48,3.09
			c-9.57,3.21-19.73,3.05-29.41,5.52c-1.82,0.46-3.85,0.68-6.33-0.93c4.95-3.78,10.04-6.59,14.77-9.35
			c9.36-5.47,15.33-13.32,20.64-22.26c4.68-7.88,8.98-15.97,14.19-23.58c3.32-4.85,5.46-10.51,9.31-15.24
			c8.37-10.25,19.56-15.67,31.93-18.5c20.97-4.79,41.51-2.84,62.01,4.11c13.69,4.65,25.65,11.33,35.92,21.31
			c4.72,4.59,7.97,10.31,11.67,15.65C579.78,139.99,582.13,142.34,584.1,145.71z M479.92,150.96c0.08-6.6-3.62-11.37-9.47-11.4
			c-8.09-0.04-16.16,0.24-23.86,3.48c-6.77,2.86-8.71,5.24-8.64,12.57c0.03,3.45-0.19,6.92,1.85,10.12
			c1.22,1.92,0.62,4.04-0.57,6.08c-2.11,3.62-0.53,6.36,4.35,9.51c3.87,2.5,6.81,1.16,8.97-1.9c1.58-2.23,0.79-5.23-0.07-7.72
			c-0.97-2.77-0.22-3.88,2.38-5.31c4.6-2.53,9.69-3.07,14.52-4.56C474.22,160.34,479.87,154.91,479.92,150.96z M428.67,135.82
			c2.36-0.15,3.23-1.65,4.26-2.9c3.05-3.74,6.24-7.38,9.06-11.29c6.93-9.59,15.84-15.97,27.69-17.95c2.61-0.44,5.22-1.15,7.7-2.07
			c3.99-1.48,6.12,0.12,7.96,3.62c5.51,10.46,10.39,21.18,14.8,32.14c2.48,6.18,5,12.35,7.5,18.53c0.41-0.17,0.83-0.34,1.24-0.51
			c-5.44-20.07-15.12-38.47-23.49-57.46C464.89,95.38,430.13,118.35,428.67,135.82z M500.66,101.01
			c18.58-0.08,33.97,6.52,49.21,14.41c-1.15-8.31-42.69-21.47-55.24-17.75c5.87,6.88,9.27,15.03,13.03,22.96
			c4.7,9.9,9.13,19.92,13.7,29.88c1.21,2.63,1.25,2.6,4.1,1.74C518.02,135.1,510.03,118.21,500.66,101.01z M425.15,139.75
			c-5.36,11.78-12.62,21.71-16.67,33.85c3.87,0.34,6.41,0.86,8.81-1.16c-3.84-1.74-3.89-4.36-2.27-7.47
			c3.22-6.18,6.43-12.35,9.59-18.56C425.48,144.71,427.05,143.1,425.15,139.75z M554.93,117.21c7.77,8.58,15.48,17.09,20.16,28.09
			C577.47,141.22,564.79,123.38,554.93,117.21z"/>
		<path class="st1" d="M233.79,303.31c2.96-1.48,5.32-2.62,8.1-3.19c10.45-2.17,20.88-4.48,31.27-6.93
			c15.27-3.61,30.47-7.51,45.76-11.02c5.38-1.24,7.47,1.17,6.31,6.69c-0.98,4.62-2.58,9.12-3.33,13.76
			c-1.5,9.28-9.16,11-16.08,12.82c-7.02,1.85-13.54,4.9-20.4,7.06c-9.96,3.12-20.09,5.66-29.85,9.45
			c-5.94,2.31-11.57,5.42-17.97,6.63c-7.13,1.35-14.09,3.91-21.26,4.61c-9.67,0.95-19.01,4.67-28.92,3.42
			c-1-0.13-1.91,0.18-2.73,0.92c-3.66,3.28-8.23,3.06-12.22,1.73c-4.22-1.4-8.25-1.15-12.28-0.49c-9.3,1.52-18.53,3.42-27.78,5.23
			c-4.31,0.85-6.46-0.95-7.52-5.11c-1.58-6.22-1.42-12.55-1.76-18.85c-0.15-2.79,1.93-3.46,4.06-4.25
			c6.94-2.57,14.38-2.12,21.51-3.77c14.72-3.4,29.74-5.35,44.51-8.65c8.82-1.97,17.84-2.99,26.78-4.43c0.16-0.03,0.36,0.04,0.5-0.03
			c10.35-4.6,16.13,1.5,21.33,9.05c2.22,3.23,5.33,5.78,7.04,9.44c0.64,1.37,2.14,2.31,3.78,1.28c7.95-4.96,16.56-8.4,25.47-11.18
			c2.36-0.74,2.02-2.22,0.64-3.78c-3.17-3.59-6.29-7.22-9.46-10.81c-1.42-1.61-3.36-1.16-5.16-1.1c-8.32,0.29-16.4,2.81-24.78,2.56
			C237.72,304.33,236.04,305.03,233.79,303.31z"/>
		<path class="st1" d="M568.05,251.89c0.19,2.05-1.31,1.81-2.62,2.07c-10.27,2.02-20.58,3.86-30.77,6.23
			c-9.37,2.18-18.81,4.08-28.16,6.24c-4.51,1.04-9.42,0.69-13.77,3.11c-1.82,1.01-4.51,0.45-7.04-0.43
			c3.44-1.06,6.83-2.46,10.35-3.06c2.67-0.45,5.21-0.9,7.49-2.39c0.53-0.35,1.34-1.18,1.49-1.07c3.68,2.7,6.99,0.19,10.24-0.86
			c7.91-2.57,16.36-2.69,24.18-5.72c4.94-1.91,5.32-2.07,3.97-8.79c-14.77,3.68-29.52,7.36-44.27,11.04
			c-0.11-0.45-0.22-0.91-0.33-1.36c13.98-4.59,28.37-7.76,43.03-11.8c-0.44-8.38-4.48-16.48-3.73-25.2l-0.1,0.09
			c3.59,3.09,3.14,7.64,4.11,11.64c0.57,2.37,0.29,4.86,0.95,7.34c0.77,2.92,1.12,5.58,5.73,5.35c-3.61,1.59-4.76,3.53-2.84,6.29
			c2.23,3.2,5.75,4.44,9,2.88c4.38-2.11,8.72-1.45,13.13-1.51L568.05,251.89z"/>
		<path class="st1" d="M256.97,309.5c2.52-0.13,5.61-1.18,7.05,1.52c1.28,2.39-0.18,4.84-1.57,7.23c-1.59,2.74-3.02,1.99-4.86,0.75
			C255.51,315.94,254.13,312.86,256.97,309.5z"/>
		<path class="st1" d="M598.11,203.94c0.62-10.57,0.27-21.16-0.01-31.8c2.36,0.2,1.84,1.71,1.85,2.68
			c0.08,8.64,0.09,17.29,0.09,25.93c0,1.43,0.41,3.21-2.01,3.11C598.03,203.86,598.11,203.94,598.11,203.94z"/>
		<path class="st0" d="M256.97,309.5c-2.84,3.36-1.46,6.45,0.61,9.49c-1.12,0.06-2.26,0.24-3.37,0.16
			c-2.31-0.15-4.12-1.19-4.64-3.59c-0.59-2.72,1.16-4.37,3.28-5.37C254.04,309.64,255.42,308.59,256.97,309.5z"/>
		<path class="st1" d="M568.13,251.97c0.4-2.83,2.73-2.04,4.32-2.05c4.52-0.04,8.51-1.95,12.81-3.23c1.47,1.34,0.79,2.91,0.61,3.69
			c-6.11,0.87-11.9,2.44-17.81,1.51C568.05,251.89,568.13,251.97,568.13,251.97z"/>
		<path class="st1" d="M585.39,234.64c-5.68,4.09-11.42,3.53-17.18,5.85C570.85,235.65,571.04,235.59,585.39,234.64z"/>
		<path class="st1" d="M538.14,219.89c-4.44-3.45-1.06-7.74-1.56-11.61c2.58,3.69,1.84,7.71,1.46,11.7
			C538.04,219.98,538.14,219.89,538.14,219.89z"/>
		<path class="st0" d="M219.61,593.73c103.2-21.48,206.31-42.95,310.02-64.54c-1.01,4.86-4.2,7.46-6.64,10.31
			c-9.76,11.46-19.37,23.11-30.49,33.29c-16.75,15.32-33.31,30.81-52.3,43.55c-25.65,17.21-52.69,31.47-81.78,41.85
			c-3.09,1.1-6.16,2.29-9.12,3.7c-8.18,3.89-15.4-0.18-22.8-2.62c-12.98-4.27-25.46-9.8-37.47-16.24
			c-12.73-6.83-25.68-13.38-37.33-21.99c-10.24-7.57-20.56-15.1-29.96-23.74C220.92,596.55,219.74,596.01,219.61,593.73z"/>
		<path class="st0" d="M614.57,753.04c0,2-0.25,4.03,0.05,5.98c0.8,5.18-2.57,7.19-6.48,8.56c-5.29,1.86-12.95-1.02-16.32-5.83
			c-3.95-5.64-3.65-13.25,0.71-18.54c4.12-4.99,10.78-6.68,16.66-4.39c3.82,1.49,6.12,3.73,5.44,8.23
			c-0.29,1.95-0.05,3.98-0.05,5.98C614.59,753.04,614.58,753.04,614.57,753.04z"/>
		<path class="st0" d="M355.03,737.86c8.23-0.08,14.99,6.47,15.15,14.66c0.16,8.56-6.44,15.47-14.79,15.49
			c-8.6,0.02-15.21-6.55-15.19-15.08C340.22,744.76,346.93,737.94,355.03,737.86z"/>
		<path class="st0" d="M148.11,768.02c-9.09,0.14-15.65-6.08-15.73-14.91c-0.08-8.15,6.5-15.04,14.56-15.25
			c8.54-0.23,15.19,6.17,15.38,14.8C162.52,761.12,156.25,767.9,148.11,768.02z"/>
		<path class="st1" d="M124.08,233.91c-0.43,1.59-1.59,2.09-3.1,2.08C120.95,233.71,122.29,233.48,124.08,233.91z"/>
		<path class="st1" d="M125.06,232.86c0.78,1.48-0.27,1.2-1.09,1.13C123.31,232.63,124.35,232.91,125.06,232.86z"/>
		<path class="st1" d="M160.08,463.3c0-5.96,0-11.25,0-16.97c5.74-2.16,11.68-3.78,17.95-3.93c2.77-0.07,4.26,1.4,4.45,4.21
			c0.36,5.09-1.4,9.01-6,11.54C171.49,460.9,166.01,462,160.08,463.3z"/>
		<path class="st1" d="M273.99,437.86c-0.08-11.96,4.18-18.99,13.01-21.5c6.78-1.93,11.03,0.76,12.12,7.71
			c0.89,5.67,0.56,11.28-1.29,16.71c-0.97,2.85-2.62,5.33-4.88,7.41c-3.85,3.53-8.48,5.26-13.28,3.42
			c-4.74-1.82-5.56-6.6-5.68-11.26C273.97,439.53,273.99,438.69,273.99,437.86z"/>
		<path class="st1" d="M598.28,330.12c1.74,8.96,4.86,17.35,7.1,26.35c-4.8,2.22-10.05,2.72-15.71,4.5
			C592.03,350.21,595.97,340.4,598.28,330.12z"/>
		<path class="st1" d="M43.01,496.53c0-2.11,0-3.26,0-4.42c-0.03-13.79-0.03-13.76,13.43-16.57c3.15-0.66,6.51-1.64,8.54,1.72
			c2.27,3.76,0.69,7.45-1.61,10.63c-1.57,2.17-3.99,3.51-6.56,4.34C52.43,493.65,48.03,494.97,43.01,496.53z"/>
		<path class="st1" d="M630.77,424.19c-0.35-3.92-1.67-8.11,1.45-10.23c4.1-2.79,9.39-2.82,14.38-2.72
			c1.49,0.03,1.74,1.37,1.73,2.58c-0.01,2.13,0.37,4.51-1.96,5.76C641.69,422.07,636.88,424.19,630.77,424.19z"/>
		<path class="st1" d="M536.1,452.86c-0.74-8.35,6.66-14.08,14.91-13.96c2.16,0.03,4.15,0.91,5.3,3.11c2.61,5.01,1.5,9.56-1.4,14.01
			c-3.04,4.67-7.68,6.35-12.76,5.69C537.19,461.07,535.61,457.21,536.1,452.86z"/>
		<path class="st1" d="M392.62,491.04c0.08,8.41-5.66,14.32-13.84,14.25c-4.56-0.04-7.39-3.29-7.53-8.64
			c-0.21-7.99,5.86-14.3,13.95-14.5C390.21,482.03,392.56,484.84,392.62,491.04z"/>
		<path class="st1" d="M327.11,120.51c0.33-0.22,0.66-0.43,0.99-0.65C327.77,120.07,327.44,120.29,327.11,120.51z"/>
		<path class="st1" d="M397.89,289.5c9.64,2.63,14.92,7.98,12,18.82c3.09-4.4-0.34-11.09,6.14-13.54c-1.54-1.41-3.23-2.95-4.92-4.48
			c-2.03-1.83-5.56-3.51-3.38-6.69c2.18-3.19,5.34-6.09,10.05-4.7c0.44,0.13,0.87,0.3,1.93,0.68c-6.18-6.04-1.14-12.54-1.81-18.63
			c-0.13,0.02-0.11,0.02-0.08,0.01c-0.1,0.13-0.29,0.26-0.29,0.39c0.03,3.45-0.8,6.6-3.31,9.09c-1.64,1.63-3.67,2.4-5.94,1.69
			c-2.34-0.74-3.21-2.75-3.56-4.96c-0.69-4.29,1.04-8.1,2.65-12.02c-1.44-0.02-1.51,1.87-3.42,1.44c-2.23-1.27-3.4-4.41-6.89-7.28
			c1.23,2.76,1.93,4.27,2.58,5.8c1.34,3.15-0.68,7.37-3.97,8.08c-2.25,0.49-3.55-0.73-3.7-2.92c-0.59-8.37-0.15-16.62,4.52-23.94
			c4.7-7.35,13.02-7.18,20.24,0.45c8.69,9.17,13.5,20.4,16.73,32.43c3.36,12.52,4.88,25.09,1.59,37.87
			c-0.25,0.96-0.53,1.92-0.9,2.84c-4.43,11.32-12.61,13.34-21.69,5.35C406.98,310.44,399.77,297.76,397.89,289.5z M419.12,296.55
			c-0.03,0.07-0.06,0.14-0.08,0.21c0.09-0.06,0.19-0.11,0.28-0.17c0.05,0.24,0.1,0.47,0.14,0.71
			C419.35,297.05,419.23,296.8,419.12,296.55z M413.54,239.42c-0.46-0.38-0.91-0.97-1.44-0.15c-0.03,0.05,0.56,0.51,0.85,0.78
			c11.44,15.63,17.35,33.08,17.62,52.48c0.1,7.08-2.13,13.7-3.44,20.5c-0.43-0.32-0.75-0.24-0.89,0.29
			c-0.03,0.11,0.12,0.27,0.19,0.4c0.2-0.27,0.41-0.53,0.61-0.8c1.73-1.61,2.57-3.67,3.19-5.9c3.78-13.73,3.14-27.41-1.21-40.81
			C425.79,256.27,421.81,246.55,413.54,239.42z M423.07,285.91c-0.95-2.15-1.43-3.23-1.9-4.32c-0.1,0.05-0.19,0.09-0.29,0.14
			C421.43,282.77,421.98,283.82,423.07,285.91z"/>
		<path class="st1" d="M326.6,226.44c4.47,0.04,8.09,3.09,8.19,6.92c0.12,4.42-4.42,8.56-9.22,8.41c-4.59-0.14-8.36-3.59-8.23-7.53
			C317.49,229.96,321.72,226.4,326.6,226.44z"/>
		<path class="st1" d="M130.45,236.4c1.11-0.94,1.9-2.34,3.58-2.46l-0.08-0.12c0.25,2.11-1.64,2.36-2.82,3.22
			C130.9,236.83,130.68,236.62,130.45,236.4z"/>
		<path class="st1" d="M141.45,229.5c-0.11-0.39-0.23-0.79-0.34-1.18c0.15-0.04,0.31-0.09,0.46-0.13c-0.06,0.4-0.12,0.79-0.18,1.19
			L141.45,229.5z"/>
		<polygon class="st1" points="143.13,227.35 143.5,227.22 143.48,227.54 		"/>
		<path class="st1" d="M138.04,230.95c0.26-0.27,0.51-0.54,0.77-0.8c0.08,0.14,0.16,0.27,0.24,0.41c-0.37,0.1-0.75,0.2-1.12,0.31
			L138.04,230.95z"/>
		<path class="st1" d="M137.93,230.87c0.49,0.88-0.24,1-0.78,1.25l0.1,0.15c-0.89-1.14-0.03-1.21,0.79-1.31
			C138.04,230.95,137.93,230.87,137.93,230.87z"/>
		<path class="st1" d="M137.15,232.11c-0.35,0.13-0.69,0.27-1.04,0.4c-0.01-0.16-0.02-0.32-0.04-0.48c0.39,0.07,0.77,0.13,1.17,0.21
			C137.25,232.26,137.15,232.11,137.15,232.11z"/>
		<path class="st1" d="M134.03,233.95c0.27-0.22,0.54-0.45,0.81-0.67c0.04,0.15,0.15,0.34,0.1,0.45c-0.26,0.5-0.61,0.5-0.99,0.1
			C133.95,233.82,134.03,233.95,134.03,233.95z"/>
		<path class="st1" d="M141.39,229.38c-0.39,0.03-0.79,0.07-1.18,0.1c0.03-0.15,0.05-0.31,0.08-0.46c0.38,0.15,0.76,0.3,1.15,0.46
			C141.45,229.5,141.39,229.38,141.39,229.38z"/>
		<path class="st1" d="M622.84,271.2c-0.51-0.48-1.02-0.97-1.52-1.45c-10.64-15.5-14.51-32.83-13.29-51.34
			c0.39-5.87,1.9-12.32,8.37-14.11c6.64-1.84,10.91,3.46,14.11,8.23c10.78,16.08,15,33.78,11.77,53.06
			c-0.34,2.02-1.1,3.81-2.08,5.55c-3.47,6.13-8.38,7.19-14.01,3C625.01,273.25,623.96,272.18,622.84,271.2z M623.73,211.16
			c0.49-0.22,0.67-0.55,0.31-1.01c-0.07-0.08-0.38-0.1-0.45-0.03c-0.42,0.45-0.09,0.72,0.27,0.97
			c11.35,15.32,15.84,32.6,14.76,51.48c3.04-18.8-0.58-35.95-12.67-50.99C625.47,210.97,624.7,209.88,623.73,211.16z M615.79,241.88
			c-0.39-1.97-0.27-4.58-3.17-4.67c-1.96-0.06-2.9,1.84-2.61,3.5c0.34,1.95,0.61,4.56,3.28,4.81
			C615.66,245.74,615.41,243.51,615.79,241.88z"/>
		<path class="st1" d="M92.99,278.01c-0.88,4.15,3.4,9.61-3.37,13.55C91.45,286.48,93.79,282.58,92.99,278.01z"/>
		<path class="st2" d="M479.92,150.96c-0.05,3.95-5.69,9.38-10.53,10.88c-4.83,1.5-9.92,2.04-14.52,4.56
			c-2.6,1.43-3.34,2.54-2.38,5.31c0.87,2.49,1.65,5.48,0.07,7.72c-2.16,3.06-5.1,4.4-8.97,1.9c-4.88-3.15-6.46-5.89-4.35-9.51
			c1.19-2.04,1.79-4.16,0.57-6.08c-2.04-3.2-1.82-6.67-1.85-10.12c-0.07-7.33,1.86-9.72,8.64-12.57c7.7-3.25,15.77-3.52,23.86-3.48
			C476.29,139.59,480,144.36,479.92,150.96z"/>
		<path class="st0" d="M428.67,135.82c1.45-17.47,36.22-40.45,56.72-37.89c8.37,18.99,18.05,37.39,23.49,57.46
			c-0.41,0.17-0.83,0.34-1.24,0.51c-2.5-6.18-5.02-12.35-7.5-18.53c-4.4-10.96-9.29-21.68-14.8-32.14c-1.84-3.5-3.97-5.1-7.96-3.62
			c-2.48,0.92-5.09,1.63-7.7,2.07c-11.85,1.98-20.76,8.36-27.69,17.95c-2.82,3.91-6.01,7.55-9.06,11.29
			C431.91,134.17,431.03,135.67,428.67,135.82z"/>
		<path class="st0" d="M500.66,101.01c9.38,17.2,17.36,34.08,24.8,51.25c-2.84,0.86-2.89,0.88-4.1-1.74
			c-4.57-9.96-9-19.98-13.7-29.88c-3.76-7.93-7.16-16.08-13.03-22.96c12.54-3.73,54.09,9.43,55.24,17.75
			C534.63,107.53,519.24,100.93,500.66,101.01z"/>
		<path class="st0" d="M425.15,139.75c1.89,3.34,0.32,4.96-0.54,6.66c-3.16,6.21-6.37,12.38-9.59,18.56
			c-1.62,3.11-1.57,5.73,2.27,7.47c-2.4,2.02-4.94,1.49-8.81,1.16C412.53,161.46,419.79,151.54,425.15,139.75z"/>
		<path class="st0" d="M554.93,117.21c9.86,6.17,22.53,24.01,20.16,28.09C570.41,134.3,562.7,125.79,554.93,117.21z"/>
		<path class="st0" d="M427.14,313.03c1.31-6.8,3.54-13.42,3.44-20.5c-0.27-19.4-6.18-36.86-17.62-52.48
			c0.21-0.2,0.4-0.41,0.59-0.63c8.27,7.13,12.25,16.84,15.48,26.79c4.36,13.4,5,27.08,1.21,40.81c-0.62,2.23-1.46,4.29-3.19,5.9
			L427.14,313.03z"/>
		<path class="st0" d="M423.07,285.91c-1.09-2.09-1.64-3.13-2.19-4.18c0.1-0.05,0.19-0.09,0.29-0.14
			C421.65,282.67,422.12,283.76,423.07,285.91z"/>
		<path class="st0" d="M419.11,296.54c0.12,0.25,0.24,0.5,0.36,0.76c-0.05-0.24-0.1-0.47-0.14-0.71L419.11,296.54z"/>
		<path class="st0" d="M427.05,312.92c-0.2,0.27-0.41,0.53-0.61,0.8c-0.07-0.14-0.21-0.29-0.19-0.4c0.14-0.53,0.45-0.61,0.89-0.29
			C427.14,313.03,427.05,312.92,427.05,312.92z"/>
		<path class="st0" d="M412.95,240.05c-0.3-0.27-0.89-0.73-0.85-0.78c0.54-0.81,0.99-0.23,1.44,0.15
			C413.35,239.64,413.15,239.85,412.95,240.05z"/>
		<path class="st0" d="M419.32,296.59c-0.09,0.06-0.19,0.11-0.28,0.17c0.03-0.07,0.06-0.14,0.07-0.21
			C419.11,296.54,419.32,296.59,419.32,296.59z"/>
		<path class="st0" d="M623.7,211.18c1-1.3,1.77-0.21,2.26,0.4c12.09,15.04,15.71,32.19,12.67,50.99
			c1.08-18.88-3.42-36.15-14.76-51.48L623.7,211.18z"/>
		<path class="st0" d="M615.79,241.88c-0.38,1.63-0.13,3.86-2.49,3.64c-2.67-0.25-2.95-2.86-3.28-4.81
			c-0.29-1.66,0.65-3.56,2.61-3.5C615.52,237.3,615.4,239.91,615.79,241.88z"/>
		<path class="st0" d="M623.87,211.09c-0.36-0.25-0.69-0.52-0.27-0.97c0.07-0.07,0.38-0.05,0.45,0.03c0.36,0.46,0.18,0.79-0.32,1.01
			C623.7,211.18,623.87,211.09,623.87,211.09z"/>
	</g>
</g>
</svg>
