<?xml version="1.0" encoding="UTF-8"?>
<svg id="Layer_1" data-name="Layer 1" xmlns="http://www.w3.org/2000/svg" viewBox="0 0 1113 981">
  <defs>
    <style>
      .cls-1 {
        fill: #020202;
      }

      .cls-1, .cls-2, .cls-3 {
        stroke-width: 0px;
      }

      .cls-2 {
        fill: #f6f6f6;
      }

      .cls-3 {
        fill: #f80304;
      }
    </style>
  </defs>
  <path class="cls-2" d="m0,981V0h1113v981H0ZM838.16,365.03c.47-.43.95-.86,1.42-1.28.2-.31.41-.63.61-.94,1.67-3.25,4.52-4.41,7.98-4.95,4.26-.67,8.46-1.77,12.69-2.65,5.35-1.12,12.31-.39,15.56-3.98,3.21-3.54,3.04-10.21,4.18-15.55,10.18-47.73,17.06-95.92,20.78-144.58.33-4.32-1.09-6.26-4.45-8.11-33.98-18.71-69.22-34.6-105.66-47.86-74.53-27.13-151.38-43.34-230.56-47.83-37.62-2.14-75.27-1.44-112.85,2.33-53.47,5.36-105.67,16.42-156.63,33.37-47.26,15.73-92.38,36.27-135.71,60.78-2.95,1.67-3.67,3.25-3.02,6.65,3.65,19.1,6.81,38.29,10.43,57.4,13.35,70.57,30.55,140.15,54.19,208.04,3.63,10.42,7.63,20.72,11.48,31.13,7.73-1.63,14.88-3.14,22.03-4.63,1.93-.4,3.78-.9,5.83-.01,4.25,1.83,8.72,1.33,13.24,1.07,10.14-.6,19.13-5.7,29.01-7.03,6.1-.82,12.35-2.71,18.77.61-2.67,1.7-5.12,3.02-7.29,4.7-2.66,2.05-5.46,4.38-3.47,8.31,1.88,3.71,5.27,3.48,8.71,2.75,57.56-12.19,115.11-24.37,172.67-36.55,19.29-4.08,38.59-8.17,57.89-12.25.05.22.1.45.16.67-123.73,32.23-247.43,64.46-371.37,96.76-2.93-13.9-5.72-27.17-8.57-40.75-7.12,1.53-13.68,2.93-20.28,4.35,0,19.07,0,37.57,0,56.06.03,61.17.07,122.34.11,183.51-5.68,3.59-12.59,3.6-19.29,6.55,1.39-.15,2.04-.16,2.67-.29,26.68-5.56,53.36-11.16,80.05-16.68,34.28-7.09,68.58-14.07,102.86-21.17,13.34-2.76,26.65-5.67,39.94-8.65,3.44-.77,5.73.07,8.26,2.68,18.94,19.63,39.2,37.77,61.69,53.31,31.01,21.43,64.39,37.96,100.52,48.87,1.45.44,2.7.8,4.31.29,22.32-7.1,44.11-15.6,64.9-26.38,37.19-19.29,70.99-43.4,101.18-72.53,9.34-9.01,18.21-18.43,26.93-28.04,16.11-17.76,30.39-36.93,44.14-56.53,2.93-4.18,4.99-8.9,11.52-10.05,20.63-3.63,41.11-8.11,61.62-12.36,35.01-7.25,70-14.55,104.98-21.96,1.66-.35,4.3.36,4.75-2.55,11.05-2.27,22.1-4.54,33.21-6.82v-240.79c-48.2,12.58-95.99,25.05-144.43,37.69,1.13-1.91,1.78-3.01,2.44-4.12h-.13Zm-455.68,491.17c-3.72-7.52-7.06-14.13-10.28-20.81-3.49-7.25-3.44-7.27-12.58-5.6,7.53,15.25,15,30.39,22.72,46.01,4.48-8.76,8.54-16.7,12.99-25.41,5.78,8.21,8.29,17.1,13.55,25.23,7.67-15.53,15.13-30.64,22.65-45.86q-9.26-1.52-12.86,6c-2.29,4.79-4.48,9.63-6.84,14.38-.83,1.68-1.14,3.87-3.82,4.7-4.06-8.21-8.12-16.42-12.51-25.29-4.42,9.06-8.48,17.37-13.02,26.65Zm-129.67-37.43c3.94-.25,4.61,1.82,4.57,5.24-.17,13.32-.13,26.64.05,39.96.05,3.89-.74,7.88.48,11.76,2.88.21,5.5.64,8.42-.44,0-9.61.11-19.24-.06-28.87-.06-3.45,1.12-5.48,4.28-7,9.96-4.8,21.05,2.11,21.43,13.72.24,7.44.05,14.89.05,22.58,3.29.23,6.01.62,8.82-.34,0-8.52.53-16.86-.12-25.11-1.09-13.81-14.55-23.46-28.11-20.85-1.87.36-3.74,1.4-6.24.18v-19.2h-13.25c-.9,2.73-.74,5.19-.32,8.37Zm561.22,50.82c-5.14-3.18-6.78-7.39-6.27-12.93.44-4.79-.02-9.65.1-14.48.06-2.33-.59-4.21-2.17-5.87-8.13-8.51-22.39-9.43-31.98-2.5-9.89,7.15-13.09,21.68-5.94,32.31,6.43,9.55,19.41,13.78,30.31,8.2,4.23-2.16,7.44-3.45,10.29,1.65,2.02-2.27,3.65-4.11,5.66-6.38Zm-318.68,23.68c7.23-5.62,11.62-13,11.65-19.64.05-13.5.05-26.99.05-40.49,0-1.28.38-2.7-.93-3.81-2.52-.24-5.13-.59-8.03.53,0,9.8.02,19.61-.01,29.41-.01,4.47-3.54,8.26-8.01,8.74-10.24,1.1-17.79-5.61-17.86-15.95-.05-7.47-.01-14.95-.01-22.52-3.15-.51-5.87-.7-8.83.04,0,9.24-.41,18.23.12,27.16.49,8.1,8.56,17.28,17.62,19.36,5.36,1.23,10.45.21,15.88-.78.39,6.24-5.04,8.5-7.64,12.65,2.1,1.86,4.07,3.6,6,5.3Zm19.78-40.31c.04,13.72,10.51,23.91,24.51,23.84,13.26-.06,24.68-11.1,23.85-24.22-.8-12.52-9.67-23.51-24.66-23.53-13.23-.02-23.74,10.77-23.7,23.91Zm-183.85,23.84c13.44.11,24.3-10.4,24.41-23.64.11-13.01-10.97-24.1-24.15-24.17-13.38-.07-24.1,10.44-24.34,23.85-.24,13.15,10.52,23.86,24.08,23.96Zm238.93-47.27c0,7.89-.09,15.51.02,23.13.26,18.23,18.07,29.51,34.43,21.49,4.27-2.09,7.37-3.01,10.2,1.5,2.26-1.79,4.15-3.34,5.68-5.96-5.66-3.95-6.6-9.62-6.22-16.13.45-7.93.11-15.91.11-23.97-3.22-.64-5.95-.61-9.2-.16,0,10.15.04,20.09-.03,30.02-.01,1.7.62,3.54-1.29,4.98-3.79,2.86-7.72,4.41-12.54,3.07-7.26-2.02-11.67-7.5-11.78-15.25-.12-7.6-.03-15.2-.03-22.7-3.28-.67-5.91-.56-9.35-.02Zm321.35,34.83c-4.79,4.15-10.04,4.8-14.64,2.13-6.38-3.69-7.1-3.51-11.27,2.82,11.98,12.64,33.49,8.67,39.31-7.46-9.19-6.81-18.43-13.66-27.9-20.69,6.93-4.93,13.86-4.07,19.78,1.78,2.54-1.5,5.27-2.74,7.24-5.06-10.93-13.04-29.04-10.89-38.04.65-2.39,3.06-2.3,4.76.96,7.11,8.29,6.02,16.32,12.41,24.56,18.72Zm-644.3-26.59c-10.8-11.86-28.48-11.53-37.8.4-2.01,2.58-3.24,4.85.48,7.34,4.82,3.23,9.4,6.85,13.92,10.5,3.53,2.85,7.68,5.01,10.53,8.75-6.27,4.85-9.74,4.51-19.76-1.9-2.04,1.93-4.14,3.94-6.24,5.93,10.88,12.03,30.85,9.86,38.65-3.72,1.36-2.36.72-3.51-1.18-4.88-5.52-3.99-11.12-7.9-16.37-12.22-2.99-2.46-7.38-3.56-8.94-8.02,7.58-3.96,13.97-1.85,19.83,2.81,2.58-1.44,4.83-2.79,6.88-4.99Zm570.75,5.36c6.69,5.13,13.48,10.25,20.17,15.51,2.34,1.84,6.43,3.45,4.84,7.05-1.4,3.18-5.49,2.16-8.59,2.31-1.61.08-2.96-.61-4.16-1.36-5.89-3.69-6.55-3.57-10.56,2.68,8.81,10.64,30.04,11.42,39.06-7.02-8.44-7.96-18.88-13.48-27.62-21.57,5.64-3.9,10.71-3.51,15.77-.88,5.83,3.03,6.47,2.94,11.06-2.39-12.13-13.27-34.24-10.25-39.97,5.67Zm-79.91,25.99c-3.21-1.6-3.78-7.66-9.24-3.79-6.31,4.47-14.62,3.15-19.7-2.76-4.74-5.51-4.49-14.02.57-19.58,5.95-6.53,12.64-6.8,21.89-.82,1.23-1.04,2.45-2.17,3.76-3.17,2.8-2.14,1.67-4.22-.51-5.53-6.55-3.93-13.53-5.75-21.22-3.53-9.28,2.68-16.58,11.44-17.25,21.04-.72,10.21,5.16,19.86,14.59,23.96,9.04,3.93,20.38,1.69,27.11-5.82Zm-71.03-33.99c-6.63-6.52-17.32-7.92-26.33-3.83-1.84.84-3.71,3.06-5.87,1.36-5.17-4.08-6.96-.24-9.49,3.68,6.63,3.57,6.73,9.49,6.38,15.64-.15,2.66-.03,5.33-.03,8v15.9c3.55-.03,6.33.55,9.39-.53,0-9.73.2-19.38-.09-29.02-.13-4.1,1.75-6.17,5.12-7.53,5.67-2.28,10.71-.52,15.66,2.91,1.77-2.21,3.41-4.26,5.26-6.58Zm80.24,40.47c3.3.49,6.03.59,8.95-.04v-65.17h-13.39c-.08,2.97-1.7,7.28.72,7.98,5.08,1.45,3.65,4.85,3.67,7.77.12,16.31.05,32.63.05,49.46Z"/>
  <path class="cls-1" d="m146.03,744.57c-.04-61.17-.08-122.34-.11-183.51,0-18.49,0-36.99,0-56.06,6.61-1.42,13.16-2.82,20.28-4.35,2.86,13.58,5.65,26.84,8.57,40.75,123.94-32.3,247.65-64.53,371.36-96.76-.05-.22-.1-.45-.16-.67-19.3,4.08-38.59,8.16-57.89,12.25-57.56,12.18-115.11,24.37-172.67,36.55-3.45.73-6.83.96-8.71-2.75-1.99-3.93.81-6.26,3.47-8.31,2.17-1.67,4.62-3,7.29-4.7-6.41-3.31-12.67-1.43-18.77-.61-9.89,1.33-18.88,6.44-29.01,7.03-4.52.27-8.99.77-13.24-1.07-2.05-.88-3.9-.39-5.83.01-7.15,1.48-14.3,3-22.03,4.63-3.85-10.41-7.85-20.71-11.48-31.13-23.62-67.89-40.83-137.46-54.17-208.03-3.61-19.11-6.78-38.3-10.43-57.4-.65-3.4.07-4.98,3.02-6.65,43.33-24.52,88.45-45.06,135.71-60.79,50.96-16.95,103.16-28.01,156.63-33.38,37.59-3.77,75.23-4.46,112.85-2.33,79.18,4.5,156.03,20.71,230.56,47.83,36.44,13.26,71.68,29.16,105.66,47.86,3.36,1.85,4.78,3.79,4.45,8.11-3.72,48.66-10.6,96.86-20.78,144.58-1.14,5.33-.97,12-4.18,15.55-3.25,3.59-10.21,2.86-15.56,3.98-4.23.88-8.42,1.98-12.69,2.65-3.46.54-6.31,1.7-7.98,4.95.29-11.57-.39-23.06-1.87-34.56-.78-5.99-2.57-11.77-3.17-17.72-.72-7.21-3.92-14.03-3.14-21.44,3.85,11.84,6.08,24.08,8.5,36.28,6.59-33.24,10.69-66.71,13.61-100.35.4-4.58-.92-7.07-5.02-9.29-21.18-11.49-42.88-21.86-65.16-31.04-55.54-22.88-113.1-38.36-172.55-46.6-41.16-5.71-82.55-7.58-124.12-5.38-34.82,1.85-69.24,6.5-103.27,13.87-53.64,11.62-104.73,30.51-153.6,55.43-10.61,5.41-21,11.28-31.28,16.83,15.5,97.7,38.77,185.72,54.8,228.44,0-2.5.11-4.24-.02-5.96-1.35-18.29-.81-36.27,3.82-54.31,3.13-12.2,7.11-23.01,17.67-30.61,8.91-6.42,17.58-13.18,26.42-19.71.85-.63,1.78-2.11,3.25-.84-2.63,3.92-7.4,5.71-10.52,10.7,4.22-1.94,7.56-3.49,10.77-4.96,1.47,1.1-1.09,2.5.85,3.62,3.49-2.2,4.73-6.65,8.28-8.79.22.22.45.43.67.64.04.94-1.36,1.54-.53,2.78,1.95.27,3.27-1.23,4.75-2.06,10.47-5.82,21.02-11.41,32.62-14.72,24.11-6.87,48.36-13.24,72.69-19.29,9.68-2.41,19.34-4.93,29.01-7.4-1.49-.62-2.82-.56-4.1-.3-25.2,5.12-50.38,10.27-75.58,15.39-22.13,4.5-44.38,8.62-63.53,21.8-.59.4-1.18.53-1.52-.33,1.76-2.55,4.57-3.76,7.2-4.85,12.53-5.2,22.66-13.74,32.63-22.61,14.69-13.05,29.47-25.98,44.86-38.23,23-18.3,47.28-34.04,75.09-44.38,50.83-18.91,103.09-31.87,156.6-40.15,4.15-.64,6.84-.38,7.62,4.35,4.39-.48,8.56-.71,12.63-1.42,23.74-4.15,46.76-.56,69.3,6.83,13.24,4.34,24.5,12.58,36.27,19.77,1.38.84,2.56,2.29,4.45,1.89,9.05-1.91,18.46-2.14,27.12-5.84,4.27-1.83,7.87-1.5,11.1,2.43,4.27,5.19,7.56,10.92,10.65,16.82,2.89,5.53,3.85,10.9-1.67,16.08,12.33,3.88,19.06,12.48,23.08,23.71,2.36,6.59,4.26,13.3,5.96,20.08-3.18.98-2.87-2.39-4.36-3.51-.2.71.04,1.8-1.55,1.42.16-4.13-1.77-7.89-2.5-11.86-2.41-13.26-9.18-22.66-22.05-27.48-10.17-3.81-19.12-9.96-28.26-15.66-19-11.86-36.21-26.61-57.62-34.58-10.12-3.77-20.44-6.84-31.03-7.66-16.16-1.25-32.35-1.59-48.33,3.3-11.47,3.51-20.83,9.7-28.31,18.56-9.78,11.59-17.2,24.86-24.61,38.02-3.51,6.24-7.47,11.86-13.01,16.39-1.52,1.24-2.77,2.77-4.97,2.62-.18-.83-.2-1.47.68-2.11,5.2-3.76,9.09-8.72,12.49-14.07,6.95-10.94,13.83-21.92,20.7-32.91.52-.83,1.7-1.7.2-3.07-9.65,10.39-19.4,20.6-29.46,30.51-11.97,11.8-25.54,20.07-42.29,23.93-32.17,7.41-64.54,14.01-96.42,22.64-9.52,2.58-19.09,4.96-28.64,7.43.09.4.18.8.26,1.21,7.03-1.34,14.08-2.59,21.09-4.04,34.83-7.19,69.79-13.57,105.12-17.79,9.04-1.08,18.25-1.61,26.48-6.29,2.42-1.38,4.51-3.5,7.51-3.74-2.36,4.94-7.46,6.35-11.74,8.41-12.31,5.92-24.99,11.08-37.31,16.98-5.28,2.53-11.07,4.56-15.62,9.63,6.81.91,12.23-1.99,17.9-3.24,6.17-1.36,12.18-4.06,19.08-.4-8.38,6.7-17.83,10.61-26.53,16.82,2.79.59,4.49-.76,6.28-1.25,8.53-2.35,17.03-4.85,25.46-7.55,2.97-.95,4.92.84,6.74,2.16,1.92,1.4,1.02,3.71.24,5.87-2.5,6.95-8.55,11.96-10.23,19.31-1.75.21-3.4.4-5.05.59-.54-.89-.04-1.47.53-2.15,4.39-5.25,7.86-11.08,10.74-17.27.69-1.5,1.78-3.1.52-4.65-1.37-1.69-3.38-1.13-5.1-.67-1.92.51-3.78,1.28-4.76,3.28-3.14,6.45-6.12,13.15-6.85,20.17-.59,5.7-4.38,5.54-7.65,7.03,5.05-6.41,7.37-13.85,9.11-21.51,1.03-4.54.14-5.36-4.72-4.9,2.09,5.03-1.31,8.85-2.73,14.32-3.98-7.21-8.78-10.31-16.4-8.76-14.31,2.91-23.13,11.37-27.38,25.06-.94,3-.37,5.12,2.85,6.32,3.15,1.17,6.4,1.71,9.68,2.2.67.32,1.34.64,2.12,1.01-5.64,2.34-11.28,2.68-17.11,1.8-3.98-.6-8.09-.4-11.79,1.1-7.51,3.05-15.46,4.51-23.12,6.98-1.83.59-4.33,1.35-5.63-.41-1.52-2.08-.34-4.47.99-6.5,2.71-4.13,5.58-8.17,8.04-12.44.71-1.23,2.93-2.69,1.05-4.61-1.55-.34-1.7.96-2.28,1.65-8.31,9.99-16.35,20.15-28.22,26.5-10.28,5.5-21.12,9.65-31.77,14.22-7.15,3.06-14.94,4.65-22.06,7.77-5.6,2.45-11.47,3.59-17.23,4.13-15.28,1.42-30.5-.85-45.62-2.91-3.41-.47-6.7-2.53-7.55-7.3-.66-3.66-1.45-7.55-2.85-11.46-1.88,1.72-1.11,3.43-1.15,4.97-.13,4.85,2.42,9.23,2.33,14.18-.05,2.89-.89,4.9-3.42,4.37-9.5-2-18.27,4.66-28.26,1.7-.66,10.29-.5,20.31-.16,30.6,5.47.1,10.33-.27,15.29-1.09,6.66-1.11,13.24-3.23,20.13-2.69,2,.16,4.16.09,4.01,3.13-1.64.84-3.18,1.94-4.89,2.41-1.88.51-3.06,1.09-2.39,3.27-.75.18-1.5.35-2.81.66,2.98,2.84,4.53,5.55,2.72,9.4-1.01,2.13,1.33,1.54,2.44,1.78.26,1.93-2.5.78-2.51,2.28.84,4.7,5.31,5.31,8.3,7.93-13,1.72-25.41-.41-37.7-4-.68,1.12-.22,2.11.1,3.28,1.46,5.18,2.34,10.37-.25,15.56-.63,1.26-.51,2.92-.65,4.4-.25,2.71.91,4.11,3.75,3.8,6.7-.74,13.44-1.26,19.93-3.22,6.75-2.04,13.5-4.25,20.54-4.85,10.19-.86,20.13-3.49,29.99-5.61,12.05-2.59,24.32-3.52,36.32-6.3,12.41-2.87,25.24-3.94,37.69-6.67,14.98-3.28,29.95-5.72,45.33-5.37,5.96.14,11.85-.21,17.83-1.41,5.6-1.13,11.21-2.78,16.83-3.31,12.75-1.2,25.04-4.66,37.63-6.61,13.52-2.09,26.76-5.97,40.44-7.21,3.29-.3,4.46-1.78,4.28-4.75-.29-4.82-.04-9.79-1.19-14.4-.84-3.39.05-7.97-2.87-10-3.03-2.1-3.06-3.96-2.38-6.85,1.07-4.48-1.15-6.59-5.37-5.06-6.14,2.22-12.11,4.97-18.34,6.85-3.17.96-6.26,3.57-10.69,1.85,1.18-.55,1.74-.83,2.31-1.06,7.69-3.15,15.38-6.3,23.08-9.42,2.55-1.03,5.07-2.22,4.8-5.5-.76-9.32,1.56-18.33,2.98-27.36,1.66-10.57,3.7-21.06,13.91-28.09,7.19-4.95,14.09-7.21,22.43-4.91,9.29,2.57,14.64,9.47,19.49,17.21,4.93,7.89,7.01,16.93,10.74,25.29,1.39,3.13,2.89,7.09,2.84,10.66-.06,5.22.67,10.32,1.35,15.38.85,6.27-.49,13.02,3.23,18.98,8.98-.16,17.22-3.45,25.79-4.96,11.22-1.97,22.44-4.35,33.36-7.57,6.46-1.9,13.08-1.62,19.52-3.4,11.79-3.27,23.76-5.93,35.76-8.33,11.82-2.36,23.76-4.1,35.65-6.09,2.18-.37,3.13-1.69,3.17-3.81.05-2.33-.33-4.58-.85-6.88-1.51-6.61-3.85-13.08-3.39-20.06.19-2.88,1.08-5.5,1.81-8.23.7-2.63-.88-4.48-3.16-5.37-1.34-.52-2.6.3-2.84,1.97-.92,6.3-2.63,12.47-5.1,18.25-2.32,5.44-4.99,10.95-12.24,12.27-12.29,2.23-24.37,5.68-36.7,7.56-12.25,1.87-24.37,4.47-36.45,6.95-14.34,2.94-28.93,4.97-43,9.31-3.85,1.19-7.22.47-7.75-4.78-.19-1.84-1.4-3.82-1.77-5.55-.75-3.58-.23-7.44-.23-11.18.33.01.66.02,1,.04,1.38,6.45,2.76,12.9,4.24,19.8,4.85-3.16,9.45-1.56,13.5-2.91,9.9-3.3,20.18-4.98,30.32-7.21,8.47-1.86,17.17-2.68,25.63-4.58,13-2.91,25.82-6.58,39.15-7.97,3.38-.35,6.82-1.36,10.11-2.28,2.6-.73,5.71-1.32,7.45-4.38,3.43-6.04,5.2-12.84,9.09-18.67,2.16-3.24.83-5.22-3.04-5.03-1.89.09-3.41.1-3.77-2.2,1.74-1.19,3.42.99,4.91-.37-.29-.9-1.06-1.99-.79-2.66,2.41-5.9,3.11-12.22,4.8-18.27.71-2.52.21-5.81,2.95-7.65l-.08-.08c.48,7.92.65,15.78-3.5,23.01-.5.87-.54,2.1.48,2.68,1.07.61,2.26.57,3-.74.64-1.13,1.57-2.03,1.81-3.47,1.5-9.01,4.07-17.61,8.94-25.51,2.18-3.53,4.6-5.98,8.82-6.03,5.59-.07,12.07,2.91,13.76,6.22,2.99,5.84,7.51,10.58,10.27,16.53,3.49,7.54,6.59,15.13,8.41,23.2,1.57,6.96,2.7,14.02,2.16,21.21-.14,1.87.94,2.95,2.07,4.09-.65,1.11-1.31,2.21-2.44,4.12,48.44-12.64,96.23-25.11,144.43-37.69v240.79c-11.1,2.28-22.15,4.55-33.2,6.82-3.27-15.04-6.54-30.08-9.84-45.24-1.7.08-3.08-.11-4.32.23-10.56,2.87-21.08,5.88-31.64,8.75-13.78,3.75-27.54,7.57-41.38,11.07-8.93,2.26-17.93,4.39-26.76,6.88-10.53,2.97-21.08,6.05-31.64,8.92-12.84,3.49-25.94,6.23-38.68,9.89-22.27,6.4-44.75,11.95-67.03,18.28-12.8,3.63-25.86,6.39-38.59,10.23-12.9,3.89-26,6.89-39.01,10.29-8.45,2.21-17.02,4.21-25.27,6.82-10.57,3.35-21.41,5.49-31.99,8.71-9.09,2.77-18.39,4.89-27.57,7.35-8.26,2.22-16.49,4.58-24.76,6.77-10.78,2.85-21.81,4.97-32.34,8.55-13.14,4.48-26.69,7.35-40.03,10.94-16.48,4.44-32.94,8.99-49.45,13.36-11.51,3.05-22.97,6.29-34.55,9.06-11.22,2.68-22.23,6.09-33.34,9.14-9.17,2.52-18.27,5.49-27.48,7.56-11.22,2.52-22.18,5.81-33.22,8.85-12.29,3.38-24.56,7.04-36.94,9.81-17.91,4.01-35.25,9.94-53.09,14.01-7.36,1.68-14.33,5.12-22.08,5.24Zm659.98-372.53c3.43,4.79,8,7.88,13.93,6.61,5.62-1.2,8.03-5.95,9.36-11.21,3.75-14.85.85-29-4.64-42.82-3.22-8.12-7.54-15.64-14.86-20.76-6.88-4.82-16.61-1.58-18.3,6.43-4.62,21.91-.74,42.18,13.03,60.22.49.5.98,1.02,1.48,1.53Zm-362.92-132.18c-4.45,2.21-9.38,3.13-13.81,5.59-9.63,5.34-18.33,11.99-27.1,18.54-12.35,9.23-24.47,18.76-35.28,29.82-.27.27-.82.71-.78.79.51.8.94.21,1.37-.15,15.05-8.48,29.91-17.32,45.19-25.37,34.27-18.05,70.14-32.51,106.32-46.22,5.25-1.99,10.44-4.13,15.65-6.2-.11-.32-.22-.64-.33-.95-7.44,1.42-14.88,2.84-22.32,4.26.49-1.97,2.13-1.71,3.59-1.93,7.82-1.17,15.49-3.21,23.19-4.89,9.8-2.14,19.73-3.4,29.57-4.97,13.98-2.23,27.89-4.82,41.84-7.23,4.11-.71,6.91-3.67,9.72-6.86-62.18,7.79-122.58,22.45-181.42,45,1.71,1.02,3.18.71,4.6.77Zm402.7,237.66c12.1-3.07,23.46-6.17,34.94-8.75,3.95-.89,4.85-3.02,4.89-6.44.11-10.32.26-20.64.49-30.97.03-1.13-.78-2.61.68-3.46,7.29,10.89,16.4,20.21,24.51,30.32.88,1.09,1.77,2.04,3.32,1.65,11.5-2.94,23-5.91,34.65-8.9.75-30.24,1.5-60.03,2.25-90.32-13.64,3.52-26.44,6.83-40.07,10.35v36.85c-7.12-10.22-13.36-19.19-19.62-28.13-1.11-1.59-2.02-3.34-4.66-2.63-12.93,3.46-25.9,6.79-39.07,10.22-.78,29.95-1.53,59.66-2.31,90.21Zm-502.84,132.97v-27.27c2.85,3.69,4.97,6.54,7.21,9.31,3.55,4.39,6.38,10.55,11,12.57,4.89,2.14,11.03-1.95,16.62-3.28,10.35-2.46,20.61-5.31,31.41-8.13-9.32-10.28-18.11-19.98-26.73-29.49.27-.66.29-.87.39-.91,1.04-.5,2.11-.97,3.15-1.47,13.13-6.19,20.49-16.33,21.71-30.96.94-11.28-4.24-19.87-13.15-20.77-3.63-.37-7.31-.35-10.92.58-8.34,2.16-16.71,4.21-25.05,6.35-18.43,4.73-36.86,9.5-55.36,14.27-.78,30.13-1.55,59.94-2.33,90.27,13.36-3.39,25.89-6.56,38.41-9.76,1.11-.29,2.17-.78,3.64-1.31Zm183-94.13c0-1.66.06-3.33-.01-4.99-.76-19.38-11.18-29.76-30.55-29.8-14.12-.03-27.55,3.72-40.55,9.04-26.85,10.98-39.94,30.69-39.21,59.67.6,23.77,12.31,33.72,35.04,32.26,12.49-.8,24.5-4.23,36.09-8.95,25.87-10.54,39.22-30.07,39.19-57.23Zm270.43-25.13c14.29-3.7,28.11-7.27,42.15-10.91-8.1-28.34-15.97-55.84-23.89-83.55-20.7,5.32-40.91,10.56-61.17,15.65-2.34.59-2.99,1.83-3.6,3.94-7.42,25.48-15.08,50.89-22.42,76.4-1.6,5.57-3.88,11.04-4.55,17.33,12.6-3.22,24.59-6.43,36.68-9.27,3.67-.86,5.68-2.37,6.53-6.2.57-2.56.23-6.37,3.37-7.32,7.85-2.36,15.87-4.14,23.95-6.18,1.03,3.54,1.91,6.53,2.95,10.11Zm-609.95,70.81c-.77,30.21-1.53,59.94-2.3,90.31,14.08-3.61,27.8-7.14,41.95-10.77,0-5.38-.06-10.69.02-16,.04-2.67.83-4.38,4.15-4.98,6.35-1.16,12.55-3.11,18.81-4.74,23.98-6.24,38.57-21.59,41.36-44.74,2.09-17.37-4.6-32.6-28.09-28.15-15.79,2.99-31.17,7.7-46.75,11.59-9.77,2.43-19.51,5-29.15,7.48Zm442.33-114.19c-12.68,1.07-24.99,2.69-37.1,5.71-8.56,2.13-16.84,5.01-24.63,9.14-22.99,12.2-32.91,31.55-32.07,57.31.7,21.72,13.57,33.17,35.12,31.19,19.56-1.79,37.29-8.84,54.8-16.95,1.28-.59,2.26-.97,2.25-2.7-.07-9.68-.04-19.36-.04-29.01-5.34,2.25-10.88,4.88-16.62,6.93-7.62,2.72-15.22,5.83-23.53,5.68-6.94-.12-10.29-4.51-8.67-11.27,1.28-5.36,4.71-9.06,9.43-11.65,6.2-3.39,12.93-5.21,19.84-6.34,6.97-1.14,13.99-2.03,21.23-3.07,0-11.76,0-23.05,0-34.97Zm-213.11,211.72c.81,0,1.69.22,2.4-.03,7.01-2.48,14.36-3.75,21.46-6.02,4-1.28,4.75-2.75,4.65-6.35-.21-7.36-.06-14.72-.06-22.09,3.46,5.46,5.87,11.05,8.18,16.69,3.33,8.15,3.3,8.16,11.61,5.9,1.93-.53,3.83-1.34,5.79-1.49,3.12-.24,4.53-1.66,5.49-4.65,2.88-8.98,6.17-17.83,9.29-26.73,1.81,9.01-.22,17.93,1.46,27.19,8.09-2.03,15.73-4.24,23.51-5.79,4.1-.82,5.52-2.63,5.48-6.69-.14-15.5-.02-30.99-.07-46.49,0-1.56.52-3.34-1.23-4.91-11.25,2.89-22.58,6.08-34.05,8.61-4.65,1.03-5.96,3.93-7.07,7.73-2.3,7.92-4.76,15.78-7.49,24.76-3-7.75-5.92-14.23-7.99-20.98-1.44-4.68-3.91-4.79-7.81-3.71-9.29,2.57-18.57,5.34-28.02,7.11-5.15.96-6.41,3.14-6.33,7.9.23,14,.05,28,.1,42,0,2.64-.45,5.33.7,8.04Zm267.63-228.35c-12.84,3.28-25.67,6.63-38.54,9.77-2.46.6-2.58,1.93-2.62,3.93-.3,15.97-.68,31.95-1.06,47.92-.3,12.95-1.23,25.88-.81,39.2,25.39-6.54,50.5-13,76.08-19.59v-32.1c-11.08,2.82-22.21,5.66-33.05,8.42,0-19.36,0-38.27,0-57.55Zm98.84,131.84c10.57-2.61,20.45-5.03,30.32-7.5,2.15-.54,2.52-2.05,2.59-4.17.12-4.2-1.43-8.41-.23-13.27,4.43,3.89,8.4,7.32,12.3,10.84,1.6,1.44,3.06,1.98,5.37,1.33,6.55-1.84,13.37-2.82,19.76-5.05,4.35-1.52,9.67-.36,13.42-4.35-6.49-6.13-14.22-10.41-19.78-16.91,1-1.6,2.16-1.79,3.23-2.25,11.32-4.95,15.86-11.98,15.02-23.06-.34-4.51-3.7-8.36-8.09-8.71-4.47-.36-8.93-.36-13.36.96-6.04,1.81-12.18,3.33-18.3,4.87-13.66,3.44-27.34,6.81-41.69,10.37-1.12,18.88-.3,37.57-.56,56.9Zm-94.21-3.58c.14,11.54,3.46,17.61,10.85,20.15,5.44,1.87,11.01,2.56,16.72,1.68,11.85-1.84,23.49-4.51,34.4-9.62,11.91-5.58,21.24-13.7,23.67-27.36,2.83-15.91-3.55-28.91-21.81-28.05-18.07.85-35.39,5.33-50.29,16.17-9.07,6.59-14.17,15.71-13.54,27.03Zm-102.57.49c-14.49.51-28.16,4.47-40.96,10.97-13.77,7-22.02,17.91-21.45,34.21.36,10.42,6.52,18.59,16.78,19.19,19.23,1.12,36.69-3.86,52.96-13.72,12.32-7.46,17.42-18.6,16.4-32.75-.78-10.88-7.78-17.54-18.74-17.89-1.66-.05-3.33,0-4.99,0Zm356.04-85.2q0-8.7-8.52-7.31c-15.44,2.5-30.75,5.48-44.97,12.41-7.51,3.66-14.16,8.4-16.82,16.68-2.73,8.48-1.44,18.15,12.35,17.88,6.75-.13,13.06-2.3,19.68-2.8,2.53-.19,6.27-3.49,7.19.49.81,3.51-3.89,3.74-6.56,4.47-8.68,2.38-17.59,3.51-26.53,4.3-3.14.28-4.65,1.84-4.62,4.68.05,4-1.6,8.44,1.98,11.72.69.63,2.56.08,3.86-.09,2.96-.39,5.92-.84,8.87-1.34,13.76-2.34,27.33-5.39,39.85-11.85,7.11-3.67,13.19-8.67,15.87-16.44,3.46-10.05.24-18.95-12.3-18.09-7.05.48-13.74,2.29-20.54,3.8-2.03.45-4.84,1.56-5.72-.94-1-2.82,2.4-2.94,4.04-4.04.39-.26.96-.24,1.43-.4,7.9-2.65,16.07-4.03,24.31-5.09,7.15-.92,7.14-1,7.15-8.04Zm-309.34,128.2c10.3-2.54,19.96-4.92,29.61-7.32,2.49-.62,2.67-2.5,2.65-4.66-.07-8.33.14-16.67-.11-25-.12-3.96.52-6.1,5.2-6.35,3.7-.2,7.32-1.86,10.97-2.91,1.49-.43,2.8-1.08,3-2.91.74-6.6.48-13.14-.44-19.69-1.52,0-2.56-.21-3.49.03-21.27,5.44-42.52,10.93-63.77,16.43-1.11.29-2.53.55-2.53,2-.04,7.01-.74,14.07.51,21.28,6.36-1.49,11.85-3.92,18.41-3.8-.01,11.06-.01,21.66-.01,32.9Zm-6.9-211.52c-.13-13.46-3.48-27.26-10-40.24-4.37-8.69-9.64-16.74-18.62-21.55-6.17-3.3-12.06-2.33-16.47,3.12-3.41,4.22-5.28,9.2-6.04,14.53-2.6,18.4,1.19,35.77,9.23,52.23,4.03,8.24,9.12,15.92,17.31,20.85,8,4.81,15.15,2.86,19.72-5.25,3.99-7.04,4.83-14.71,4.87-23.69Zm-149.43-76c-2.94-1.07-4.18.29-5.53,1.11-5.24,3.22-10.55,6.34-15.62,9.81-7.47,5.11-15.3,9.13-24.1,11.62-34.74,9.81-70.24,16.01-105.6,22.93-11.39,2.23-22.83,4.22-34.25,6.32,13.66.93,26.9-1.67,40.16-3.9,37.83-6.35,75.02-15.77,112.53-23.63,2.36-.49,5.04-.93,7.16-3,7.7-7.5,14.98-15.55,25.25-21.26Zm1.3,23.09c-3.68-4.17-8.33-5-12.28-2.24-1.96,1.37-3.32,3.17-3.93,5.58-1.13,4.43,1.17,7.77,3.81,10.93-2.5,1.54-4.43.86-6.01-.38-3.76-2.96-4.02-7.05-1.98-12.24-7.52,5.37-8.43,9.39-4.04,13.43-7.66.81-7.92,1.01-8.08,6.64,12.17-1.02,23.46-7.43,36.64-5.01-1.7-2.3-3.6-1.95-4.97-2.69-.4-2.76-.76-5.31-4.47-5.62-2.1-.18-2.9-2.08-2.75-4.1.15-2.03,1.3-3.46,3.3-3.88,1.51-.31,3.09-.28,4.76-.42Zm-205.43,54.24c-4.4-.85-5.59,7.07-10.94,2.94,1.66,3.9,4.52,4.59,6.72,1.83,2.64-3.3,5.26-3.77,9.02-2.87,2.34.56,4.98.8,7.47-.19-.8-2.32-3.11-.7-4.04-2.76.99-2.51,3.52-5.06,1.96-8.61-1.27-2.89-.57-6.44-2.3-8.99-2.44-.09-1.76,2.09-2.92,2.69-2.75-2.58-5.42-1.8-6.27,2.26-.91,4.39-.68,8.87,1.3,13.7Zm-9.64-2.5c4.47,2.46,6.34,2.34,6.81-.85.92-6.26-.26-12.44-1.56-18.59-3.78,7.68-8.57,14.97-7.06,25.23,1.43-2.61.38-4.53,1.81-5.79Zm22.66-36.24c-4.53,1.84-8.57,4.52-11.99,7.94-1.79,1.79-1.28,3.62,1.63,4.11,2.55.43,5.08.99,7.93,1.56-1.29-1.84-3.49-2.16-4.01-4.38,1.39-3.45,5.28-5.18,6.44-9.23Zm338.96-167.38c-7.75-1.15-14.84,1.93-22.28,2.76,3.18.22,6.75-.99,9.35.1,5.34,2.26,8.93-.57,12.93-2.86Zm-355.08,247.3c-1.89,4.6-.17,8.03,3.38,10.84-1.72-3.43-2.47-7.14-3.38-10.84Zm174.64-82.99c-2.22,3.04-4.48,6.05-6.65,9.13-.64.92-1.39,2.08-.51,3.16.95,1.18,2.24.75,2.75.53-.43-5.33,4.26-8.23,4.41-12.82Zm-129.44-10.21c.12-.13.23-.24.33-.35-.22-.11-.43-.25-.67-.3-.08-.02-.21.19-.32.3.22.12.43.23.66.35Z"/>
  <path class="cls-3" d="m838.26,365.05c-1.13-1.14-2.21-2.22-2.07-4.09.54-7.19-.59-14.25-2.16-21.21-1.82-8.07-4.92-15.66-8.41-23.2-2.76-5.96-7.28-10.69-10.27-16.53-1.69-3.3-8.17-6.28-13.76-6.22-4.22.05-6.64,2.49-8.82,6.03-4.87,7.9-7.44,16.5-8.94,25.51-.24,1.44-1.17,2.34-1.81,3.47-.74,1.31-1.93,1.35-3,.74-1.02-.58-.98-1.81-.48-2.68,4.15-7.23,3.98-15.09,3.5-23.01,2.42.1,2.01-1.69,2.01-3.11,0-8.64-.01-17.29-.09-25.93-.01-.97.52-2.47-1.85-2.68.28,10.65.63,21.23.01,31.8-2.73,1.83-2.24,5.13-2.95,7.65-1.7,6.05-2.4,12.37-4.8,18.27-.27.67.5,1.76.79,2.66-1.48,1.36-3.16-.82-4.91.37.36,2.3,1.89,2.29,3.77,2.2,3.87-.18,5.2,1.8,3.04,5.03-3.89,5.83-5.67,12.63-9.09,18.67-1.74,3.06-4.85,3.65-7.45,4.38-3.29.92-6.72,1.93-10.11,2.28-13.33,1.38-26.15,5.06-39.15,7.97-8.46,1.89-17.16,2.71-25.63,4.58-10.14,2.23-20.43,3.91-30.32,7.21-4.05,1.35-8.65-.25-13.5,2.91-1.48-6.91-2.86-13.35-4.24-19.8-.33-.01-.66-.02-1-.04,0,3.74-.53,7.6.23,11.18.36,1.73,1.58,3.71,1.77,5.55.54,5.25,3.9,5.97,7.75,4.78,14.07-4.34,28.66-6.37,43-9.31,12.08-2.48,24.2-5.08,36.45-6.95,12.33-1.88,24.41-5.34,36.7-7.56,7.24-1.31,9.91-6.82,12.24-12.27,2.46-5.77,4.18-11.95,5.1-18.25.24-1.67,1.51-2.49,2.84-1.97,2.28.89,3.86,2.74,3.16,5.37-.73,2.72-1.62,5.34-1.81,8.23-.45,6.98,1.89,13.45,3.39,20.06.53,2.3.9,4.54.85,6.88-.04,2.11-.99,3.44-3.17,3.81-11.89,1.99-23.83,3.73-35.65,6.09-12,2.4-23.98,5.06-35.76,8.33-6.44,1.79-13.06,1.5-19.52,3.4-10.92,3.22-22.13,5.6-33.36,7.57-8.57,1.5-16.82,4.79-25.79,4.96-3.72-5.96-2.38-12.7-3.23-18.98-.68-5.05-1.42-10.16-1.35-15.38.04-3.57-1.45-7.53-2.84-10.66-3.72-8.37-5.8-17.41-10.74-25.29-4.85-7.74-10.2-14.65-19.49-17.21-8.34-2.3-15.24-.04-22.43,4.91-10.21,7.03-12.25,17.52-13.91,28.09-1.42,9.03-3.74,18.05-2.98,27.36.27,3.28-2.25,4.46-4.8,5.5-7.7,3.12-15.39,6.27-23.08,9.42-.57.23-1.13.52-2.31,1.06,4.44,1.72,7.53-.89,10.69-1.85,6.23-1.88,12.2-4.63,18.34-6.85,4.23-1.53,6.44.58,5.37,5.06-.69,2.89-.65,4.75,2.38,6.85,2.91,2.03,2.03,6.61,2.87,10,1.15,4.62.9,9.58,1.19,14.4.18,2.97-.99,4.45-4.28,4.75-13.68,1.24-26.92,5.12-40.44,7.21-12.59,1.95-24.89,5.41-37.63,6.61-5.62.53-11.23,2.18-16.83,3.31-5.98,1.2-11.87,1.55-17.83,1.41-15.38-.35-30.35,2.09-45.33,5.37-12.45,2.73-25.28,3.79-37.69,6.67-12,2.78-24.27,3.71-36.32,6.3-9.85,2.12-19.79,4.75-29.99,5.61-7.04.59-13.79,2.81-20.54,4.85-6.5,1.96-13.23,2.49-19.93,3.22-2.84.31-4-1.09-3.75-3.8.14-1.48.02-3.14.65-4.4,2.59-5.2,1.71-10.38.25-15.56-.33-1.16-.78-2.16-.1-3.28,12.29,3.6,24.7,5.73,37.7,4-2.99-2.62-7.46-3.23-8.3-7.93,0-1.5,2.77-.35,2.51-2.28,1.89-4.48,1.2-8.44-2.34-11.85-.67-2.17.51-2.76,2.39-3.27,1.71-.47,3.24-1.57,4.89-2.41.15-3.04-2-2.98-4.01-3.13-6.89-.54-13.47,1.58-20.13,2.69-4.96.83-9.82,1.19-15.29,1.09-.34-10.29-.5-20.3.16-30.6,9.98,2.95,18.76-3.7,28.26-1.7,2.53.53,3.38-1.47,3.42-4.37.08-4.95-2.46-9.33-2.33-14.18.04-1.54-.73-3.25,1.15-4.97,1.4,3.91,2.19,7.8,2.85,11.46.86,4.77,4.14,6.84,7.55,7.3,15.12,2.06,30.34,4.33,45.62,2.91,5.76-.53,11.63-1.68,17.23-4.13,7.12-3.12,14.91-4.7,22.06-7.77,10.66-4.56,21.5-8.71,31.77-14.22,11.87-6.36,19.9-16.51,28.22-26.5.57-.69.73-1.99,2.28-1.65,1.88,1.93-.34,3.38-1.05,4.61-2.46,4.27-5.34,8.31-8.04,12.44-1.33,2.03-2.51,4.42-.99,6.5,1.29,1.76,3.79,1,5.63.41,7.66-2.47,15.61-3.93,23.12-6.98,3.7-1.5,7.81-1.71,11.79-1.1,5.83.88,11.47.53,17.11-1.8-.78-.37-1.45-.69-2.12-1.01,2.65-.22,5.22-.79,7.8-1.49,9.82-2.67,18.18-8.75,27.9-11.75,2.21-.68,5.46-2.08,6.47-5.22,1.65-.19,3.3-.39,5.05-.59,1.68-7.34,7.73-12.36,10.23-19.31.78-2.16,1.68-4.48-.24-5.87-1.81-1.32-3.77-3.11-6.74-2.16-8.43,2.69-16.93,5.2-25.46,7.55-1.79.49-3.49,1.84-6.28,1.25,8.7-6.2,18.14-10.12,26.53-16.82-6.9-3.66-12.91-.96-19.08.4-5.68,1.25-11.09,4.15-17.9,3.24,4.55-5.07,10.34-7.1,15.62-9.63,12.32-5.9,25-11.06,37.31-16.98,4.29-2.06,9.38-3.47,11.74-8.41.75-.57,1.51-1.14,2.26-1.71,2.2.15,3.45-1.38,4.97-2.62,5.54-4.53,9.5-10.15,13.01-16.39,7.41-13.17,14.84-26.44,24.61-38.02,7.48-8.86,16.84-15.05,28.31-18.56,15.98-4.89,32.17-4.55,48.33-3.3,10.59.82,20.91,3.89,31.03,7.66,21.42,7.98,38.62,22.72,57.62,34.58,9.13,5.7,18.09,11.85,28.26,15.66,12.87,4.82,19.64,14.22,22.05,27.48.72,3.97,2.66,7.73,2.5,11.86,1.59.38,1.36-.71,1.55-1.42,1.49,1.12,1.18,4.49,4.36,3.5.07.57.14,1.14.21,1.71-.79,7.4,2.41,14.23,3.14,21.44.6,5.95,2.39,11.73,3.17,17.72,1.49,11.49,2.17,22.98,1.87,34.56-.21.32-.41.63-.62.95-1.15-.32-1.88-.18-1.42,1.28l.08.02Zm-396.68,53.94c1.84,1.25,3.27,1.99,4.86-.75,1.39-2.39,2.85-4.83,1.57-7.23-1.44-2.7-4.53-1.65-7.05-1.52-1.55-.91-2.93.14-4.12.7-2.11.99-3.86,2.64-3.28,5.37.52,2.4,2.33,3.43,4.64,3.59,1.13.07,2.26-.1,3.38-.16Zm280.46-99.01c.38-3.99,1.12-8.01-1.46-11.7.5,3.87-2.88,8.16,1.56,11.61-.75,8.72,3.29,16.82,3.73,25.2-14.67,4.04-29.05,7.21-43.03,11.8.11.45.22.91.33,1.36,14.75-3.68,29.51-7.36,44.27-11.04,1.35,6.71.97,6.87-3.97,8.79-7.82,3.03-16.27,3.16-24.18,5.72-3.25,1.05-6.56,3.57-10.24.86-.15-.11-.96.72-1.49,1.07-2.28,1.49-4.82,1.93-7.49,2.39-3.52.6-6.91,2-10.35,3.06,2.53.88,5.22,1.44,7.04.43,4.34-2.42,9.25-2.07,13.77-3.11,9.35-2.16,18.79-4.06,28.16-6.24,10.19-2.37,20.5-4.21,30.77-6.23,1.3-.26,2.81-.02,2.62-2.07,5.9.93,11.7-.63,17.81-1.51.18-.79.86-2.36-.61-3.69-4.3,1.28-8.29,3.19-12.81,3.23-1.59,0-3.92-.79-4.32,2.05-4.42.06-8.76-.6-13.13,1.51-3.24,1.56-6.77.32-9-2.88-1.92-2.76-.78-4.7,2.84-6.29-4.61.23-4.96-2.43-5.73-5.35-.66-2.48-.38-4.97-.95-7.34-1-3.99-.55-8.55-4.14-11.63Zm46.06-74.27c-1.97-3.37-4.32-5.72-6.19-8.41-3.7-5.34-6.95-11.07-11.67-15.65-10.27-9.97-22.23-16.66-35.92-21.31-20.49-6.96-41.03-8.9-62.01-4.11-12.37,2.82-23.56,8.25-31.93,18.5-3.86,4.72-5.99,10.39-9.31,15.24-5.21,7.61-9.51,15.7-14.19,23.58-5.31,8.93-11.28,16.79-20.64,22.26-4.73,2.76-9.82,5.57-14.77,9.35,2.49,1.61,4.52,1.39,6.33.93,9.69-2.47,19.84-2.3,29.41-5.52,4.67-1.57,9.81-1.76,14.48-3.09,7.21-2.05,7.04-2.66,11.17,3.34,2.73,3.96,7.7,6.17,11.69,4.64,4.17-1.61,5.92-5.01,5.52-9.5-.12-1.32.01-2.67-.1-3.99-.18-2.32,1.05-3.53,3.15-3.64,3.85-.19,7.48-1.65,11.2-2.03,21.47-2.23,42.24-8.4,63.71-10.75,12.37-1.36,24.6-4.22,36.93-6.18,4.27-.69,8.97-.65,13.14-3.66Zm-350.31,157.6c2.25,1.72,3.93,1.02,5.55,1.07,8.38.25,16.46-2.28,24.78-2.56,1.8-.06,3.74-.51,5.16,1.1,3.17,3.59,6.3,7.22,9.46,10.81,1.38,1.57,1.71,3.05-.64,3.78-8.91,2.78-17.52,6.22-25.47,11.18-1.64,1.02-3.14.09-3.78-1.28-1.71-3.66-4.82-6.21-7.04-9.44-5.19-7.55-10.98-13.65-21.33-9.05-.14.06-.33,0-.5.03-8.93,1.44-17.96,2.46-26.78,4.43-14.77,3.3-29.79,5.24-44.51,8.65-7.13,1.65-14.57,1.2-21.51,3.77-2.13.79-4.21,1.46-4.06,4.25.34,6.3.18,12.63,1.76,18.85,1.05,4.16,3.2,5.96,7.52,5.11,9.25-1.82,18.48-3.72,27.78-5.23,4.03-.66,8.05-.91,12.28.49,3.99,1.33,8.56,1.55,12.22-1.73.82-.74,1.73-1.05,2.73-.92,9.91,1.25,19.25-2.47,28.92-3.42,7.17-.7,14.13-3.26,21.26-4.61,6.4-1.21,12.02-4.32,17.97-6.63,9.75-3.8,19.89-6.33,29.85-9.45,6.86-2.15,13.38-5.21,20.4-7.06,6.93-1.82,14.59-3.54,16.08-12.82.75-4.64,2.36-9.14,3.33-13.76,1.17-5.53-.93-7.93-6.31-6.69-15.29,3.51-30.49,7.42-45.76,11.02-10.39,2.45-20.82,4.76-31.27,6.93-2.77.56-5.13,1.7-8.09,3.18Zm351.6-68.67c-14.35.95-14.54,1.01-17.18,5.85,5.76-2.33,11.5-1.76,17.18-5.85Z"/>
  <path class="cls-3" d="m146.03,744.57c7.75-.12,14.72-3.56,22.1-5.24,17.84-4.07,35.18-10,53.09-14.01,12.37-2.77,24.65-6.43,36.94-9.81,11.05-3.03,22-6.33,33.22-8.85,9.22-2.07,18.32-5.04,27.48-7.56,11.11-3.06,22.11-6.47,33.34-9.14,11.58-2.76,23.04-6.01,34.55-9.06,16.51-4.37,32.96-8.93,49.45-13.36,13.34-3.59,26.89-6.46,40.03-10.94,10.53-3.59,21.55-5.7,32.34-8.55,8.27-2.19,16.5-4.55,24.76-6.77,9.19-2.47,18.48-4.58,27.57-7.35,10.57-3.22,21.41-5.36,31.99-8.71,8.25-2.61,16.82-4.62,25.27-6.82,13.01-3.4,26.11-6.4,39.01-10.29,12.73-3.84,25.79-6.59,38.59-10.23,22.28-6.33,44.76-11.88,67.03-18.28,12.74-3.66,25.85-6.4,38.68-9.89,10.56-2.87,21.1-5.95,31.64-8.92,8.83-2.49,17.83-4.62,26.76-6.88,13.84-3.5,27.6-7.32,41.38-11.07,10.56-2.87,21.08-5.88,31.64-8.75,1.24-.34,2.63-.16,4.32-.23,3.3,15.17,6.57,30.2,9.84,45.24-.45,2.91-3.1,2.2-4.75,2.55-34.97,7.4-69.97,14.7-104.98,21.96-20.52,4.25-40.99,8.73-61.62,12.36-6.53,1.15-8.59,5.87-11.52,10.05-13.75,19.6-28.03,38.77-44.14,56.53-8.71,9.61-17.59,19.03-26.93,28.04-30.19,29.12-63.99,53.24-101.18,72.53-20.79,10.78-42.58,19.28-64.9,26.38-1.6.51-2.85.14-4.31-.29-36.13-10.91-69.51-27.44-100.52-48.87-22.49-15.54-42.75-33.68-61.69-53.31-2.53-2.62-4.82-3.46-8.26-2.68-13.29,2.98-26.6,5.89-39.94,8.65-34.28,7.1-68.58,14.09-102.86,21.17-26.69,5.52-53.37,11.12-80.05,16.68-.63.13-1.28.14-2.67.29,6.72-2.96,13.62-2.98,19.3-6.57Zm257.58-50.84c.13,2.29,1.31,2.82,2.13,3.57,9.41,8.64,19.72,16.17,29.96,23.74,11.65,8.61,24.6,15.17,37.33,21.99,12.01,6.44,24.49,11.97,37.47,16.24,7.41,2.44,14.62,6.51,22.8,2.62,2.96-1.41,6.03-2.6,9.12-3.7,29.09-10.38,56.12-24.63,81.78-41.85,18.99-12.75,35.55-28.23,52.3-43.55,11.13-10.18,20.73-21.84,30.49-33.29,2.43-2.86,5.62-5.46,6.64-10.31-103.7,21.59-206.82,43.05-310.02,64.54Z"/>
  <path class="cls-3" d="m382.48,856.2c4.53-9.28,8.6-17.59,13.02-26.65,4.39,8.87,8.45,17.08,12.51,25.29,2.69-.83,2.99-3.02,3.82-4.7,2.36-4.76,4.55-9.59,6.84-14.38q3.59-7.53,12.86-6c-7.52,15.23-14.98,30.33-22.65,45.86-5.26-8.13-7.78-17.02-13.55-25.23-4.46,8.71-8.51,16.65-12.99,25.41-7.71-15.62-15.19-30.76-22.72-46.01,9.14-1.68,9.09-1.65,12.58,5.6,3.22,6.67,6.56,13.29,10.28,20.81Z"/>
  <path class="cls-3" d="m252.81,818.77c-.42-3.18-.58-5.64.3-8.36h13.25v19.2c2.5,1.22,4.37.18,6.24-.18,13.56-2.61,27.02,7.04,28.11,20.85.65,8.25.12,16.59.12,25.11-2.81.96-5.53.56-8.82.34,0-7.69.2-15.14-.05-22.58-.38-11.61-11.46-18.52-21.43-13.72-3.16,1.52-4.34,3.55-4.28,7,.17,9.62.06,19.25.06,28.87-2.92,1.08-5.53.65-8.42.44-1.21-3.88-.42-7.87-.48-11.76-.18-13.32-.22-26.64-.05-39.96.06-3.43-.62-5.5-4.55-5.25Z"/>
  <path class="cls-3" d="m814.03,869.59c-2.01,2.27-3.64,4.11-5.65,6.39-2.85-5.09-6.06-3.81-10.29-1.65-10.9,5.58-23.89,1.35-30.31-8.2-7.15-10.63-3.95-25.16,5.94-32.31,9.59-6.94,23.85-6.01,31.98,2.5,1.59,1.66,2.23,3.54,2.17,5.87-.12,4.83.34,9.69-.1,14.48-.51,5.53,1.12,9.74,6.26,12.92Zm-15.46-16.55h.02c0-2-.24-4.03.05-5.98.68-4.49-1.62-6.74-5.44-8.23-5.88-2.29-12.54-.6-16.66,4.39-4.37,5.29-4.66,12.9-.71,18.54,3.37,4.81,11.03,7.69,16.32,5.83,3.9-1.37,7.27-3.38,6.48-8.56-.31-1.96-.06-4-.06-5.99Z"/>
  <path class="cls-3" d="m495.35,893.27c-1.93-1.7-3.9-3.43-6.01-5.29,2.6-4.16,8.03-6.41,7.64-12.65-5.42.99-10.52,2-15.88.78-9.06-2.07-17.14-11.26-17.62-19.36-.54-8.93-.12-17.92-.12-27.16,2.96-.74,5.69-.55,8.83-.04,0,7.57-.04,15.04.01,22.52.07,10.34,7.62,17.05,17.86,15.95,4.47-.48,7.99-4.28,8.01-8.74.03-9.8.01-19.61.01-29.41,2.9-1.12,5.51-.78,8.03-.53,1.32,1.11.93,2.53.93,3.81.01,13.5.01,26.99-.05,40.49-.01,6.62-4.4,14.01-11.64,19.63Z"/>
  <path class="cls-3" d="m515.13,852.96c-.04-13.14,10.47-23.93,23.69-23.91,15,.02,23.87,11.01,24.66,23.53.83,13.12-10.59,24.16-23.85,24.22-13.99.07-24.46-10.12-24.5-23.84Zm23.9-15.1c-8.1.08-14.81,6.9-14.83,15.07-.02,8.54,6.59,15.1,15.19,15.08,8.35-.02,14.95-6.92,14.79-15.49-.16-8.19-6.92-14.73-15.15-14.66Z"/>
  <path class="cls-3" d="m331.28,876.8c-13.56-.11-24.32-10.81-24.08-23.96.24-13.41,10.97-23.91,24.34-23.85,13.18.07,24.26,11.16,24.15,24.17-.12,13.24-10.97,23.75-24.41,23.64Zm.83-8.78c8.13-.12,14.4-6.89,14.22-15.35-.19-8.63-6.84-15.03-15.38-14.8-8.07.22-14.64,7.1-14.56,15.25.07,8.82,6.63,15.04,15.72,14.9Z"/>
  <path class="cls-3" d="m570.21,829.53c3.44-.54,6.07-.64,9.35.03,0,7.5-.09,15.1.03,22.7.12,7.75,4.52,13.23,11.78,15.25,4.81,1.34,8.75-.21,12.54-3.07,1.91-1.44,1.28-3.28,1.29-4.98.07-9.94.03-19.88.03-30.02,3.24-.45,5.97-.48,9.2.16,0,8.06.35,16.03-.11,23.97-.37,6.51.56,12.18,6.22,16.13-1.54,2.62-3.42,4.17-5.68,5.96-2.83-4.51-5.93-3.59-10.2-1.5-16.36,8.02-34.17-3.26-34.43-21.49-.11-7.63-.02-15.25-.02-23.14Z"/>
  <path class="cls-3" d="m891.56,864.36c-8.23-6.31-16.26-12.7-24.57-18.71-3.26-2.35-3.35-4.05-.96-7.11,9-11.54,27.11-13.69,38.04-.65-1.97,2.32-4.69,3.56-7.24,5.06-5.92-5.85-12.86-6.71-19.78-1.79,9.47,7.02,18.72,13.88,27.9,20.69-5.82,16.13-27.33,20.1-39.31,7.46,4.18-6.33,4.9-6.51,11.27-2.82,4.6,2.67,9.86,2.02,14.65-2.13Z"/>
  <path class="cls-3" d="m247.26,837.77c-2.05,2.2-4.31,3.55-6.87,4.98-5.85-4.65-12.25-6.77-19.83-2.81,1.56,4.47,5.94,5.56,8.94,8.02,5.25,4.32,10.85,8.23,16.37,12.22,1.9,1.37,2.54,2.52,1.18,4.88-7.8,13.58-27.77,15.75-38.65,3.72,2.1-1.99,4.21-3.99,6.24-5.93,10.02,6.41,13.48,6.75,19.76,1.9-2.85-3.74-7-5.9-10.53-8.75-4.52-3.65-9.1-7.27-13.92-10.5-3.72-2.5-2.49-4.77-.48-7.34,9.31-11.92,26.99-12.25,37.79-.39Z"/>
  <path class="cls-3" d="m818.01,843.13c5.73-15.92,27.84-18.94,39.97-5.68-4.59,5.33-5.23,5.42-11.06,2.39-5.06-2.63-10.13-3.02-15.77.88,8.73,8.1,19.18,13.61,27.62,21.58-9.02,18.44-30.25,17.67-39.05,7.02,4.01-6.25,4.67-6.37,10.56-2.68,1.2.75,2.55,1.44,4.16,1.36,3.1-.15,7.19.87,8.59-2.31,1.58-3.6-2.5-5.21-4.84-7.05-6.7-5.25-13.49-10.38-20.18-15.51Z"/>
  <path class="cls-3" d="m738.1,869.12c-6.73,7.51-18.07,9.75-27.09,5.83-9.43-4.1-15.31-13.75-14.59-23.96.67-9.6,7.97-18.36,17.25-21.04,7.69-2.22,14.66-.4,21.22,3.53,2.18,1.31,3.31,3.38.51,5.53-1.31,1-2.53,2.13-3.76,3.17-9.25-5.99-15.94-5.71-21.89.82-5.07,5.56-5.32,14.07-.57,19.58,5.08,5.9,13.39,7.23,19.7,2.76,5.44-3.88,6.01,2.19,9.22,3.78Z"/>
  <path class="cls-3" d="m667.07,835.13c-1.85,2.31-3.5,4.36-5.27,6.58-4.95-3.43-9.98-5.19-15.66-2.91-3.37,1.36-5.24,3.42-5.12,7.53.29,9.64.09,19.29.09,29.02-3.06,1.08-5.84.5-9.39.53v-15.9c0-2.67-.13-5.34.03-8,.35-6.15.24-12.07-6.38-15.64,2.53-3.92,4.33-7.76,9.49-3.68,2.16,1.7,4.03-.52,5.87-1.36,9.02-4.09,19.72-2.69,26.34,3.83Z"/>
  <path class="cls-3" d="m747.31,875.6c0-16.83.06-33.15-.06-49.46-.02-2.92,1.41-6.32-3.67-7.77-2.42-.69-.8-5-.72-7.98h13.39v65.17c-2.9.62-5.64.53-8.94.04Z"/>
  <path class="cls-1" d="m838.16,365.03c-.46-1.46.27-1.6,1.42-1.28-.47.43-.94.85-1.42,1.28Z"/>
  <path class="cls-2" d="m832.02,289.09c-.07-.57-.14-1.14-.21-1.71-1.7-6.77-3.6-13.48-5.96-20.07-4.02-11.22-10.74-19.82-23.08-23.71,5.53-5.19,4.56-10.55,1.67-16.08-3.09-5.9-6.38-11.64-10.65-16.82-3.23-3.92-6.83-4.25-11.1-2.43-8.66,3.71-18.07,3.93-27.12,5.84-1.89.4-3.07-1.05-4.45-1.89-11.77-7.19-23.03-15.43-36.27-19.77-22.54-7.38-45.55-10.97-69.3-6.83-4.08.71-8.24.94-12.63,1.42-.78-4.73-3.46-4.99-7.62-4.35-53.52,8.28-105.77,21.24-156.6,40.15-27.81,10.34-52.09,26.08-75.09,44.38-15.39,12.25-30.17,25.18-44.86,38.23-9.98,8.87-20.11,17.4-32.63,22.61-2.63,1.09-5.44,2.3-7.2,4.85l.13-.07c-.71.05-1.75-.23-1.09,1.13l.11-.09c-1.78-.42-3.12-.19-3.1,2.08l.1-.14c-1.47-1.27-2.4.21-3.25.84-8.84,6.53-17.51,13.29-26.42,19.71-10.55,7.62-14.53,18.43-17.66,30.63-4.63,18.03-5.17,36.02-3.82,54.31.13,1.72.02,3.46.02,5.96-16.04-42.72-39.3-130.74-54.8-228.44,10.28-5.55,20.66-11.42,31.28-16.83,48.87-24.92,99.96-43.8,153.6-55.43,34.03-7.37,68.45-12.02,103.27-13.86,41.58-2.2,82.96-.33,124.12,5.38,59.45,8.24,117.02,23.73,172.55,46.6,22.28,9.18,43.98,19.54,65.16,31.04,4.09,2.22,5.42,4.72,5.02,9.29-2.92,33.64-7.02,67.11-13.61,100.35-2.43-12.2-4.66-24.44-8.51-36.28Z"/>
  <path class="cls-2" d="m845.79,477.52c.78-30.55,1.53-60.27,2.3-90.22,13.17-3.43,26.14-6.76,39.07-10.22,2.64-.71,3.55,1.04,4.66,2.63,6.26,8.95,12.49,17.91,19.62,28.13v-36.85c13.63-3.52,26.43-6.82,40.07-10.35-.76,30.29-1.5,60.08-2.25,90.32-11.65,3-23.15,5.96-34.65,8.9-1.54.39-2.44-.55-3.32-1.65-8.12-10.11-17.22-19.42-24.51-30.32-1.46.85-.66,2.33-.68,3.46-.23,10.32-.38,20.64-.49,30.97-.04,3.43-.94,5.55-4.89,6.44-11.47,2.6-22.83,5.69-34.93,8.76Z"/>
  <path class="cls-2" d="m342.95,610.49c-1.47.53-2.52,1.02-3.64,1.31-12.52,3.2-25.05,6.37-38.41,9.76.78-30.33,1.56-60.14,2.33-90.27,18.5-4.77,36.93-9.54,55.36-14.27,8.34-2.14,16.71-4.19,25.05-6.35,3.62-.94,7.29-.95,10.92-.58,8.91.9,14.1,9.49,13.15,20.77-1.23,14.63-8.59,24.77-21.71,30.96-1.05.49-2.11.96-3.15,1.47-.1.05-.12.25-.39.91,8.62,9.51,17.41,19.21,26.73,29.49-10.8,2.82-21.06,5.67-31.41,8.13-5.59,1.33-11.73,5.42-16.62,3.28-4.62-2.01-7.45-8.18-11-12.57-2.24-2.76-4.36-5.62-7.21-9.31v27.27Zm1.13-47.19c5.94-1.3,11.41-2.4,16.41-5.15,4.59-2.53,6.36-6.46,6-11.54-.2-2.81-1.68-4.27-4.45-4.21-6.28.15-12.21,1.76-17.95,3.93-.01,5.72-.01,11.01-.01,16.97Z"/>
  <path class="cls-2" d="m525.95,516.36c.03,27.16-13.32,46.69-39.19,57.23-11.59,4.72-23.6,8.15-36.09,8.95-22.73,1.45-34.45-8.5-35.04-32.26-.73-28.98,12.36-48.69,39.21-59.67,13-5.32,26.42-9.07,40.55-9.04,19.38.04,29.79,10.42,30.55,29.8.07,1.66.01,3.32.01,4.99Zm-67.96,21.5c0,.83-.02,1.66,0,2.49.12,4.67.94,9.44,5.68,11.26,4.8,1.84,9.43.11,13.28-3.42,2.26-2.08,3.91-4.56,4.88-7.41,1.85-5.44,2.18-11.05,1.29-16.71-1.1-6.95-5.34-9.64-12.12-7.71-8.83,2.51-13.09,9.54-13.01,21.5Z"/>
  <path class="cls-2" d="m796.38,491.23c-1.04-3.58-1.92-6.57-2.95-10.11-8.08,2.04-16.1,3.83-23.95,6.18-3.14.94-2.8,4.75-3.37,7.32-.85,3.83-2.85,5.34-6.53,6.2-12.08,2.84-24.08,6.06-36.68,9.27.66-6.29,2.94-11.76,4.55-17.33,7.34-25.5,14.99-50.92,22.42-76.4.61-2.11,1.26-3.35,3.6-3.94,20.25-5.09,40.47-10.33,61.17-15.65,7.92,27.71,15.79,55.21,23.89,83.55-14.04,3.64-27.85,7.22-42.15,10.91Zm-14.1-61.11c-2.31,10.28-6.25,20.08-8.62,30.85,5.67-1.78,10.91-2.28,15.71-4.5-2.23-8.99-5.35-17.39-7.09-26.35Z"/>
  <path class="cls-2" d="m186.43,562.04c9.64-2.48,19.38-5.04,29.15-7.48,15.58-3.89,30.96-8.6,46.75-11.59,23.49-4.45,30.18,10.78,28.09,28.15-2.79,23.15-17.38,38.5-41.36,44.74-6.26,1.63-12.46,3.58-18.81,4.74-3.32.6-4.11,2.31-4.15,4.98-.08,5.31-.02,10.62-.02,16-14.15,3.63-27.87,7.15-41.95,10.77.77-30.37,1.53-60.1,2.3-90.31Zm40.58,34.49c5.01-1.55,9.42-2.87,13.8-4.29,2.57-.83,4.99-2.17,6.56-4.34,2.3-3.18,3.88-6.87,1.61-10.63-2.03-3.36-5.39-2.38-8.54-1.72q-13.46,2.81-13.43,16.57c.01,1.14,0,2.3,0,4.41Z"/>
  <path class="cls-2" d="m628.76,447.85v34.97c-7.24,1.04-14.26,1.93-21.23,3.07-6.91,1.13-13.64,2.95-19.84,6.34-4.73,2.59-8.16,6.29-9.43,11.65-1.61,6.77,1.73,11.15,8.67,11.27,8.31.15,15.91-2.95,23.53-5.68,5.74-2.05,11.28-4.68,16.62-6.93,0,9.65-.04,19.33.04,29.01.01,1.73-.97,2.11-2.25,2.7-17.51,8.11-35.25,15.16-54.8,16.95-21.55,1.97-34.42-9.47-35.12-31.19-.83-25.76,9.08-45.11,32.07-57.31,7.79-4.13,16.08-7.01,24.63-9.14,12.12-3.01,24.43-4.63,37.11-5.71Z"/>
  <path class="cls-3" d="m415.65,659.57c-1.15-2.71-.7-5.41-.71-8.03-.05-14,.13-28-.1-42-.08-4.77,1.17-6.94,6.33-7.9,9.45-1.77,18.73-4.54,28.02-7.11,3.9-1.08,6.37-.97,7.81,3.71,2.07,6.74,4.99,13.23,7.99,20.98,2.73-8.98,5.19-16.85,7.49-24.76,1.11-3.8,2.42-6.7,7.07-7.73,11.47-2.53,22.8-5.72,34.05-8.61,1.74,1.56,1.22,3.34,1.23,4.91.04,15.5-.07,31,.07,46.49.04,4.06-1.39,5.87-5.48,6.69-7.77,1.56-15.42,3.76-23.51,5.79-1.68-9.25.35-18.17-1.46-27.19-3.13,8.9-6.41,17.75-9.29,26.73-.96,2.99-2.37,4.42-5.49,4.65-1.96.15-3.86.97-5.79,1.49-8.31,2.26-8.27,2.25-11.61-5.9-2.31-5.64-4.72-11.23-8.18-16.69,0,7.36-.15,14.73.06,22.09.1,3.6-.65,5.07-4.65,6.35-7.1,2.26-14.44,3.54-21.46,6.02-.7.24-1.58.02-2.39.02Z"/>
  <path class="cls-2" d="m683.28,431.22v57.55c10.84-2.76,21.96-5.6,33.05-8.42v32.1c-25.58,6.59-50.69,13.05-76.08,19.59-.42-13.31.51-26.25.81-39.2.37-15.97.75-31.95,1.06-47.92.04-2,.16-3.33,2.62-3.93,12.88-3.13,25.7-6.49,38.54-9.77Z"/>
  <path class="cls-3" d="m782.12,563.06c.26-19.34-.56-38.02.57-56.9,14.36-3.57,28.03-6.94,41.69-10.37,6.12-1.54,12.26-3.06,18.3-4.87,4.43-1.32,8.89-1.33,13.36-.96,4.39.35,7.75,4.2,8.09,8.71.84,11.09-3.7,18.11-15.02,23.06-1.07.47-2.23.65-3.23,2.25,5.56,6.5,13.29,10.78,19.78,16.91-3.76,3.99-9.07,2.83-13.42,4.35-6.4,2.23-13.22,3.21-19.76,5.05-2.3.65-3.77.11-5.37-1.33-3.9-3.52-7.88-6.95-12.3-10.84-1.21,4.85.35,9.06.23,13.27-.06,2.12-.43,3.63-2.59,4.17-9.88,2.47-19.76,4.89-30.33,7.5Zm32.65-38.87c6.11-.01,10.93-2.13,15.6-4.62,2.33-1.24,1.95-3.63,1.96-5.76.01-1.2-.24-2.54-1.73-2.58-4.99-.1-10.27-.07-14.38,2.72-3.12,2.13-1.8,6.33-1.45,10.24Z"/>
  <path class="cls-3" d="m687.91,559.48c-.62-11.32,4.47-20.44,13.54-27.03,14.9-10.84,32.22-15.32,50.29-16.17,18.26-.86,24.64,12.14,21.81,28.05-2.43,13.67-11.76,21.78-23.67,27.36-10.91,5.11-22.55,7.79-34.4,9.62-5.71.88-11.28.19-16.72-1.68-7.39-2.54-10.71-8.61-10.85-20.15Zm32.19-6.62c-.5,4.35,1.08,8.21,6.04,8.85,5.08.66,9.72-1.02,12.76-5.69,2.9-4.45,4.01-9.01,1.4-14.01-1.15-2.2-3.14-3.07-5.3-3.11-8.24-.11-15.64,5.61-14.9,13.96Z"/>
  <path class="cls-3" d="m585.34,559.97c1.66,0,3.33-.05,4.99.01,10.96.35,17.96,7.02,18.74,17.89,1.01,14.15-4.08,25.29-16.4,32.75-16.27,9.86-33.73,14.84-52.96,13.72-10.26-.6-16.42-8.76-16.78-19.19-.57-16.3,7.68-27.21,21.45-34.21,12.8-6.5,26.47-10.46,40.96-10.97Zm-8.72,31.07c-.06-6.2-2.4-9.01-7.43-8.89-8.08.19-14.16,6.5-13.95,14.5.14,5.35,2.97,8.6,7.53,8.64,8.19.08,13.93-5.83,13.85-14.25Z"/>
  <path class="cls-3" d="m941.38,474.77c0,7.03.01,7.11-7.15,8.04-8.24,1.07-16.4,2.44-24.31,5.09-.47.16-1.04.14-1.43.4-1.65,1.11-5.04,1.22-4.04,4.04.88,2.5,3.7,1.39,5.72.94,6.8-1.52,13.49-3.32,20.54-3.8,12.54-.86,15.77,8.04,12.3,18.09-2.68,7.77-8.76,12.77-15.87,16.44-12.52,6.46-26.09,9.51-39.85,11.85-2.95.5-5.91.95-8.87,1.34-1.3.17-3.17.72-3.86.09-3.58-3.27-1.94-7.71-1.98-11.72-.03-2.84,1.48-4.4,4.62-4.68,8.94-.79,17.86-1.93,26.53-4.3,2.68-.73,7.37-.96,6.56-4.47-.92-3.98-4.66-.68-7.19-.49-6.61.5-12.93,2.67-19.68,2.8-13.8.27-15.08-9.4-12.35-17.88,2.66-8.28,9.31-13.02,16.82-16.68,14.22-6.93,29.53-9.91,44.97-12.41q8.52-1.37,8.52,7.31Z"/>
  <path class="cls-3" d="m632.04,602.97v-32.9c-6.56-.12-12.06,2.31-18.41,3.8-1.24-7.21-.54-14.27-.51-21.28.01-1.45,1.43-1.72,2.53-2,21.25-5.5,42.51-10.99,63.77-16.43.93-.24,1.97-.03,3.49-.03.91,6.55,1.18,13.1.44,19.69-.21,1.83-1.52,2.48-3,2.91-3.64,1.05-7.27,2.71-10.97,2.91-4.68.25-5.31,2.39-5.2,6.35.25,8.33.03,16.67.11,25,.02,2.17-.16,4.04-2.65,4.66-9.64,2.4-19.3,4.77-29.6,7.32Z"/>
  <path class="cls-2" d="m512.01,219.97c7.44-1.42,14.88-2.84,22.32-4.25.11.32.22.64.33.95-5.22,2.07-10.41,4.21-15.65,6.2-36.18,13.71-72.05,28.17-106.32,46.22-15.28,8.05-30.14,16.89-45.19,25.37-.19-.22-.39-.43-.59-.64,10.81-11.06,22.93-20.59,35.28-29.82,8.76-6.55,17.47-13.2,27.1-18.54,4.42-2.45,9.35-3.37,13.8-5.59,10.49-3.15,21.07-6.04,31.45-9.54,12-4.05,24.36-6.66,36.58-9.81.33-.22.66-.43.99-.65l-.1.1Z"/>
  <path class="cls-2" d="m565.2,266.95c-.75.57-1.51,1.14-2.26,1.71-3,.24-5.09,2.36-7.51,3.74-8.23,4.68-17.44,5.21-26.48,6.29-35.33,4.22-70.29,10.6-105.12,17.79-7.01,1.45-14.06,2.7-21.09,4.04-.09-.4-.18-.8-.26-1.21,9.55-2.47,19.12-4.85,28.64-7.43,31.88-8.63,64.25-15.23,96.42-22.64,16.75-3.86,30.32-12.13,42.29-23.93,10.06-9.92,19.8-20.13,29.46-30.51,1.5,1.37.32,2.24-.2,3.07-6.88,10.99-13.75,21.97-20.7,32.91-3.4,5.35-7.3,10.31-12.49,14.07-.89.63-.88,1.26-.7,2.1Z"/>
  <path class="cls-2" d="m625.14,391.45c-.05,8.97-.89,16.65-4.86,23.69-4.57,8.11-11.72,10.06-19.72,5.25-8.19-4.93-13.29-12.62-17.31-20.85-8.04-16.45-11.83-33.83-9.23-52.23.75-5.33,2.63-10.31,6.04-14.53,4.41-5.45,10.3-6.42,16.47-3.12,8.98,4.81,14.25,12.85,18.62,21.55,6.52,12.98,9.86,26.79,9.99,40.24Zm-43.25-1.95c1.88,8.26,9.09,20.94,14.6,25.78,9.08,7.98,17.26,5.97,21.69-5.35.36-.92.65-1.88.9-2.84,3.29-12.78,1.77-25.35-1.59-37.87-3.23-12.04-8.05-23.26-16.73-32.43-7.23-7.63-15.55-7.81-20.24-.45-4.67,7.32-5.11,15.57-4.52,23.94.16,2.2,1.45,3.41,3.7,2.92,3.29-.71,5.3-4.93,3.97-8.08-.65-1.53-1.35-3.03-2.58-5.8,3.49,2.87,4.67,6.02,6.89,7.28,1.91.43,1.98-1.46,3.42-1.44-1.62,3.91-3.34,7.73-2.65,12.02.36,2.22,1.22,4.23,3.56,4.96,2.27.72,4.3-.06,5.94-1.69,2.51-2.49,3.34-5.65,3.31-9.09,0-.13.19-.26.29-.39-.03,0-.05.01.08-.01.66,6.08-4.37,12.58,1.81,18.63-1.06-.38-1.49-.55-1.93-.68-4.71-1.38-7.87,1.51-10.05,4.7s1.35,4.87,3.38,6.69c1.7,1.53,3.38,3.08,4.92,4.48-6.49,2.45-3.06,9.14-6.14,13.54,2.89-10.83-2.39-16.19-12.03-18.82Z"/>
  <path class="cls-2" d="m532.17,335.99c-1,3.14-4.26,4.53-6.47,5.22-9.72,3-18.08,9.08-27.9,11.75-2.58.7-5.14,1.28-7.8,1.49-3.28-.49-6.54-1.02-9.68-2.2-3.22-1.2-3.78-3.31-2.85-6.32,4.26-13.69,13.07-22.15,27.38-25.06,7.63-1.55,12.42,1.55,16.4,8.76,1.42-5.47,4.82-9.29,2.73-14.32,4.85-.45,5.75.37,4.72,4.9-1.74,7.66-4.07,15.1-9.11,21.51,3.27-1.49,7.06-1.32,7.65-7.03.73-7.02,3.71-13.72,6.85-20.17.97-2,2.84-2.77,4.76-3.28,1.73-.46,3.74-1.02,5.1.67,1.26,1.56.18,3.16-.52,4.65-2.88,6.19-6.35,12.02-10.74,17.27-.56.69-1.06,1.27-.52,2.16Zm-21.57-9.55c-4.88-.05-9.11,3.52-9.26,7.8-.14,3.94,3.63,7.39,8.23,7.53,4.8.15,9.34-3.99,9.22-8.41-.1-3.82-3.72-6.88-8.19-6.92Z"/>
  <path class="cls-3" d="m511.11,220.51c-12.23,3.15-24.58,5.76-36.58,9.81-10.38,3.5-20.96,6.38-31.45,9.54-1.41-.06-2.88.25-4.59-.78,58.84-22.55,119.24-37.2,181.42-45-2.8,3.18-5.61,6.15-9.72,6.86-13.94,2.41-27.85,5-41.84,7.23-9.85,1.57-19.77,2.83-29.57,4.97-7.7,1.68-15.37,3.72-23.19,4.89-1.46.22-3.1-.04-3.59,1.93l.1-.11c-.33.22-.66.44-.99.66Z"/>
  <path class="cls-2" d="m314.45,336.4c-3.55,2.14-4.79,6.59-8.28,8.79-1.93-1.12.63-2.52-.85-3.62-3.2,1.48-6.55,3.02-10.77,4.96,3.12-4.99,7.88-6.78,10.52-10.7l-.1.14c1.51.02,2.67-.48,3.1-2.08l-.11.09c.83.07,1.87.35,1.09-1.13l-.13.07c.35.86.94.73,1.52.33,19.15-13.18,41.4-17.3,63.53-21.8,25.19-5.12,50.38-10.28,75.58-15.39,1.29-.26,2.61-.32,4.1.3-9.67,2.47-19.32,4.99-29.01,7.4-24.33,6.05-48.58,12.42-72.69,19.29-11.6,3.31-22.15,8.9-32.62,14.72-1.49.83-2.8,2.33-4.75,2.06-.83-1.23.57-1.84.53-2.78,1.18-.87,3.07-1.11,2.82-3.22.38.4.73.39.99-.1.05-.1-.06-.3-.1-.45-.27.22-.54.45-.81.67-1.65.12-2.45,1.51-3.56,2.45Zm6.7-4.29c.54-.24,1.26-.37.78-1.25.37-.1.75-.21,1.12-.31-.08-.14-.16-.27-.24-.41-.26.27-.51.54-.77.8-.82.1-1.68.17-.8,1.28-.39-.07-.77-.13-1.16-.2,0,.16.02.32.04.48.34-.12.69-.25,1.03-.39Zm4.24-2.73c.06-.4.12-.79.18-1.19-.15.04-.31.09-.46.13.11.39.23.79.32,1.15-.38-.15-.76-.3-1.14-.45-.03.15-.05.31-.08.46.39-.03.78-.07,1.18-.1Zm1.74-2.03l.35.19.02-.32-.37.13Z"/>
  <path class="cls-2" d="m475.71,315.45c-10.26,5.71-17.55,13.75-25.26,21.27-2.12,2.06-4.8,2.5-7.16,3-37.51,7.86-74.71,17.28-112.53,23.63-13.26,2.23-26.5,4.83-40.16,3.9,11.42-2.1,22.86-4.09,34.25-6.32,35.35-6.92,70.86-13.12,105.6-22.93,8.8-2.49,16.64-6.51,24.1-11.62,5.07-3.47,10.38-6.59,15.62-9.81,1.36-.83,2.6-2.19,5.54-1.12Z"/>
  <path class="cls-2" d="m804.53,370.5c-13.77-18.03-17.65-38.31-13.03-60.22,1.69-8.01,11.42-11.25,18.3-6.43,7.32,5.12,11.64,12.64,14.86,20.76,5.49,13.82,8.39,27.97,4.64,42.82-1.33,5.26-3.74,10.01-9.36,11.21-5.94,1.27-10.51-1.82-13.93-6.61.28-.28.56-.56.84-.83,1.12.98,2.17,2.04,3.36,2.93,5.63,4.2,10.54,3.14,14.01-3,.98-1.74,1.74-3.53,2.08-5.55,3.23-19.28-.99-36.98-11.77-53.06-3.2-4.77-7.47-10.07-14.11-8.23-6.47,1.79-7.99,8.25-8.37,14.11-1.22,18.51,2.65,35.84,13.29,51.34-.28.26-.55.51-.81.76Z"/>
  <path class="cls-2" d="m477.01,338.54c-1.67.13-3.25.11-4.76.42-2.01.42-3.15,1.85-3.3,3.88-.15,2.02.65,3.93,2.75,4.1,3.71.31,4.07,2.86,4.47,5.62,1.37.74,3.27.39,4.97,2.69-13.18-2.42-24.47,3.99-36.64,5.01.16-5.63.42-5.83,8.08-6.64-4.39-4.04-3.48-8.07,4.04-13.43-2.04,5.19-1.77,9.27,1.98,12.24,1.57,1.24,3.51,1.92,6.01.38-2.64-3.16-4.94-6.5-3.81-10.93.61-2.41,1.97-4.21,3.93-5.58,3.95-2.76,8.6-1.92,12.28,2.24Z"/>
  <path class="cls-2" d="m271.58,392.78c-1.98-4.83-2.21-9.31-1.29-13.71.85-4.06,3.52-4.84,6.27-2.26,1.16-.6.48-2.78,2.92-2.69,1.73,2.54,1.03,6.1,2.3,8.99,1.56,3.56-.97,6.1-1.96,8.61.93,2.06,3.24.44,4.04,2.76-2.49.99-5.13.74-7.47.19-3.77-.89-6.38-.43-9.02,2.87-2.2,2.75-5.06,2.07-6.72-1.83,5.34,4.14,6.53-3.78,10.93-2.93Zm5.41-14.77c.8,4.58-1.54,8.48-3.37,13.55,6.77-3.95,2.48-9.41,3.37-13.55Z"/>
  <path class="cls-2" d="m261.94,390.28c-1.43,1.27-.38,3.18-1.82,5.79-1.51-10.26,3.28-17.55,7.06-25.23,1.3,6.15,2.48,12.33,1.56,18.59-.46,3.18-2.33,3.3-6.8.85Z"/>
  <path class="cls-2" d="m284.6,354.04c-1.16,4.06-5.05,5.78-6.44,9.24.52,2.21,2.73,2.53,4.01,4.38-2.85-.57-5.38-1.13-7.93-1.56-2.91-.49-3.42-2.32-1.63-4.11,3.42-3.43,7.46-6.11,11.99-7.95Z"/>
  <path class="cls-3" d="m623.56,186.66c-3.99,2.29-7.58,5.12-12.93,2.87-2.6-1.1-6.17.11-9.35-.1,7.43-.83,14.52-3.91,22.28-2.77Z"/>
  <path class="cls-2" d="m288.47,434.82c3.54,3.41,4.23,7.37,2.34,11.85-1.11-.24-3.44.35-2.44-1.78,1.82-3.86.27-6.57-2.72-9.4,1.32-.32,2.07-.5,2.82-.67Z"/>
  <path class="cls-2" d="m268.48,433.96c.91,3.7,1.66,7.41,3.38,10.84-3.55-2.81-5.28-6.23-3.38-10.84Z"/>
  <path class="cls-2" d="m443.12,350.97c-.15,4.58-4.84,7.49-4.41,12.83-.51.22-1.8.65-2.75-.53-.87-1.08-.13-2.25.51-3.16,2.17-3.09,4.43-6.1,6.65-9.14Z"/>
  <path class="cls-2" d="m806.01,372.04c-.49-.51-.98-1.02-1.48-1.53.26-.25.53-.5.79-.76.51.48,1.02.97,1.52,1.45-.28.28-.55.56-.83.84Z"/>
  <path class="cls-2" d="m313.68,340.76c-.23-.12-.44-.23-.66-.35.11-.11.24-.32.32-.3.23.05.45.19.67.3-.1.11-.21.22-.33.35Z"/>
  <path class="cls-2" d="m367.5,294.45c-.43.36-.86.95-1.37.15-.04-.07.5-.51.78-.79.2.2.4.42.59.64Z"/>
  <path class="cls-1" d="m768.1,245.71c-4.18,3.02-8.87,2.97-13.12,3.65-12.34,1.96-24.56,4.82-36.93,6.18-21.47,2.35-42.25,8.52-63.71,10.75-3.72.39-7.35,1.84-11.2,2.03-2.1.11-3.33,1.32-3.15,3.64.1,1.33-.02,2.67.1,3.99.4,4.49-1.36,7.89-5.52,9.5-3.98,1.54-8.96-.67-11.69-4.64-4.13-6-3.96-5.39-11.17-3.34-4.67,1.33-9.81,1.52-14.48,3.09-9.57,3.21-19.73,3.05-29.41,5.52-1.82.46-3.85.68-6.33-.93,4.95-3.78,10.04-6.59,14.77-9.35,9.36-5.47,15.33-13.32,20.64-22.26,4.68-7.88,8.98-15.97,14.19-23.58,3.32-4.85,5.46-10.51,9.31-15.24,8.37-10.25,19.56-15.67,31.93-18.5,20.97-4.79,41.51-2.84,62.01,4.11,13.69,4.65,25.65,11.33,35.92,21.31,4.72,4.59,7.97,10.31,11.67,15.65,1.85,2.7,4.2,5.05,6.17,8.42Zm-104.18,5.25c.08-6.6-3.62-11.37-9.47-11.4-8.09-.04-16.16.24-23.86,3.48-6.77,2.86-8.71,5.24-8.64,12.57.03,3.45-.19,6.92,1.85,10.12,1.22,1.92.62,4.04-.57,6.08-2.11,3.62-.53,6.36,4.35,9.51,3.87,2.5,6.81,1.16,8.97-1.9,1.58-2.23.79-5.23-.07-7.72-.97-2.77-.22-3.88,2.38-5.31,4.6-2.53,9.69-3.07,14.52-4.56,4.84-1.49,10.49-6.92,10.54-10.87Zm-51.25-15.14c2.36-.15,3.23-1.65,4.26-2.9,3.05-3.74,6.24-7.38,9.06-11.29,6.93-9.59,15.84-15.97,27.69-17.95,2.61-.44,5.22-1.15,7.7-2.07,3.99-1.48,6.12.12,7.96,3.62,5.51,10.46,10.39,21.18,14.8,32.14,2.48,6.18,5,12.35,7.5,18.53.41-.17.83-.34,1.24-.51-5.44-20.07-15.12-38.47-23.49-57.46-20.5-2.55-55.26,20.42-56.72,37.89Zm71.99-34.81c18.58-.08,33.97,6.52,49.21,14.41-1.15-8.31-42.69-21.47-55.24-17.75,5.87,6.88,9.27,15.03,13.03,22.96,4.7,9.9,9.13,19.92,13.7,29.88,1.21,2.63,1.25,2.6,4.1,1.74-7.44-17.15-15.43-34.04-24.8-51.24Zm-75.51,38.74c-5.36,11.78-12.62,21.71-16.67,33.85,3.87.34,6.41.86,8.81-1.16-3.84-1.74-3.89-4.36-2.27-7.47,3.22-6.18,6.43-12.35,9.59-18.56.87-1.7,2.44-3.31.54-6.66Zm129.78-22.54c7.77,8.58,15.48,17.09,20.16,28.09,2.38-4.08-10.3-21.92-20.16-28.09Z"/>
  <path class="cls-1" d="m417.79,403.31c2.96-1.48,5.32-2.62,8.1-3.19,10.45-2.17,20.88-4.48,31.27-6.93,15.27-3.61,30.47-7.51,45.76-11.02,5.38-1.24,7.47,1.17,6.31,6.69-.98,4.62-2.58,9.12-3.33,13.76-1.5,9.28-9.16,11-16.08,12.82-7.02,1.85-13.54,4.9-20.4,7.06-9.96,3.12-20.09,5.66-29.85,9.45-5.94,2.31-11.57,5.42-17.97,6.63-7.13,1.35-14.09,3.91-21.26,4.61-9.67.95-19.01,4.67-28.92,3.42-1-.13-1.91.18-2.73.92-3.66,3.28-8.23,3.06-12.22,1.73-4.22-1.4-8.25-1.15-12.28-.49-9.3,1.52-18.53,3.42-27.78,5.23-4.31.85-6.46-.95-7.52-5.11-1.58-6.22-1.42-12.55-1.76-18.85-.15-2.79,1.93-3.46,4.06-4.25,6.94-2.57,14.38-2.12,21.51-3.77,14.72-3.4,29.74-5.35,44.51-8.65,8.82-1.97,17.84-2.99,26.78-4.43.16-.03.36.04.5-.03,10.35-4.6,16.13,1.5,21.33,9.05,2.22,3.23,5.33,5.78,7.04,9.44.64,1.37,2.14,2.31,3.78,1.28,7.95-4.96,16.56-8.4,25.47-11.18,2.36-.74,2.02-2.22.64-3.78-3.17-3.59-6.29-7.22-9.46-10.81-1.42-1.61-3.36-1.16-5.16-1.1-8.32.29-16.4,2.81-24.78,2.56-1.63-.04-3.31.66-5.56-1.06Z"/>
  <path class="cls-1" d="m752.05,351.89c.19,2.05-1.31,1.81-2.62,2.07-10.27,2.02-20.58,3.86-30.77,6.23-9.37,2.18-18.81,4.08-28.16,6.24-4.51,1.04-9.42.69-13.77,3.11-1.82,1.01-4.51.45-7.04-.43,3.44-1.06,6.83-2.46,10.35-3.06,2.67-.45,5.21-.9,7.49-2.39.53-.35,1.34-1.18,1.49-1.07,3.68,2.7,6.99.19,10.24-.86,7.91-2.57,16.36-2.69,24.18-5.72,4.94-1.91,5.32-2.07,3.97-8.79-14.77,3.68-29.52,7.36-44.27,11.04-.11-.45-.22-.91-.33-1.36,13.98-4.59,28.37-7.76,43.03-11.8-.44-8.38-4.48-16.48-3.73-25.2l-.1.09c3.59,3.09,3.14,7.64,4.11,11.64.57,2.37.29,4.86.95,7.34.77,2.92,1.12,5.58,5.73,5.35-3.61,1.59-4.76,3.53-2.84,6.29,2.23,3.2,5.75,4.44,9,2.88,4.38-2.11,8.72-1.45,13.13-1.51l-.04-.09Z"/>
  <path class="cls-1" d="m440.97,409.5c2.52-.13,5.61-1.18,7.05,1.52,1.28,2.39-.18,4.84-1.57,7.23-1.59,2.74-3.02,1.99-4.86.75-2.08-3.06-3.46-6.14-.62-9.5Z"/>
  <path class="cls-1" d="m782.11,303.94c.62-10.57.27-21.16-.01-31.8,2.36.2,1.84,1.71,1.85,2.68.08,8.64.09,17.29.09,25.93,0,1.43.41,3.21-2.01,3.11,0,0,.08.08.08.08Z"/>
  <path class="cls-2" d="m440.97,409.5c-2.84,3.36-1.46,6.45.61,9.49-1.12.06-2.26.24-3.37.16-2.31-.15-4.12-1.19-4.64-3.59-.59-2.72,1.16-4.37,3.28-5.37,1.19-.55,2.57-1.6,4.12-.69Z"/>
  <path class="cls-1" d="m752.13,351.97c.4-2.83,2.73-2.04,4.32-2.05,4.52-.04,8.51-1.95,12.81-3.23,1.47,1.34.79,2.91.61,3.69-6.11.87-11.9,2.44-17.81,1.51-.01,0,.07.08.07.08Z"/>
  <path class="cls-1" d="m769.39,334.64c-5.68,4.09-11.42,3.53-17.18,5.85,2.64-4.84,2.83-4.9,17.18-5.85Z"/>
  <path class="cls-1" d="m722.14,319.89c-4.44-3.45-1.06-7.74-1.56-11.61,2.58,3.69,1.84,7.71,1.46,11.7,0,0,.1-.09.1-.09Z"/>
  <path class="cls-2" d="m403.61,693.73c103.2-21.48,206.31-42.95,310.02-64.54-1.01,4.86-4.2,7.46-6.64,10.31-9.76,11.46-19.37,23.11-30.49,33.29-16.75,15.32-33.31,30.81-52.3,43.55-25.65,17.21-52.69,31.47-81.78,41.85-3.09,1.1-6.16,2.29-9.12,3.7-8.18,3.89-15.4-.18-22.8-2.62-12.98-4.27-25.46-9.8-37.47-16.24-12.73-6.83-25.68-13.38-37.33-21.99-10.24-7.57-20.56-15.1-29.96-23.74-.82-.75-2-1.29-2.13-3.57Z"/>
  <path class="cls-2" d="m798.57,853.04c0,2-.25,4.03.05,5.98.8,5.18-2.57,7.19-6.48,8.56-5.29,1.86-12.95-1.02-16.32-5.83-3.95-5.64-3.65-13.25.71-18.54,4.12-4.99,10.78-6.68,16.66-4.39,3.82,1.49,6.12,3.73,5.44,8.23-.29,1.95-.05,3.98-.05,5.98.01.01,0,.01-.01.01Z"/>
  <path class="cls-2" d="m539.03,837.86c8.23-.08,14.99,6.47,15.15,14.66.16,8.56-6.44,15.47-14.79,15.49-8.6.02-15.21-6.55-15.19-15.08.02-8.17,6.73-14.99,14.83-15.07Z"/>
  <path class="cls-2" d="m332.11,868.02c-9.09.14-15.65-6.08-15.73-14.91-.08-8.15,6.5-15.04,14.56-15.25,8.54-.23,15.19,6.17,15.38,14.8.2,8.46-6.07,15.24-14.21,15.36Z"/>
  <path class="cls-1" d="m308.08,333.91c-.43,1.59-1.59,2.09-3.1,2.08-.03-2.28,1.31-2.51,3.1-2.08Z"/>
  <path class="cls-1" d="m309.06,332.86c.78,1.48-.27,1.2-1.09,1.13-.66-1.36.38-1.08,1.09-1.13Z"/>
  <path class="cls-1" d="m344.08,563.3v-16.97c5.74-2.16,11.68-3.78,17.95-3.93,2.77-.07,4.26,1.4,4.45,4.21.36,5.09-1.4,9.01-6,11.54-4.99,2.75-10.47,3.85-16.4,5.15Z"/>
  <path class="cls-1" d="m457.99,537.86c-.08-11.96,4.18-18.99,13.01-21.5,6.78-1.93,11.03.76,12.12,7.71.89,5.67.56,11.28-1.29,16.71-.97,2.85-2.62,5.33-4.88,7.41-3.85,3.53-8.48,5.26-13.28,3.42-4.74-1.82-5.56-6.6-5.68-11.26-.02-.82,0-1.66,0-2.49Z"/>
  <path class="cls-1" d="m782.28,430.12c1.74,8.96,4.86,17.35,7.1,26.35-4.8,2.22-10.05,2.72-15.71,4.5,2.36-10.76,6.3-20.57,8.61-30.85Z"/>
  <path class="cls-1" d="m227.01,596.53v-4.42q-.03-13.79,13.43-16.57c3.15-.66,6.51-1.64,8.54,1.72,2.27,3.76.69,7.45-1.61,10.63-1.57,2.17-3.99,3.51-6.56,4.34-4.38,1.42-8.78,2.74-13.8,4.3Z"/>
  <path class="cls-1" d="m814.77,524.19c-.35-3.92-1.67-8.11,1.45-10.23,4.1-2.79,9.39-2.82,14.38-2.72,1.49.03,1.74,1.37,1.73,2.58-.01,2.13.37,4.51-1.96,5.76-4.68,2.49-9.49,4.61-15.6,4.61Z"/>
  <path class="cls-1" d="m720.1,552.86c-.74-8.35,6.66-14.08,14.91-13.96,2.16.03,4.15.91,5.3,3.11,2.61,5.01,1.5,9.56-1.4,14.01-3.04,4.67-7.68,6.35-12.76,5.69-4.96-.64-6.54-4.5-6.05-8.85Z"/>
  <path class="cls-1" d="m576.62,591.04c.08,8.41-5.66,14.32-13.84,14.25-4.56-.04-7.39-3.29-7.53-8.64-.21-7.99,5.86-14.3,13.95-14.5,5.01-.12,7.36,2.69,7.42,8.89Z"/>
  <path class="cls-1" d="m511.11,220.51c.33-.22.66-.43.99-.65-.33.21-.66.43-.99.65Z"/>
  <path class="cls-1" d="m581.89,389.5c9.64,2.63,14.92,7.98,12,18.82,3.09-4.4-.34-11.09,6.14-13.54-1.54-1.41-3.23-2.95-4.92-4.48-2.03-1.83-5.56-3.51-3.38-6.69,2.18-3.19,5.34-6.09,10.05-4.7.44.13.87.3,1.93.68-6.18-6.04-1.14-12.54-1.81-18.63-.13.02-.11.02-.08.01-.1.13-.29.26-.29.39.03,3.45-.8,6.6-3.31,9.09-1.64,1.63-3.67,2.4-5.94,1.69-2.34-.74-3.21-2.75-3.56-4.96-.69-4.29,1.04-8.1,2.65-12.02-1.44-.02-1.51,1.87-3.42,1.44-2.23-1.27-3.4-4.41-6.89-7.28,1.23,2.76,1.93,4.27,2.58,5.8,1.34,3.15-.68,7.37-3.97,8.08-2.25.49-3.55-.73-3.7-2.92-.59-8.37-.15-16.62,4.52-23.94,4.7-7.35,13.02-7.18,20.24.45,8.69,9.17,13.5,20.4,16.73,32.43,3.36,12.52,4.88,25.09,1.59,37.87-.25.96-.53,1.92-.9,2.84-4.43,11.32-12.61,13.34-21.69,5.35-5.48-4.84-12.69-17.52-14.57-25.78Zm21.23,7.05c-.03.07-.06.14-.08.21.09-.06.19-.11.28-.17.05.24.1.47.14.71-.11-.25-.23-.5-.34-.75Zm-5.58-57.13c-.46-.38-.91-.97-1.44-.15-.03.05.56.51.85.78,11.44,15.63,17.35,33.08,17.62,52.48.1,7.08-2.13,13.7-3.44,20.5-.43-.32-.75-.24-.89.29-.03.11.12.27.19.4.2-.27.41-.53.61-.8,1.73-1.61,2.57-3.67,3.19-5.9,3.78-13.73,3.14-27.41-1.21-40.81-3.23-9.94-7.21-19.66-15.48-26.79Zm9.53,46.49c-.95-2.15-1.43-3.23-1.9-4.32-.1.05-.19.09-.29.14.55,1.04,1.1,2.09,2.19,4.18Z"/>
  <path class="cls-1" d="m510.6,326.44c4.47.04,8.09,3.09,8.19,6.92.12,4.42-4.42,8.56-9.22,8.41-4.59-.14-8.36-3.59-8.23-7.53.15-4.28,4.38-7.84,9.26-7.8Z"/>
  <path class="cls-1" d="m314.45,336.4c1.11-.94,1.9-2.34,3.58-2.46l-.08-.12c.25,2.11-1.64,2.36-2.82,3.22-.23-.21-.45-.42-.68-.64Z"/>
  <path class="cls-1" d="m325.45,329.5c-.11-.39-.23-.79-.34-1.18.15-.04.31-.09.46-.13-.06.4-.12.79-.18,1.19l.06.12Z"/>
  <polygon class="cls-1" points="327.13 327.35 327.5 327.22 327.48 327.54 327.13 327.35"/>
  <path class="cls-1" d="m322.04,330.95c.26-.27.51-.54.77-.8.08.14.16.27.24.41-.37.1-.75.2-1.12.31l.11.08Z"/>
  <path class="cls-1" d="m321.93,330.87c.49.88-.24,1-.78,1.25l.1.15c-.89-1.14-.03-1.21.79-1.31,0,0-.11-.09-.11-.09Z"/>
  <path class="cls-1" d="m321.15,332.11c-.35.13-.69.27-1.04.4,0-.16-.02-.32-.04-.48.39.07.77.13,1.17.21,0,.02-.09-.13-.09-.13Z"/>
  <path class="cls-1" d="m318.03,333.95c.27-.22.54-.45.81-.67.04.15.15.34.1.45-.26.5-.61.5-.99.1,0,0,.08.12.08.12Z"/>
  <path class="cls-1" d="m325.39,329.38c-.39.03-.79.07-1.18.1.03-.15.05-.31.08-.46.38.15.76.3,1.15.46,0,.02-.05-.1-.05-.1Z"/>
  <path class="cls-1" d="m806.84,371.2c-.51-.48-1.02-.97-1.52-1.45-10.64-15.5-14.51-32.83-13.29-51.34.39-5.87,1.9-12.32,8.37-14.11,6.64-1.84,10.91,3.46,14.11,8.23,10.78,16.08,15,33.78,11.77,53.06-.34,2.02-1.1,3.81-2.08,5.55-3.47,6.13-8.38,7.19-14.01,3-1.18-.89-2.23-1.96-3.35-2.94Zm.89-60.04c.49-.22.67-.55.31-1.01-.07-.08-.38-.1-.45-.03-.42.45-.09.72.27.97,11.35,15.32,15.84,32.6,14.76,51.48,3.04-18.8-.58-35.95-12.67-50.99-.48-.61-1.25-1.7-2.22-.42Zm-7.94,30.72c-.39-1.97-.27-4.58-3.17-4.67-1.96-.06-2.9,1.84-2.61,3.5.34,1.95.61,4.56,3.28,4.81,2.37.22,2.12-2.01,2.5-3.64Z"/>
  <path class="cls-1" d="m276.99,378.01c-.88,4.15,3.4,9.61-3.37,13.55,1.83-5.08,4.17-8.98,3.37-13.55Z"/>
  <path class="cls-3" d="m663.92,250.96c-.05,3.95-5.69,9.38-10.53,10.88-4.83,1.5-9.92,2.04-14.52,4.56-2.6,1.43-3.34,2.54-2.38,5.31.87,2.49,1.65,5.48.07,7.72-2.16,3.06-5.1,4.4-8.97,1.9-4.88-3.15-6.46-5.89-4.35-9.51,1.19-2.04,1.79-4.16.57-6.08-2.04-3.2-1.82-6.67-1.85-10.12-.07-7.33,1.86-9.72,8.64-12.57,7.7-3.25,15.77-3.52,23.86-3.48,5.83.02,9.54,4.79,9.46,11.39Z"/>
  <path class="cls-2" d="m612.67,235.82c1.45-17.47,36.22-40.45,56.72-37.89,8.37,18.99,18.05,37.39,23.49,57.46-.41.17-.83.34-1.24.51-2.5-6.18-5.02-12.35-7.5-18.53-4.4-10.96-9.29-21.68-14.8-32.14-1.84-3.5-3.97-5.1-7.96-3.62-2.48.92-5.09,1.63-7.7,2.07-11.85,1.98-20.76,8.36-27.69,17.95-2.82,3.91-6.01,7.55-9.06,11.29-1.02,1.25-1.9,2.75-4.26,2.9Z"/>
  <path class="cls-2" d="m684.66,201.01c9.38,17.2,17.36,34.08,24.8,51.25-2.84.86-2.89.88-4.1-1.74-4.57-9.96-9-19.98-13.7-29.88-3.76-7.93-7.16-16.08-13.03-22.96,12.54-3.73,54.09,9.43,55.24,17.75-15.24-7.9-30.63-14.5-49.21-14.42Z"/>
  <path class="cls-2" d="m609.15,239.75c1.89,3.34.32,4.96-.54,6.66-3.16,6.21-6.37,12.38-9.59,18.56-1.62,3.11-1.57,5.73,2.27,7.47-2.4,2.02-4.94,1.49-8.81,1.16,4.05-12.14,11.31-22.06,16.67-33.85Z"/>
  <path class="cls-2" d="m738.93,217.21c9.86,6.17,22.53,24.01,20.16,28.09-4.68-11-12.39-19.51-20.16-28.09Z"/>
  <path class="cls-2" d="m611.14,413.03c1.31-6.8,3.54-13.42,3.44-20.5-.27-19.4-6.18-36.86-17.62-52.48.21-.2.4-.41.59-.63,8.27,7.13,12.25,16.84,15.48,26.79,4.36,13.4,5,27.08,1.21,40.81-.62,2.23-1.46,4.29-3.19,5.9l.09.11Z"/>
  <path class="cls-2" d="m607.07,385.91c-1.09-2.09-1.64-3.13-2.19-4.18.1-.05.19-.09.29-.14.48,1.08.95,2.17,1.9,4.32Z"/>
  <path class="cls-2" d="m603.11,396.54c.12.25.24.5.36.76-.05-.24-.1-.47-.14-.71l-.22-.05Z"/>
  <path class="cls-2" d="m611.05,412.92c-.2.27-.41.53-.61.8-.07-.14-.21-.29-.19-.4.14-.53.45-.61.89-.29l-.09-.11Z"/>
  <path class="cls-2" d="m596.95,340.05c-.3-.27-.89-.73-.85-.78.54-.81.99-.23,1.44.15-.19.22-.39.43-.59.63Z"/>
  <path class="cls-2" d="m603.32,396.59c-.09.06-.19.11-.28.17.03-.07.06-.14.07-.21,0-.01.21.04.21.04Z"/>
  <path class="cls-2" d="m807.7,311.18c1-1.3,1.77-.21,2.26.4,12.09,15.04,15.71,32.19,12.67,50.99,1.08-18.88-3.42-36.15-14.76-51.48l-.17.09Z"/>
  <path class="cls-2" d="m799.79,341.88c-.38,1.63-.13,3.86-2.49,3.64-2.67-.25-2.95-2.86-3.28-4.81-.29-1.66.65-3.56,2.61-3.5,2.89.09,2.77,2.7,3.16,4.67Z"/>
  <path class="cls-2" d="m807.87,311.09c-.36-.25-.69-.52-.27-.97.07-.07.38-.05.45.03.36.46.18.79-.32,1.01-.03.02.14-.07.14-.07Z"/>
</svg>